  0
SECTION
  2
HEADER
  9
$ACADVER
  1
AC1015
  9
$ACADMAINTVER
 70
     6
  9
$DWGCODEPAGE
  3
ANSI_1252
  9
$INSBASE
 10
0.0
 20
0.0
 30
0.0
  9
$EXTMIN
 10
0.0
 20
-210.0
 30
0.0
  9
$EXTMAX
 10
186.225
 20
181.0
 30
0.0
  9
$LIMMIN
 10
0.0
 20
0.0
  9
$LIMMAX
 10
420.0
 20
297.0
  9
$ORTHOMODE
 70
     0
  9
$REGENMODE
 70
     1
  9
$FILLMODE
 70
     1
  9
$QTEXTMODE
 70
     0
  9
$MIRRTEXT
 70
     1
  9
$LTSCALE
 40
1.0
  9
$ATTMODE
 70
     1
  9
$TEXTSIZE
 40
3.5
  9
$TRACEWID
 40
1.0
  9
$TEXTSTYLE
  7
Standard
  9
$CLAYER
  8
0
  9
$CELTYPE
  6
ByLayer
  9
$CECOLOR
 62
   256
  9
$CELTSCALE
 40
1.0
  9
$DISPSILH
 70
     0
  9
$DIMSCALE
 40
1.0
  9
$DIMASZ
 40
3.302
  9
$DIMEXO
 40
0.0
  9
$DIMDLI
 40
3.75
  9
$DIMRND
 40
0.0
  9
$DIMDLE
 40
0.0
  9
$DIMEXE
 40
1.0
  9
$DIMTP
 40
0.0
  9
$DIMTM
 40
0.0
  9
$DIMTXT
 40
3.5
  9
$DIMCEN
 40
2.5
  9
$DIMTSZ
 40
0.0
  9
$DIMTOL
 70
     0
  9
$DIMLIM
 70
     0
  9
$DIMTIH
 70
     1
  9
$DIMTOH
 70
     1
  9
$DIMSE1
 70
     0
  9
$DIMSE2
 70
     0
  9
$DIMTAD
 70
     1
  9
$DIMZIN
 70
     1
  9
$DIMBLK
  1

  9
$DIMASO
 70
     1
  9
$DIMSHO
 70
     1
  9
$DIMPOST
  1

  9
$DIMAPOST
  1

  9
$DIMALT
 70
     0
  9
$DIMALTD
 70
     3
  9
$DIMALTF
 40
0.0393700787
  9
$DIMLFAC
 40
1.0
  9
$DIMTOFL
 70
     1
  9
$DIMTVP
 40
0.0
  9
$DIMTIX
 70
     0
  9
$DIMSOXD
 70
     0
  9
$DIMSAH
 70
     0
  9
$DIMBLK1
  1

  9
$DIMBLK2
  1

  9
$DIMSTYLE
  2
ISO-25
  9
$DIMCLRD
 70
     0
  9
$DIMCLRE
 70
     0
  9
$DIMCLRT
 70
     0
  9
$DIMTFAC
 40
1.0
  9
$DIMGAP
 40
1.524
  9
$DIMJUST
 70
     0
  9
$DIMSD1
 70
     0
  9
$DIMSD2
 70
     0
  9
$DIMTOLJ
 70
     0
  9
$DIMTZIN
 70
     1
  9
$DIMALTZ
 70
     0
  9
$DIMALTTZ
 70
     0
  9
$DIMUPT
 70
     0
  9
$DIMDEC
 70
     2
  9
$DIMTDEC
 70
     2
  9
$DIMALTU
 70
     2
  9
$DIMALTTD
 70
     3
  9
$DIMTXSTY
  7
Standard
  9
$DIMAUNIT
 70
     0
  9
$DIMADEC
 70
     2
  9
$DIMALTRND
 40
0.0
  9
$DIMAZIN
 70
     0
  9
$DIMDSEP
 70
    44
  9
$DIMATFIT
 70
     3
  9
$DIMFRAC
 70
     0
  9
$DIMLDRBLK
  1

  9
$DIMLUNIT
 70
     2
  9
$DIMLWD
 70
    -2
  9
$DIMLWE
 70
    -2
  9
$DIMTMOVE
 70
     0
  9
$LUNITS
 70
     2
  9
$LUPREC
 70
     2
  9
$SKETCHINC
 40
1.0
  9
$FILLETRAD
 40
0.0
  9
$AUNITS
 70
     0
  9
$AUPREC
 70
     2
  9
$MENU
  1
.
  9
$ELEVATION
 40
0.0
  9
$PELEVATION
 40
0.0
  9
$THICKNESS
 40
0.0
  9
$LIMCHECK
 70
     0
  9
$CHAMFERA
 40
0.0
  9
$CHAMFERB
 40
0.0
  9
$CHAMFERC
 40
0.0
  9
$CHAMFERD
 40
0.0
  9
$SKPOLY
 70
     0
  9
$TDCREATE
 40
2460684.533246632
  9
$TDUCREATE
 40
2460684.491579965
  9
$TDUPDATE
 40
2460684.533382558
  9
$TDUUPDATE
 40
2460684.491715892
  9
$TDINDWG
 40
0.0000000116
  9
$TDUSRTIMER
 40
0.0000000116
  9
$USRTIMER
 70
     1
  9
$ANGBASE
 50
0.0
  9
$ANGDIR
 70
     0
  9
$PDMODE
 70
     0
  9
$PDSIZE
 40
-1.0
  9
$PLINEWID
 40
0.0
  9
$SPLFRAME
 70
     0
  9
$SPLINETYPE
 70
     6
  9
$SPLINESEGS
 70
     8
  9
$HANDSEED
  5
15B
  9
$SURFTAB1
 70
     6
  9
$SURFTAB2
 70
     6
  9
$SURFTYPE
 70
     6
  9
$SURFU
 70
     6
  9
$SURFV
 70
     6
  9
$UCSBASE
  2

  9
$UCSNAME
  2

  9
$UCSORG
 10
0.0
 20
0.0
 30
0.0
  9
$UCSXDIR
 10
1.0
 20
0.0
 30
0.0
  9
$UCSYDIR
 10
0.0
 20
1.0
 30
0.0
  9
$UCSORTHOREF
  2

  9
$UCSORTHOVIEW
 70
     0
  9
$UCSORGTOP
 10
0.0
 20
0.0
 30
0.0
  9
$UCSORGBOTTOM
 10
0.0
 20
0.0
 30
0.0
  9
$UCSORGLEFT
 10
0.0
 20
0.0
 30
0.0
  9
$UCSORGRIGHT
 10
0.0
 20
0.0
 30
0.0
  9
$UCSORGFRONT
 10
0.0
 20
0.0
 30
0.0
  9
$UCSORGBACK
 10
0.0
 20
0.0
 30
0.0
  9
$PUCSBASE
  2

  9
$PUCSNAME
  2

  9
$PUCSORG
 10
0.0
 20
0.0
 30
0.0
  9
$PUCSXDIR
 10
1.0
 20
0.0
 30
0.0
  9
$PUCSYDIR
 10
0.0
 20
1.0
 30
0.0
  9
$PUCSORTHOREF
  2

  9
$PUCSORTHOVIEW
 70
     0
  9
$PUCSORGTOP
 10
0.0
 20
0.0
 30
0.0
  9
$PUCSORGBOTTOM
 10
0.0
 20
0.0
 30
0.0
  9
$PUCSORGLEFT
 10
0.0
 20
0.0
 30
0.0
  9
$PUCSORGRIGHT
 10
0.0
 20
0.0
 30
0.0
  9
$PUCSORGFRONT
 10
0.0
 20
0.0
 30
0.0
  9
$PUCSORGBACK
 10
0.0
 20
0.0
 30
0.0
  9
$USERI1
 70
     0
  9
$USERI2
 70
     0
  9
$USERI3
 70
     0
  9
$USERI4
 70
     0
  9
$USERI5
 70
     0
  9
$USERR1
 40
0.0
  9
$USERR2
 40
0.0
  9
$USERR3
 40
0.0
  9
$USERR4
 40
0.0
  9
$USERR5
 40
0.0
  9
$WORLDVIEW
 70
     1
  9
$SHADEDGE
 70
     3
  9
$SHADEDIF
 70
    70
  9
$TILEMODE
 70
     1
  9
$MAXACTVP
 70
    64
  9
$PINSBASE
 10
0.0
 20
0.0
 30
0.0
  9
$PLIMCHECK
 70
     0
  9
$PEXTMIN
 10
1.0000000000E+20
 20
1.0000000000E+20
 30
1.0000000000E+20
  9
$PEXTMAX
 10
-1.0000000000E+20
 20
-1.0000000000E+20
 30
-1.0000000000E+20
  9
$PLIMMIN
 10
0.0
 20
0.0
  9
$PLIMMAX
 10
420.0
 20
297.0
  9
$UNITMODE
 70
     0
  9
$VISRETAIN
 70
     1
  9
$PLINEGEN
 70
     0
  9
$PSLTSCALE
 70
     1
  9
$TREEDEPTH
 70
  3020
  9
$CMLSTYLE
  2
Standard
  9
$CMLJUST
 70
     0
  9
$CMLSCALE
 40
20.0
  9
$PROXYGRAPHICS
 70
     1
  9
$MEASUREMENT
 70
     1
  9
$CELWEIGHT
370
    -1
  9
$ENDCAPS
280
     0
  9
$JOINSTYLE
280
     0
  9
$LWDISPLAY
290
     1
  9
$INSUNITS
 70
     4
  9
$HYPERLINKBASE
  1

  9
$STYLESHEET
  1

  9
$XEDIT
290
     1
  9
$CEPSNTYPE
380
     0
  9
$PSTYLEMODE
290
     1
  9
$FINGERPRINTGUID
  2
{930f6476-740a-4b41-8313-f287cf6b2eaf}
  9
$VERSIONGUID
  2
{FAEB1C32-E019-11D5-929B-00C0DF256EC4}
  9
$EXTNAMES
290
     1
  9
$PSVPSCALE
 40
0.0
  9
$OLESTARTUP
290
     0
  0
ENDSEC
  0
SECTION
  2
CLASSES
  0
CLASS
  1
ACDBDICTIONARYWDFLT
  2
AcDbDictionaryWithDefault
  3
ObjectDBX Classes
 90
        0
280
     0
281
     0
  0
CLASS
  1
VISUALSTYLE
  2
AcDbVisualStyle
  3
ObjectDBX Classes
 90
     4095
280
     0
281
     0
  0
CLASS
  1
MATERIAL
  2
AcDbMaterial
  3
ObjectDBX Classes
 90
     1153
280
     0
281
     0
  0
CLASS
  1
SCALE
  2
AcDbScale
  3
ObjectDBX Classes
 90
     1153
280
     0
281
     0
  0
CLASS
  1
TABLESTYLE
  2
AcDbTableStyle
  3
ObjectDBX Classes
 90
     4095
280
     0
281
     0
  0
CLASS
  1
MLEADERSTYLE
  2
AcDbMLeaderStyle
  3
ACDB_MLEADERSTYLE_CLASS
 90
     4095
280
     0
281
     0
  0
CLASS
  1
SUN
  2
AcDbSun
  3
SCENEOE
 90
     1153
280
     0
281
     0
  0
CLASS
  1
ACDBPLACEHOLDER
  2
AcDbPlaceHolder
  3
ObjectDBX Classes
 90
        0
280
     0
281
     0
  0
CLASS
  1
LAYOUT
  2
AcDbLayout
  3
ObjectDBX Classes
 90
        0
280
     0
281
     0
  0
ENDSEC
  0
SECTION
  2
TABLES
  0
TABLE
  2
VPORT
  5
8
330
0
100
AcDbSymbolTable
 70
     1
  0
VPORT
  5
29
330
8
100
AcDbSymbolTableRecord
100
AcDbViewportTableRecord
  2
*Active
 70
     0
 10
0.0
 20
0.0
 11
1.0
 21
1.0
 12
93.1125
 22
-14.5
 13
0.0
 23
0.0
 14
10.0
 24
10.0
 15
10.0
 25
10.0
 16
0.0
 26
0.0
 36
1.0
 17
0.0
 27
0.0
 37
0.0
 40
398.82
 41
0.4762787724
 42
50.0
 43
0.0
 44
0.0
 50
0.0
 51
0.0
 71
     0
 72
   100
 73
     1
 74
     3
 75
     0
 76
     0
 77
     0
 78
     0
281
     0
 65
     1
110
0.0
120
0.0
130
0.0
111
1.0
121
0.0
131
0.0
112
0.0
122
1.0
132
0.0
 79
     0
146
0.0
  0
ENDTAB
  0
TABLE
  2
LTYPE
  5
5
330
0
100
AcDbSymbolTable
 70
     6
  0
LTYPE
  5
14
330
5
100
AcDbSymbolTableRecord
100
AcDbLinetypeTableRecord
  2
ByBlock
 70
     0
  3

 72
    65
 73
     0
 40
0.0
  0
LTYPE
  5
15
330
5
100
AcDbSymbolTableRecord
100
AcDbLinetypeTableRecord
  2
ByLayer
 70
     0
  3

 72
    65
 73
     0
 40
0.0
  0
LTYPE
  5
16
330
5
100
AcDbSymbolTableRecord
100
AcDbLinetypeTableRecord
  2
Continuous
 70
     0
  3
Solid line
 72
    65
 73
     0
 40
0.0
  0
LTYPE
  5
5E
330
5
100
AcDbSymbolTableRecord
100
AcDbLinetypeTableRecord
  2
HIDDEN
 70
     0
  3
Hidden __ __ __ __ __ __ __ __ __ __ __ __ __ __
 72
    65
 73
     2
 40
1.905
 49
1.27
 74
     0
 49
-0.635
 74
     0
  0
LTYPE
  5
5F
330
5
100
AcDbSymbolTableRecord
100
AcDbLinetypeTableRecord
  2
PHANTOM
 70
     0
  3
Phantom ______  __  __  ______  __  __  ______
 72
    65
 73
     6
 40
12.7
 49
6.35
 74
     0
 49
-1.27
 74
     0
 49
1.27
 74
     0
 49
-1.27
 74
     0
 49
1.27
 74
     0
 49
-1.27
 74
     0
  0
LTYPE
  5
60
330
5
100
AcDbSymbolTableRecord
100
AcDbLinetypeTableRecord
  2
CENTER
 70
     0
  3
Center ____ _ ____ _ ____ _ ____ _ ____ _ ____
 72
    65
 73
     4
 40
10.16
 49
6.35
 74
     0
 49
-1.27
 74
     0
 49
1.27
 74
     0
 49
-1.27
 74
     0
  0
LTYPE
  5
61
330
5
100
AcDbSymbolTableRecord
100
AcDbLinetypeTableRecord
  2
CENTERX2
 70
     0
  3
Center (2x) ________  __  ________  __  _____
 72
    65
 73
     4
 40
20.32
 49
12.7
 74
     0
 49
-2.54
 74
     0
 49
2.54
 74
     0
 49
-2.54
 74
     0
  0
LTYPE
  5
62
330
5
100
AcDbSymbolTableRecord
100
AcDbLinetypeTableRecord
  2
DOT2
 70
     0
  3
Dot (.5x) ........................................
 72
    65
 73
     2
 40
0.635
 49
0.0
 74
     0
 49
-0.635
 74
     0
  0
ENDTAB
  0
TABLE
  2
LAYER
  5
2
330
0
100
AcDbSymbolTable
 70
     1
  0
LAYER
  5
10
330
2
100
AcDbSymbolTableRecord
100
AcDbLayerTableRecord
  2
0
 70
     0
 62
     7
  6
Continuous
370
    -3
390
F
  0
ENDTAB
  0
TABLE
  2
STYLE
  5
3
330
0
100
AcDbSymbolTable
 70
     2
  0
STYLE
  5
11
330
3
100
AcDbSymbolTableRecord
100
AcDbTextStyleTableRecord
  2
Standard
 70
     0
 40
0.0
 41
1.0
 50
0.0
 71
     0
 42
3.5
  3
txt
  4

  0
STYLE
  5
157
330
3
100
AcDbSymbolTableRecord
100
AcDbTextStyleTableRecord
  2
SLDTEXTSTYLE0
 70
     0
 40
0.0
 41
0.7
 50
0.0
 71
     0
 42
3.5
  3
TXT
  4

  0
ENDTAB
  0
TABLE
  2
VIEW
  5
6
330
0
100
AcDbSymbolTable
 70
     0
  0
ENDTAB
  0
TABLE
  2
UCS
  5
7
330
0
100
AcDbSymbolTable
 70
     0
  0
ENDTAB
  0
TABLE
  2
APPID
  5
9
330
0
100
AcDbSymbolTable
 70
     1
  0
APPID
  5
12
330
9
100
AcDbSymbolTableRecord
100
AcDbRegAppTableRecord
  2
ACAD
 70
     0
  0
ENDTAB
  0
TABLE
  2
DIMSTYLE
  5
A
330
0
100
AcDbSymbolTable
 70
     1
100
AcDbDimStyleTable
  0
DIMSTYLE
105
27
330
A
100
AcDbSymbolTableRecord
100
AcDbDimStyleTableRecord
  2
ISO-25
 70
     0
 41
2.5
 42
0.625
 43
3.75
 44
1.25
 73
     0
 74
     0
 77
     1
 78
     8
140
2.5
141
2.5
143
0.0393700787
147
0.625
171
     3
172
     1
178
     0
271
     2
272
     2
274
     3
278
    44
283
     0
284
     8
340
11
  0
ENDTAB
  0
TABLE
  2
BLOCK_RECORD
  5
1
330
0
100
AcDbSymbolTable
 70
     1
  0
BLOCK_RECORD
  5
1F
330
1
100
AcDbSymbolTableRecord
100
AcDbBlockTableRecord
  2
*Model_Space
340
22
  0
BLOCK_RECORD
  5
1B
330
1
100
AcDbSymbolTableRecord
100
AcDbBlockTableRecord
  2
*Paper_Space
340
1E
  0
BLOCK_RECORD
  5
23
330
1
100
AcDbSymbolTableRecord
100
AcDbBlockTableRecord
  2
*Paper_Space0
340
26
  0
ENDTAB
  0
ENDSEC
  0
SECTION
  2
BLOCKS
  0
BLOCK
  5
20
330
1F
100
AcDbEntity
  8
0
100
AcDbBlockBegin
  2
*Model_Space
 70
     0
 10
0.0
 20
0.0
 30
0.0
  3
*Model_Space
  1

  0
ENDBLK
  5
21
330
1F
100
AcDbEntity
  8
0
100
AcDbBlockEnd
  0
BLOCK
  5
1C
330
1B
100
AcDbEntity
 67
     1
  8
0
100
AcDbBlockBegin
  2
*Paper_Space
 70
     0
 10
0.0
 20
0.0
 30
0.0
  3
*Paper_Space
  1

  0
ENDBLK
  5
1D
330
1B
100
AcDbEntity
 67
     1
  8
0
100
AcDbBlockEnd
  0
BLOCK
  5
24
330
23
100
AcDbEntity
  8
0
100
AcDbBlockBegin
  2
*Paper_Space0
 70
     0
 10
0.0
 20
0.0
 30
0.0
  3
*Paper_Space0
  1

  0
ENDBLK
  5
25
330
23
100
AcDbEntity
  8
0
100
AcDbBlockEnd
  0
ENDSEC
  0
SECTION
  2
ENTITIES
  0
LINE
  5
63
330
1F
100
AcDbEntity
  8
0
  6
Continuous
 62
     7
370
    25
100
AcDbLine
 10
79.564067318
 20
125.0
 30
0.0
 11
75.741274481
 21
131.7903603632
 31
0.0
  0
LINE
  5
64
330
1F
100
AcDbEntity
  8
0
  6
Continuous
 62
     7
370
    25
100
AcDbLine
 10
75.741274481
 20
131.7903603632
 30
0.0
 11
75.741274481
 21
128.0179943451
 31
0.0
  0
SPLINE
  5
65
330
1F
100
AcDbEntity
  8
0
  6
Continuous
 62
     7
370
    25
100
AcDbSpline
210
0.0
220
0.0
230
1.0
 70
     8
 71
     3
 72
    23
 73
    19
 74
     0
 42
0.00000001
 43
0.00000001
 40
0.0
 40
0.0
 40
0.0
 40
0.0
 40
0.0865688997130446
 40
0.1661718410593927
 40
0.2380743278593908
 40
0.3024330913966045
 40
0.3605227112217189
 40
0.4121119023124132
 40
0.4571169302523286
 40
0.4981801648965129
 40
0.538797046777403
 40
0.5840265400895174
 40
0.6345044490711598
 40
0.6924369516803923
 40
0.7573831210384392
 40
0.8305353295515268
 40
0.9113503758907929
 40
1.0
 40
1.0
 40
1.0
 40
1.0
 10
75.74127448095035
 20
128.017994345051
 30
0.0
 10
75.74310894531315
 20
127.9234384470898
 30
0.0
 10
75.74663025979835
 20
127.7419353010487
 30
0.0
 10
75.75744678749402
 20
127.4819444325577
 30
0.0
 10
75.78412083606287
 20
127.2473993278935
 30
0.0
 10
75.82042221092938
 20
127.0381753958807
 30
0.0
 10
75.8639404416719
 20
126.8526707454292
 30
0.0
 10
75.92446179214328
 20
126.6945145250995
 30
0.0
 10
75.9895266632016
 20
126.5586377883027
 30
0.0
 10
76.07017402792917
 20
126.4447688657665
 30
0.0
 10
76.17524791310368
 20
126.3528906362593
 30
0.0
 10
76.30180761355533
 20
126.2732933920304
 30
0.0
 10
76.45710252291113
 20
126.2080514957959
 30
0.0
 10
76.63861852176515
 20
126.1534475943709
 30
0.0
 10
76.8478626134733
 20
126.1065274373266
 30
0.0
 10
77.08528056352739
 20
126.0760184454334
 30
0.0
 10
77.34936926970876
 20
126.0525061507871
 30
0.0
 10
77.534425685184
 20
126.0457921915247
 30
0.0
 10
77.6312315953921
 20
126.0422800142471
 30
0.0
  0
LINE
  5
66
330
1F
100
AcDbEntity
  8
0
  6
Continuous
 62
     7
370
    25
100
AcDbLine
 10
77.6312315954
 20
126.0422800142
 30
0.0
 11
77.6477233678
 21
125.0
 31
0.0
  0
LINE
  5
67
330
1F
100
AcDbEntity
  8
0
  6
Continuous
 62
     7
370
    25
100
AcDbLine
 10
77.6477233678
 20
125.0
 30
0.0
 11
68.5640551423
 21
125.0
 31
0.0
  0
LINE
  5
68
330
1F
100
AcDbEntity
  8
0
  6
Continuous
 62
     7
370
    25
100
AcDbLine
 10
68.5640551423
 20
125.0
 30
0.0
 11
68.5640551423
 21
126.0455783687
 31
0.0
  0
SPLINE
  5
69
330
1F
100
AcDbEntity
  8
0
  6
Continuous
 62
     7
370
    25
100
AcDbSpline
210
0.0
220
0.0
230
1.0
 70
     8
 71
     3
 72
    19
 73
    15
 74
     0
 42
0.00000001
 43
0.00000001
 40
0.0
 40
0.0
 40
0.0
 40
0.0
 40
0.0854257550105253
 40
0.1639367645541636
 40
0.2350626773171131
 40
0.3008460395235631
 40
0.3596575534232683
 40
0.4124944105142229
 40
0.4620746799496291
 40
0.5078471547043997
 40
0.6021689731904456
 40
0.7132953280975639
 40
0.844701507332412
 40
0.9999999999999999
 40
0.9999999999999999
 40
0.9999999999999999
 40
0.9999999999999999
 10
68.56405514233732
 20
126.0455783687226
 30
0.0
 10
68.65533521485877
 20
126.0504414232845
 30
0.0
 10
68.83050673960085
 20
126.0597738948633
 30
0.0
 10
69.08127298261208
 20
126.0832022650804
 30
0.0
 10
69.30764385932349
 20
126.1283034043776
 30
0.0
 10
69.51079053628739
 20
126.1794164004533
 30
0.0
 10
69.69113651497926
 20
126.2404256889243
 30
0.0
 10
69.84554869357899
 20
126.3182317455026
 30
0.0
 10
69.97903263885362
 20
126.4051677042723
 30
0.0
 10
70.1247713549052
 20
126.5480347901484
 30
0.0
 10
70.2695660748338
 20
126.7788920813815
 30
0.0
 10
70.38307863376437
 20
127.1232005595206
 30
0.0
 10
70.45471279696734
 20
127.5445098647465
 30
0.0
 10
70.46067681030388
 20
127.851634843611
 30
0.0
 10
70.46390732020548
 20
128.017994345051
 30
0.0
  0
LINE
  5
6A
330
1F
100
AcDbEntity
  8
0
  6
Continuous
 62
     7
370
    25
100
AcDbLine
 10
70.4639073202
 20
128.0179943451
 30
0.0
 11
70.4639073202
 21
137.5337470068
 31
0.0
  0
SPLINE
  5
6B
330
1F
100
AcDbEntity
  8
0
  6
Continuous
 62
     7
370
    25
100
AcDbSpline
210
0.0
220
0.0
230
1.0
 70
     8
 71
     3
 72
    23
 73
    19
 74
     0
 42
0.00000001
 43
0.00000001
 40
0.0
 40
0.0
 40
0.0
 40
0.0
 40
0.081881684586562
 40
0.1578432013091352
 40
0.2271617110991867
 40
0.2911799884498888
 40
0.350036880530302
 40
0.403521136448501
 40
0.4528016617987595
 40
0.4982776261711964
 40
0.543302205034457
 40
0.592644861771456
 40
0.6450781303520697
 40
0.7036305806919158
 40
0.7685989709776534
 40
0.838562727265107
 40
0.9159032344567195
 40
1.0
 40
1.0
 40
1.0
 40
1.0
 10
70.46390732020548
 20
137.533747006769
 30
0.0
 10
70.46241448066021
 20
137.6228246898001
 30
0.0
 10
70.45953673609435
 20
137.7945396065828
 30
0.0
 10
70.44406722015943
 20
138.0413101787634
 30
0.0
 10
70.4150801666104
 20
138.2674300607044
 30
0.0
 10
70.371329266061
 20
138.4719886784247
 30
0.0
 10
70.32114027183232
 20
138.6575489660112
 30
0.0
 10
70.25349891142756
 20
138.8201721483892
 30
0.0
 10
70.17960686321507
 20
138.964014931816
 30
0.0
 10
70.08779799859143
 20
139.0861573329979
 30
0.0
 10
69.9781708336273
 20
139.1925765793013
 30
0.0
 10
69.8459599316078
 20
139.2833250069499
 30
0.0
 10
69.69065223720386
 20
139.3634158725853
 30
0.0
 10
69.51176195800181
 20
139.4326875840666
 30
0.0
 10
69.30804015971356
 20
139.4868380201357
 30
0.0
 10
69.08101966045673
 20
139.530194913029
 30
0.0
 10
68.83064904150174
 20
139.5584126657566
 30
0.0
 10
68.65536502666342
 20
139.5696004347567
 30
0.0
 10
68.56405514233732
 20
139.5754284270822
 30
0.0
  0
LINE
  5
6C
330
1F
100
AcDbEntity
  8
0
  6
Continuous
 62
     7
370
    25
100
AcDbLine
 10
68.5640551423
 20
139.5754284271
 30
0.0
 11
68.5640551423
 21
140.6210067958
 31
0.0
  0
LINE
  5
6D
330
1F
100
AcDbEntity
  8
0
  6
Continuous
 62
     7
370
    25
100
AcDbLine
 10
68.5640551423
 20
140.6210067958
 30
0.0
 11
76.8989969018
 21
140.6210067958
 31
0.0
  0
SPLINE
  5
6E
330
1F
100
AcDbEntity
  8
0
  6
Continuous
 62
     7
370
    25
100
AcDbSpline
210
0.0
220
0.0
230
1.0
 70
     8
 71
     3
 72
    23
 73
    19
 74
     0
 42
0.00000001
 43
0.00000001
 40
0.0
 40
0.0
 40
0.0
 40
0.0
 40
0.0888269590452163
 40
0.1727420269757644
 40
0.251609895160551
 40
0.325638798460436
 40
0.3951119869037748
 40
0.4609510624477287
 40
0.5230362376650259
 40
0.582179719735359
 40
0.6383265068127156
 40
0.6914334904128803
 40
0.7430323644805128
 40
0.7929000344813464
 40
0.8427251824791355
 40
0.8931423750759724
 40
0.9453271328620025
 40
1.0
 40
1.0
 40
1.0
 40
1.0
 10
76.89899690183876
 20
140.6210067958048
 30
0.0
 10
77.16735163217722
 20
140.6182489654452
 30
0.0
 10
77.68922180048504
 20
140.612885805302
 30
0.0
 10
78.44789572175189
 20
140.5598033240258
 30
0.0
 10
79.15813096119635
 20
140.4715379340651
 30
0.0
 10
79.81914600108708
 20
140.350127559371
 30
0.0
 10
80.43346009586763
 20
140.1974946049374
 30
0.0
 10
80.99781179621304
 20
140.0025407440678
 30
0.0
 10
81.51554050449086
 20
139.7746607596304
 30
0.0
 10
81.98585759986914
 20
139.5159525474068
 30
0.0
 10
82.40214427550008
 20
139.2219569076079
 30
0.0
 10
82.76795869473816
 20
138.900222015947
 30
0.0
 10
83.07405907063716
 20
138.5460859215316
 30
0.0
 10
83.33174772974944
 20
138.1667601818058
 30
0.0
 10
83.52166699843167
 20
137.7529714439114
 30
0.0
 10
83.66084575687012
 20
137.3133151161362
 30
0.0
 10
83.75046933393155
 20
136.8447080242441
 30
0.0
 10
83.75867447109562
 20
136.5215670224997
 30
0.0
 10
83.76287256528254
 20
136.3562344590278
 30
0.0
  0
SPLINE
  5
6F
330
1F
100
AcDbEntity
  8
0
  6
Continuous
 62
     7
370
    25
100
AcDbSpline
210
0.0
220
0.0
230
1.0
 70
     8
 71
     3
 72
    23
 73
    19
 74
     0
 42
0.00000001
 43
0.00000001
 40
0.0
 40
0.0
 40
0.0
 40
0.0
 40
0.0634467431705426
 40
0.1260389027843413
 40
0.1875853311803237
 40
0.2485511044376993
 40
0.3100027730724818
 40
0.3720985453984144
 40
0.4347292193177418
 40
0.4991440951437373
 40
0.5634371888525564
 40
0.626196073088089
 40
0.6887014887459473
 40
0.7500909940902815
 40
0.8118492868938739
 40
0.8733728556069668
 40
0.9362373165072339
 40
1.0
 40
1.0
 40
1.0
 40
1.0
 10
83.76287256528254
 20
136.3562344590278
 30
0.0
 10
83.76036783280846
 20
136.2461695584
 30
0.0
 10
83.75539210486681
 20
136.0275222548983
 30
0.0
 10
83.71463069645502
 20
135.7042166629828
 30
0.0
 10
83.64916118145798
 20
135.3895621496139
 30
0.0
 10
83.5553929269577
 20
135.0842330117183
 30
0.0
 10
83.43787044761602
 20
134.7860657191695
 30
0.0
 10
83.28734841750378
 20
134.4998845662964
 30
0.0
 10
83.11503788219471
 20
134.2204822134549
 30
0.0
 10
82.91862311094033
 20
133.952580577484
 30
0.0
 10
82.70246178744742
 20
133.7000739608457
 30
0.0
 10
82.46966266061993
 20
133.4676137702595
 30
0.0
 10
82.22421091451086
 20
133.255759508499
 30
0.0
 10
81.9594644252697
 20
133.0720443090172
 30
0.0
 10
81.68816672468314
 20
132.9011433776213
 30
0.0
 10
81.39717746148702
 20
132.7603422777474
 30
0.0
 10
81.09488600411296
 20
132.6363880802228
 30
0.0
 10
80.88403506449198
 20
132.5745001498625
 30
0.0
 10
80.77786176498621
 20
132.5433366853897
 30
0.0
  0
LINE
  5
70
330
1F
100
AcDbEntity
  8
0
  6
Continuous
 62
     7
370
    25
100
AcDbLine
 10
80.777861765
 20
132.5433366854
 30
0.0
 11
83.6804137034
 21
127.4803625656
 31
0.0
  0
SPLINE
  5
71
330
1F
100
AcDbEntity
  8
0
  6
Continuous
 62
     7
370
    25
100
AcDbSpline
210
0.0
220
0.0
230
1.0
 70
     8
 71
     3
 72
    15
 73
    11
 74
     0
 42
0.00000001
 43
0.00000001
 40
0.0
 40
0.0
 40
0.0
 40
0.0
 40
0.1787444625952388
 40
0.3290355832741578
 40
0.448810106859655
 40
0.5421932957781681
 40
0.6295237798229354
 40
0.7332972651009143
 40
0.8568460061058333
 40
1.0
 40
1.0
 40
1.0
 40
1.0
 10
83.6804137033959
 20
127.4803625655501
 30
0.0
 10
83.759210466179
 20
127.345359138497
 30
0.0
 10
83.90426077110041
 20
127.0968427329007
 30
0.0
 10
84.1224010044633
 20
126.7699306401484
 30
0.0
 10
84.32056266897152
 20
126.5213774549863
 30
0.0
 10
84.50731289661017
 20
126.333824830888
 30
0.0
 10
84.72610097632099
 20
126.2098191394075
 30
0.0
 10
84.98891654682937
 20
126.1255137338259
 30
0.0
 10
85.30594102242922
 20
126.0561394021057
 30
0.0
 10
85.53810799054037
 20
126.0320966157646
 30
0.0
 10
85.66272474315069
 20
126.0191915329189
 30
0.0
  0
LINE
  5
72
330
1F
100
AcDbEntity
  8
0
  6
Continuous
 62
     7
370
    25
100
AcDbLine
 10
85.6627247432
 20
126.0191915329
 30
0.0
 11
85.6627247432
 21
125.0
 31
0.0
  0
LINE
  5
73
330
1F
100
AcDbEntity
  8
0
  6
Continuous
 62
     7
370
    25
100
AcDbLine
 10
85.6627247432
 20
125.0
 30
0.0
 11
79.564067318
 21
125.0
 31
0.0
  0
LINE
  5
74
330
1F
100
AcDbEntity
  8
0
  6
Continuous
 62
     7
370
    25
100
AcDbLine
 10
50.1988174229
 20
130.2773671607
 30
0.0
 11
49.3478419683
 21
125.0
 31
0.0
  0
LINE
  5
75
330
1F
100
AcDbEntity
  8
0
  6
Continuous
 62
     7
370
    25
100
AcDbLine
 10
49.3478419683
 20
125.0
 30
0.0
 11
35.4221893729
 21
125.0
 31
0.0
  0
LINE
  5
76
330
1F
100
AcDbEntity
  8
0
  6
Continuous
 62
     7
370
    25
100
AcDbLine
 10
35.4221893729
 20
125.0
 30
0.0
 11
35.4221893729
 21
126.0455783687
 31
0.0
  0
SPLINE
  5
77
330
1F
100
AcDbEntity
  8
0
  6
Continuous
 62
     7
370
    25
100
AcDbSpline
210
0.0
220
0.0
230
1.0
 70
     8
 71
     3
 72
    23
 73
    19
 74
     0
 42
0.00000001
 43
0.00000001
 40
0.0
 40
0.0
 40
0.0
 40
0.0
 40
0.0844487888654298
 40
0.1620619123051433
 40
0.2333722014641259
 40
0.2984032364856653
 40
0.3565421562945764
 40
0.4092367749141558
 40
0.4582500227915198
 40
0.5034990235868676
 40
0.5492016597915729
 40
0.5987278205479262
 40
0.6511575171461479
 40
0.7105948106911352
 40
0.7737346521374239
 40
0.8433986752957034
 40
0.9187254825819703
 40
1.0
 40
1.0
 40
1.0
 40
1.0
 10
35.42218937285959
 20
126.0455783687226
 30
0.0
 10
35.51347607298461
 20
126.0504111752814
 30
0.0
 10
35.68866031646571
 20
126.0596855992637
 30
0.0
 10
35.94041620783071
 20
126.0836122194465
 30
0.0
 10
36.16811552371743
 20
126.1277562506226
 30
0.0
 10
36.37204452609247
 20
126.1797906151731
 30
0.0
 10
36.55358856120949
 20
126.23951928509
 30
0.0
 10
36.70609501457502
 20
126.3221616740335
 30
0.0
 10
36.84059918784077
 20
126.4082247118058
 30
0.0
 10
36.94913772245698
 20
126.5152633131225
 30
0.0
 10
37.04087094552697
 20
126.6372130769072
 30
0.0
 10
37.11514871321238
 20
126.7794661450176
 30
0.0
 10
37.17794567045701
 20
126.9426267300679
 30
0.0
 10
37.23461974038928
 20
127.1237640637637
 30
0.0
 10
37.27197459905663
 20
127.328810060458
 30
0.0
 10
37.30244004373989
 20
127.552122905759
 30
0.0
 10
37.31759160348499
 20
127.7968036714008
 30
0.0
 10
37.32052114701014
 20
127.9663061548322
 30
0.0
 10
37.32204155072774
 20
128.0542762442811
 30
0.0
  0
LINE
  5
78
330
1F
100
AcDbEntity
  8
0
  6
Continuous
 62
     7
370
    25
100
AcDbLine
 10
37.3220415507
 20
128.0542762443
 30
0.0
 11
37.3220415507
 21
137.7415433387
 31
0.0
  0
SPLINE
  5
79
330
1F
100
AcDbEntity
  8
0
  6
Continuous
 62
     7
370
    25
100
AcDbSpline
210
0.0
220
0.0
230
1.0
 70
     8
 71
     3
 72
    19
 73
    15
 74
     0
 42
0.00000001
 43
0.00000001
 40
0.0
 40
0.0
 40
0.0
 40
0.0
 40
0.1495001974138724
 40
0.2762778250778284
 40
0.383632047435114
 40
0.4762480452876581
 40
0.5215973625272499
 40
0.5710041252581444
 40
0.6263505684633441
 40
0.6870583055928576
 40
0.7540544916939674
 40
0.8287494081193403
 40
0.9102532279736534
 40
0.9999999999999999
 40
0.9999999999999999
 40
0.9999999999999999
 40
0.9999999999999999
 10
37.32204155072774
 20
137.7415433387234
 30
0.0
 10
37.31827760596174
 20
137.8957215057065
 30
0.0
 10
37.31132179926948
 20
138.180644264241
 30
0.0
 10
37.24572141214557
 20
138.5726532700787
 30
0.0
 10
37.12933964543409
 20
138.8909221048625
 30
0.0
 10
36.98601594273335
 20
139.1042847075834
 30
0.0
 10
36.83926112773476
 20
139.2312490128974
 30
0.0
 10
36.70816066393301
 20
139.314308168298
 30
0.0
 10
36.55297792812139
 20
139.3862703533442
 30
0.0
 10
36.37309506914519
 20
139.4442928355031
 30
0.0
 10
36.17025332234245
 20
139.493694668136
 30
0.0
 10
35.94335464677045
 20
139.5330639827982
 30
0.0
 10
35.69091483969459
 20
139.5584648546908
 30
0.0
 10
35.51459353682772
 20
139.5674311393354
 30
0.0
 10
35.42218937285959
 20
139.5721300726067
 30
0.0
  0
LINE
  5
7A
330
1F
100
AcDbEntity
  8
0
  6
Continuous
 62
     7
370
    25
100
AcDbLine
 10
35.4221893729
 20
139.5721300726
 30
0.0
 11
35.4221893729
 21
140.6210067958
 31
0.0
  0
LINE
  5
7B
330
1F
100
AcDbEntity
  8
0
  6
Continuous
 62
     7
370
    25
100
AcDbLine
 10
35.4221893729
 20
140.6210067958
 30
0.0
 11
49.3544386772
 21
140.6210067958
 31
0.0
  0
LINE
  5
7C
330
1F
100
AcDbEntity
  8
0
  6
Continuous
 62
     7
370
    25
100
AcDbLine
 10
49.3544386772
 20
140.6210067958
 30
0.0
 11
49.3544386772
 21
135.9769236943
 31
0.0
  0
LINE
  5
7D
330
1F
100
AcDbEntity
  8
0
  6
Continuous
 62
     7
370
    25
100
AcDbLine
 10
49.3544386772
 20
135.9769236943
 30
0.0
 11
48.1142573945
 21
135.9769236943
 31
0.0
  0
SPLINE
  5
7E
330
1F
100
AcDbEntity
  8
0
  6
Continuous
 62
     7
370
    25
100
AcDbSpline
210
0.0
220
0.0
230
1.0
 70
     8
 71
     3
 72
    23
 73
    19
 74
     0
 42
0.00000001
 43
0.00000001
 40
0.0
 40
0.0
 40
0.0
 40
0.0
 40
0.0790431036673566
 40
0.151983729783312
 40
0.2193764127242924
 40
0.2818674721451517
 40
0.3399458589488704
 40
0.393422224499211
 40
0.4434547729068136
 40
0.4904344438093953
 40
0.5381459074118483
 40
0.5892555396287114
 40
0.6442461064943427
 40
0.7047407691837129
 40
0.7700548501495847
 40
0.8405024883578922
 40
0.9174440050122428
 40
1.0
 40
1.0
 40
1.0
 40
1.0
 10
48.11425739445099
 20
135.9769236943493
 30
0.0
 10
48.0911223794052
 20
136.1257695967974
 30
0.0
 10
48.04663847490105
 20
136.4119698390377
 30
0.0
 10
47.94797094289758
 20
136.818353855157
 30
0.0
 10
47.84212827573625
 20
137.1901599407456
 30
0.0
 10
47.71354682098873
 20
137.5248821716087
 30
0.0
 10
47.56618385863797
 20
137.8225082000957
 30
0.0
 10
47.40023455877088
 20
138.0823845169066
 30
0.0
 10
47.21964684288046
 20
138.3061586826107
 30
0.0
 10
47.01526900926192
 20
138.4925526038835
 30
0.0
 10
46.78625396818167
 20
138.6513174774535
 30
0.0
 10
46.52280339669732
 20
138.7812594345922
 30
0.0
 10
46.22594202244796
 20
138.8945791395305
 30
0.0
 10
45.89303495961782
 20
138.9846746704532
 30
0.0
 10
45.5259490868694
 20
139.0565189801422
 30
0.0
 10
45.1239920859721
 20
139.1096787877565
 30
0.0
 10
44.68657966541552
 20
139.1378372475439
 30
0.0
 10
44.38275649758054
 20
139.1414658330506
 30
0.0
 10
44.22549746787712
 20
139.1433439907962
 30
0.0
  0
LINE
  5
7F
330
1F
100
AcDbEntity
  8
0
  6
Continuous
 62
     7
370
    25
100
AcDbLine
 10
44.2254974679
 20
139.1433439908
 30
0.0
 11
42.5994087115
 21
139.1433439908
 31
0.0
  0
LINE
  5
80
330
1F
100
AcDbEntity
  8
0
  6
Continuous
 62
     7
370
    25
100
AcDbLine
 10
42.5994087115
 20
139.1433439908
 30
0.0
 11
42.5994087115
 21
133.8707270753
 31
0.0
  0
SPLINE
  5
81
330
1F
100
AcDbEntity
  8
0
  6
Continuous
 62
     7
370
    25
100
AcDbSpline
210
0.0
220
0.0
230
1.0
 70
     8
 71
     3
 72
    23
 73
    19
 74
     0
 42
0.00000001
 43
0.00000001
 40
0.04162172693937
 40
0.04162172693937
 40
0.04162172693937
 40
0.04162172693937
 40
0.0595163997216882
 40
0.1150304479868073
 40
0.1675254133123575
 40
0.2180842863188023
 40
0.2666356054218637
 40
0.3138538093014771
 40
0.3607843630882281
 40
0.408142819367466
 40
0.458876297246767
 40
0.5150731034292517
 40
0.5774727334724373
 40
0.6475449396275578
 40
0.7241762029839304
 40
0.8081610404849919
 40
0.9005772003354992
 40
1.0
 40
1.0
 40
1.0
 40
1.0
 10
42.59940871147483
 20
133.8707270752627
 30
0.0
 10
42.62583120000128
 20
133.872003108908
 30
0.0
 10
42.73409537202302
 20
133.878812557523
 30
0.0
 10
42.91849281351305
 20
133.9063353636375
 30
0.0
 10
43.14924566174269
 20
133.9513358807776
 30
0.0
 10
43.3594954515807
 20
134.0309025936606
 30
0.0
 10
43.5570318890171
 20
134.1203898218326
 30
0.0
 10
43.7328570497684
 20
134.238627532222
 30
0.0
 10
43.8924698388694
 20
134.3745405539151
 30
0.0
 10
44.03790727671937
 20
134.533027770698
 30
0.0
 10
44.16815558415597
 20
134.7212446748951
 30
0.0
 10
44.28287019888022
 20
134.9444989019658
 30
0.0
 10
44.38450483252244
 20
135.2047374684615
 30
0.0
 10
44.47473875266627
 20
135.5006982545337
 30
0.0
 10
44.55820970861811
 20
135.8316966891413
 30
0.0
 10
44.62544339445058
 20
136.1999833193123
 30
0.0
 10
44.68560533471688
 20
136.6035591438757
 30
0.0
 10
44.71276930216388
 20
136.8860124004192
 30
0.0
 10
44.72684734814788
 20
137.0323971264983
 30
0.0
  0
LINE
  5
82
330
1F
100
AcDbEntity
  8
0
  6
Continuous
 62
     7
370
    25
100
AcDbLine
 10
44.7268473481
 20
137.0323971265
 30
0.0
 11
45.9769236943
 21
137.0323971265
 31
0.0
  0
LINE
  5
83
330
1F
100
AcDbEntity
  8
0
  6
Continuous
 62
     7
370
    25
100
AcDbLine
 10
45.9769236943
 20
137.0323971265
 30
0.0
 11
45.9769236943
 21
129.2218937286
 31
0.0
  0
LINE
  5
84
330
1F
100
AcDbEntity
  8
0
  6
Continuous
 62
     7
370
    25
100
AcDbLine
 10
45.9769236943
 20
129.2218937286
 30
0.0
 11
44.7268473481
 21
129.2218937286
 31
0.0
  0
SPLINE
  5
85
330
1F
100
AcDbEntity
  8
0
  6
Continuous
 62
     7
370
    25
100
AcDbSpline
210
0.0
220
0.0
230
1.0
 70
     8
 71
     3
 72
    23
 73
    19
 74
     0
 42
0.00000001
 43
0.00000001
 40
0.0
 40
0.0
 40
0.0
 40
0.0
 40
0.0989701411168672
 40
0.1910133549367706
 40
0.2741383704706337
 40
0.3503973324572161
 40
0.4191585522845383
 40
0.4817708666920474
 40
0.5369967949839857
 40
0.5871264905328157
 40
0.6344202910830855
 40
0.6813533054192321
 40
0.7288520391417086
 40
0.77749020852166
 40
0.8285953539977212
 40
0.8827756530613541
 40
0.939723745860809
 40
0.9456122102776117
 40
0.9456122102776117
 40
0.9456122102776117
 40
0.9456122102776117
 10
44.72684734814788
 20
129.2218937285959
 30
0.0
 10
44.71256110330791
 20
129.3693325748258
 30
0.0
 10
44.68498850893213
 20
129.6538910118306
 30
0.0
 10
44.62767780491259
 20
130.0604815321455
 30
0.0
 10
44.55165189983739
 20
130.4290238644181
 30
0.0
 10
44.4782477879329
 20
130.7629047182733
 30
0.0
 10
44.37903204027369
 20
131.0576686975825
 30
0.0
 10
44.27861366699349
 20
131.3188191493751
 30
0.0
 10
44.15660279721894
 20
131.5391885702827
 30
0.0
 10
44.02849927769562
 20
131.7292337829369
 30
0.0
 10
43.87870207960837
 20
131.8858900996206
 30
0.0
 10
43.71697251654839
 20
132.0240733088381
 30
0.0
 10
43.5330661128389
 20
132.1352095567445
 30
0.0
 10
43.33320745579879
 20
132.2289943545798
 30
0.0
 10
43.11380341296125
 20
132.3009020579875
 30
0.0
 10
42.8764302552805
 20
132.3537667429253
 30
0.0
 10
42.70206599356775
 20
132.3735972317988
 30
0.0
 10
42.60820619918727
 20
132.3795815057082
 30
0.0
 10
42.59940871231169
 20
132.3801053366224
 30
0.0
  0
LINE
  5
86
330
1F
100
AcDbEntity
  8
0
  6
Continuous
 62
     7
370
    25
100
AcDbLine
 10
42.5994087123
 20
132.3801053366
 30
0.0
 11
42.5994087115
 21
127.8761651026
 31
0.0
  0
SPLINE
  5
87
330
1F
100
AcDbEntity
  8
0
  6
Continuous
 62
     7
370
    25
100
AcDbSpline
210
0.0
220
0.0
230
1.0
 70
     8
 71
     3
 72
    23
 73
    19
 74
     0
 42
0.00000001
 43
0.00000001
 40
0.0
 40
0.0
 40
0.0
 40
0.0
 40
0.0940700211333871
 40
0.1784390566554384
 40
0.2519882477011569
 40
0.3150509390854151
 40
0.3675222700134262
 40
0.4115671642089533
 40
0.445989009324752
 40
0.4745072116639735
 40
0.5034667779064652
 40
0.5432574785951169
 40
0.5921514316027203
 40
0.652616832558108
 40
0.7225145884105736
 40
0.804506553001175
 40
0.8961580407759668
 40
1.0
 40
1.0
 40
1.0
 40
1.0
 10
42.59940871147261
 20
127.8761651026059
 30
0.0
 10
42.59992311203317
 20
127.7914882597288
 30
0.0
 10
42.6008988655162
 20
127.6308668866121
 30
0.0
 10
42.61119511785055
 20
127.4043312517561
 30
0.0
 10
42.62495492643021
 20
127.2056761832075
 30
0.0
 10
42.65337474429163
 20
127.0378685683278
 30
0.0
 10
42.67974321802155
 20
126.8963337821887
 30
0.0
 10
42.71987881924815
 20
126.7852364945493
 30
0.0
 10
42.76097056334148
 20
126.6976712673833
 30
0.0
 10
42.81768282839865
 20
126.6347304116469
 30
0.0
 10
42.89824866815738
 20
126.5973246311664
 30
0.0
 10
42.99941868271886
 20
126.566649513547
 30
0.0
 10
43.13037854487194
 20
126.5360601463396
 30
0.0
 10
43.29048279750544
 20
126.5148615477706
 30
0.0
 10
43.48098036378057
 20
126.4993352889641
 30
0.0
 10
43.69978182077094
 20
126.4855548274612
 30
0.0
 10
43.94951291859621
 20
126.4802926406433
 30
0.0
 10
44.1254478611084
 20
126.478575117014
 30
0.0
 10
44.21890075892619
 20
126.4776628050086
 30
0.0
  0
SPLINE
  5
88
330
1F
100
AcDbEntity
  8
0
  6
Continuous
 62
     7
370
    25
100
AcDbSpline
210
0.0
220
0.0
230
1.0
 70
     8
 71
     3
 72
    23
 73
    19
 74
     0
 42
0.00000001
 43
0.00000001
 40
0.0
 40
0.0
 40
0.0
 40
0.0
 40
0.0739309496907301
 40
0.1436787621596791
 40
0.2090218420275613
 40
0.2711341087134424
 40
0.3296459166708373
 40
0.3847266369611745
 40
0.4381627846534479
 40
0.489207593064037
 40
0.5405448706272798
 40
0.594934100462049
 40
0.6520055052432857
 40
0.7126088256021039
 40
0.7776174419710766
 40
0.8471554343832706
 40
0.9211398275556366
 40
1.0
 40
1.0
 40
1.0
 40
1.0
 10
44.21890075892618
 20
126.4776628050085
 30
0.0
 10
44.38498978376574
 20
126.4800972315953
 30
0.0
 10
44.70777023764983
 20
126.4848283408263
 30
0.0
 10
45.17616235932623
 20
126.5240747168704
 30
0.0
 10
45.61415917222152
 20
126.5914111769827
 30
0.0
 10
46.02368336572078
 20
126.6765011815616
 30
0.0
 10
46.40008983818956
 20
126.7970573857093
 30
0.0
 10
46.74832034742511
 20
126.9381968664378
 30
0.0
 10
47.06380215007775
 20
127.1097962711804
 30
0.0
 10
47.35392532587382
 20
127.3068779694573
 30
0.0
 10
47.61907833629178
 20
127.5398984582369
 30
0.0
 10
47.86629419593937
 20
127.81042173305
 30
0.0
 10
48.09363879036651
 20
128.1237874817277
 30
0.0
 10
48.30597489954955
 20
128.4755558375208
 30
0.0
 10
48.49817712237983
 20
128.8699890873021
 30
0.0
 10
48.68067799363583
 20
129.3016832410248
 30
0.0
 10
48.84159058212018
 20
129.7751153434595
 30
0.0
 10
48.93185455770757
 20
130.1064269147531
 30
0.0
 10
48.97842626702296
 20
130.2773671607448
 30
0.0
  0
LINE
  5
89
330
1F
100
AcDbEntity
  8
0
  6
Continuous
 62
     7
370
    25
100
AcDbLine
 10
48.978426267
 20
130.2773671607
 30
0.0
 11
50.1988174229
 21
130.2773671607
 31
0.0
  0
LINE
  5
8A
330
1F
100
AcDbEntity
  8
0
  6
Continuous
 62
     7
370
    25
100
AcDbLine
 10
0.0
 20
0.0
 30
0.0
 11
17.0
 21
0.0
 31
0.0
  0
LINE
  5
8B
330
1F
100
AcDbEntity
  8
0
  6
Continuous
 62
     7
370
    25
100
AcDbLine
 10
17.0
 20
0.0
 30
0.0
 11
17.0
 21
150.0
 31
0.0
  0
LINE
  5
8C
330
1F
100
AcDbEntity
  8
0
  6
Continuous
 62
     7
370
    25
100
AcDbLine
 10
17.0
 20
150.0
 30
0.0
 11
23.0
 21
150.0
 31
0.0
  0
LINE
  5
8D
330
1F
100
AcDbEntity
  8
0
  6
Continuous
 62
     7
370
    25
100
AcDbLine
 10
23.0
 20
150.0
 30
0.0
 11
23.0
 21
-210.0
 31
0.0
  0
LINE
  5
8E
330
1F
100
AcDbEntity
  8
0
  6
Continuous
 62
     7
370
    25
100
AcDbLine
 10
23.0
 20
-210.0
 30
0.0
 11
173.0
 21
-210.0
 31
0.0
  0
LINE
  5
8F
330
1F
100
AcDbEntity
  8
0
  6
Continuous
 62
     7
370
    25
100
AcDbLine
 10
173.0
 20
-210.0
 30
0.0
 11
173.0
 21
-127.5
 31
0.0
  0
LINE
  5
90
330
1F
100
AcDbEntity
  8
0
  6
Continuous
 62
     7
370
    25
100
AcDbLine
 10
173.0
 20
-127.5
 30
0.0
 11
186.225
 21
-104.5
 31
0.0
  0
LINE
  5
91
330
1F
100
AcDbEntity
  8
0
  6
Continuous
 62
     7
370
    25
100
AcDbLine
 10
186.225
 20
-104.5
 30
0.0
 11
181.225
 21
-104.5
 31
0.0
  0
LINE
  5
92
330
1F
100
AcDbEntity
  8
0
  6
Continuous
 62
     7
370
    25
100
AcDbLine
 10
181.225
 20
-104.5
 30
0.0
 11
179.5
 21
-107.5
 31
0.0
  0
LINE
  5
93
330
1F
100
AcDbEntity
  8
0
  6
Continuous
 62
     7
370
    25
100
AcDbLine
 10
179.5
 20
-107.5
 30
0.0
 11
173.0
 21
-107.5
 31
0.0
  0
LINE
  5
94
330
1F
100
AcDbEntity
  8
0
  6
Continuous
 62
     7
370
    25
100
AcDbLine
 10
173.0
 20
-107.5
 30
0.0
 11
173.0
 21
72.5
 31
0.0
  0
LINE
  5
95
330
1F
100
AcDbEntity
  8
0
  6
Continuous
 62
     7
370
    25
100
AcDbLine
 10
173.0
 20
72.5
 30
0.0
 11
186.225
 21
95.5
 31
0.0
  0
LINE
  5
96
330
1F
100
AcDbEntity
  8
0
  6
Continuous
 62
     7
370
    25
100
AcDbLine
 10
186.225
 20
95.5
 30
0.0
 11
181.225
 21
95.5
 31
0.0
  0
LINE
  5
97
330
1F
100
AcDbEntity
  8
0
  6
Continuous
 62
     7
370
    25
100
AcDbLine
 10
181.225
 20
95.5
 30
0.0
 11
179.5
 21
92.5
 31
0.0
  0
LINE
  5
98
330
1F
100
AcDbEntity
  8
0
  6
Continuous
 62
     7
370
    25
100
AcDbLine
 10
179.5
 20
92.5
 30
0.0
 11
173.0
 21
92.5
 31
0.0
  0
LINE
  5
99
330
1F
100
AcDbEntity
  8
0
  6
Continuous
 62
     7
370
    25
100
AcDbLine
 10
173.0
 20
92.5
 30
0.0
 11
173.0
 21
175.0
 31
0.0
  0
LINE
  5
9A
330
1F
100
AcDbEntity
  8
0
  6
Continuous
 62
     7
370
    25
100
AcDbLine
 10
173.0
 20
175.0
 30
0.0
 11
123.0
 21
175.0
 31
0.0
  0
LINE
  5
9B
330
1F
100
AcDbEntity
  8
0
  6
Continuous
 62
     7
370
    25
100
AcDbLine
 10
123.0
 20
175.0
 30
0.0
 11
123.0
 21
181.0
 31
0.0
  0
LINE
  5
9C
330
1F
100
AcDbEntity
  8
0
  6
Continuous
 62
     7
370
    25
100
AcDbLine
 10
123.0
 20
181.0
 30
0.0
 11
108.0
 21
181.0
 31
0.0
  0
LINE
  5
9D
330
1F
100
AcDbEntity
  8
0
  6
Continuous
 62
     7
370
    25
100
AcDbLine
 10
108.0
 20
181.0
 30
0.0
 11
108.0
 21
175.0
 31
0.0
  0
LINE
  5
9E
330
1F
100
AcDbEntity
  8
0
  6
Continuous
 62
     7
370
    25
100
AcDbLine
 10
108.0
 20
175.0
 30
0.0
 11
65.0
 21
175.0
 31
0.0
  0
LINE
  5
9F
330
1F
100
AcDbEntity
  8
0
  6
Continuous
 62
     7
370
    25
100
AcDbLine
 10
65.0
 20
175.0
 30
0.0
 11
65.0
 21
181.0
 31
0.0
  0
LINE
  5
A0
330
1F
100
AcDbEntity
  8
0
  6
Continuous
 62
     7
370
    25
100
AcDbLine
 10
65.0
 20
181.0
 30
0.0
 11
50.0
 21
181.0
 31
0.0
  0
LINE
  5
A1
330
1F
100
AcDbEntity
  8
0
  6
Continuous
 62
     7
370
    25
100
AcDbLine
 10
50.0
 20
181.0
 30
0.0
 11
50.0
 21
175.0
 31
0.0
  0
LINE
  5
A2
330
1F
100
AcDbEntity
  8
0
  6
Continuous
 62
     7
370
    25
100
AcDbLine
 10
50.0
 20
175.0
 30
0.0
 11
0.0
 21
175.0
 31
0.0
  0
LINE
  5
A3
330
1F
100
AcDbEntity
  8
0
  6
Continuous
 62
     7
370
    25
100
AcDbLine
 10
0.0
 20
175.0
 30
0.0
 11
0.0
 21
0.0
 31
0.0
  0
LINE
  5
A4
330
1F
100
AcDbEntity
  8
0
  6
Continuous
 62
     7
370
    25
100
AcDbLine
 10
79.1451762996
 20
75.0815061804
 30
0.0
 11
78.696600091
 21
75.0815061804
 31
0.0
  0
LINE
  5
A5
330
1F
100
AcDbEntity
  8
0
  6
Continuous
 62
     7
370
    25
100
AcDbLine
 10
78.696600091
 20
75.0815061804
 30
0.0
 11
78.696600091
 21
70.9222811869
 31
0.0
  0
SPLINE
  5
A6
330
1F
100
AcDbEntity
  8
0
  6
Continuous
 62
     7
370
    25
100
AcDbSpline
210
0.0
220
0.0
230
1.0
 70
     8
 71
     3
 72
    23
 73
    19
 74
     0
 42
0.00000001
 43
0.00000001
 40
0.0
 40
0.0
 40
0.0
 40
0.0
 40
0.0862442163699358
 40
0.1648479530587518
 40
0.2380118041208314
 40
0.305075884250283
 40
0.3664520386664042
 40
0.4223089419835557
 40
0.4749358776870496
 40
0.5231453712374259
 40
0.5709549450334762
 40
0.6201597727538196
 40
0.6727867084573135
 40
0.728643611774465
 40
0.7885394605153094
 40
0.8544484216383165
 40
0.9244540644305874
 40
1.0
 40
1.0
 40
1.0
 40
1.0
 10
78.69660009096746
 20
70.92228118687457
 30
0.0
 10
78.69772323758974
 20
70.82549113447693
 30
0.0
 10
78.69987002991348
 20
70.64048577776109
 30
0.0
 10
78.71999345497578
 20
70.37397661600004
 30
0.0
 10
78.7521137801238
 20
70.1304073457422
 30
0.0
 10
78.7973452568451
 20
69.90844977231338
 30
0.0
 10
78.85725163492937
 20
69.7102939612681
 30
0.0
 10
78.92553329110794
 20
69.53204163394872
 30
0.0
 10
79.01005143445366
 20
69.3769967481955
 30
0.0
 10
79.11245228417573
 20
69.24467380834534
 30
0.0
 10
79.22907482557075
 20
69.12979235226393
 30
0.0
 10
79.36816610888495
 20
69.03476972821618
 30
0.0
 10
79.52256874341789
 20
68.9477558845407
 30
0.0
 10
79.6991966711362
 20
68.87875320337442
 30
0.0
 10
79.89677749036466
 20
68.82782732888634
 30
0.0
 10
80.11226670079077
 20
68.78400017186729
 30
0.0
 10
80.34853500550683
 20
68.75869359427607
 30
0.0
 10
80.51174239910901
 20
68.75209201752426
 30
0.0
 10
80.59645226883562
 20
68.74866558754279
 30
0.0
  0
LINE
  5
A7
330
1F
100
AcDbEntity
  8
0
  6
Continuous
 62
     7
370
    25
100
AcDbLine
 10
80.5964522688
 20
68.7486655875
 30
0.0
 11
80.6096456867
 21
68.1153815283
 31
0.0
  0
LINE
  5
A8
330
1F
100
AcDbEntity
  8
0
  6
Continuous
 62
     7
370
    25
100
AcDbLine
 10
80.6096456867
 20
68.1153815283
 30
0.0
 11
71.9415701252
 21
68.1153815283
 31
0.0
  0
LINE
  5
A9
330
1F
100
AcDbEntity
  8
0
  6
Continuous
 62
     7
370
    25
100
AcDbLine
 10
71.9415701252
 20
68.1153815283
 30
0.0
 11
71.9415701252
 21
68.7486655875
 31
0.0
  0
SPLINE
  5
AA
330
1F
100
AcDbEntity
  8
0
  6
Continuous
 62
     7
370
    25
100
AcDbSpline
210
0.0
220
0.0
230
1.0
 70
     8
 71
     3
 72
    19
 73
    15
 74
     0
 42
0.00000001
 43
0.00000001
 40
0.0
 40
0.0
 40
0.0
 40
0.0
 40
0.1448912730861844
 40
0.2692418932464478
 40
0.3788203033784761
 40
0.4790055984826364
 40
0.5289983019681628
 40
0.5820592179058369
 40
0.6391340969688948
 40
0.701016380756042
 40
0.7669158382340063
 40
0.8387255590436576
 40
0.9160074152727383
 40
1.0
 40
1.0
 40
1.0
 40
1.0
 10
71.94157012521404
 20
68.74866558754279
 30
0.0
 10
72.10279522865807
 20
68.75885516369772
 30
0.0
 10
72.40238920119705
 20
68.77778978078607
 30
0.0
 10
72.81363635926009
 20
68.8802612966602
 30
0.0
 10
73.15540493866517
 20
69.03551168143595
 30
0.0
 10
73.37732826971141
 20
69.22671131055449
 30
0.0
 10
73.51790327482748
 20
69.40503825476856
 30
0.0
 10
73.60096696715084
 20
69.56331338424214
 30
0.0
 10
73.67983055079088
 20
69.73815113026055
 30
0.0
 10
73.73474076967108
 20
69.93689705790844
 30
0.0
 10
73.78756164601789
 20
70.15279558871963
 30
0.0
 10
73.81755914600997
 20
70.39057020162329
 30
0.0
 10
73.83821935940183
 20
70.64923984289567
 30
0.0
 10
73.84032544337308
 20
70.8287771858607
 30
0.0
 10
73.84142230308218
 20
70.92228118687457
 30
0.0
  0
LINE
  5
AB
330
1F
100
AcDbEntity
  8
0
  6
Continuous
 62
     7
370
    25
100
AcDbLine
 10
73.8414223031
 20
70.9222811869
 30
0.0
 11
73.8414223031
 21
80.5864598
 31
0.0
  0
SPLINE
  5
AC
330
1F
100
AcDbEntity
  8
0
  6
Continuous
 62
     7
370
    25
100
AcDbSpline
210
0.0
220
0.0
230
1.0
 70
     8
 71
     3
 72
    19
 73
    15
 74
     0
 42
0.00000001
 43
0.00000001
 40
0.0
 40
0.0
 40
0.0
 40
0.0
 40
0.0862217507575989
 40
0.1659251804484607
 40
0.23934410429744
 40
0.3069747070393205
 40
0.3697295959536623
 40
0.4277130537240414
 40
0.4808419592067585
 40
0.53083969925637
 40
0.6305089739290269
 40
0.7380241144047474
 40
0.8593264890708393
 40
1.0
 40
1.0
 40
1.0
 40
1.0
 10
73.84142230308218
 20
80.5864597999886
 30
0.0
 10
73.84030299525759
 20
80.6854558772037
 30
0.0
 10
73.83814899871794
 20
80.87596397790074
 30
0.0
 10
73.81774040582437
 20
81.15004024035349
 30
0.0
 10
73.78737551523535
 20
81.40196769842235
 30
0.0
 10
73.73519742601685
 20
81.63016212148966
 30
0.0
 10
73.6796009769748
 20
81.83954452889598
 30
0.0
 10
73.60170422306173
 20
82.02366366882721
 30
0.0
 10
73.51788796825453
 20
82.18914193865956
 30
0.0
 10
73.37776834846737
 20
82.37596509665647
 30
0.0
 10
73.15771901393845
 20
82.5787862410801
 30
0.0
 10
72.81453906180946
 20
82.74382436254113
 30
0.0
 10
72.40355175966017
 20
82.85774629883507
 30
0.0
 10
72.10297252408336
 20
82.88003902563146
 30
0.0
 10
71.94157012521404
 20
82.89200957833903
 30
0.0
  0
LINE
  5
AD
330
1F
100
AcDbEntity
  8
0
  6
Continuous
 62
     7
370
    25
100
AcDbLine
 10
71.9415701252
 20
82.8920095783
 30
0.0
 11
71.9415701252
 21
83.5252936376
 31
0.0
  0
LINE
  5
AE
330
1F
100
AcDbEntity
  8
0
  6
Continuous
 62
     7
370
    25
100
AcDbLine
 10
71.9415701252
 20
83.5252936376
 30
0.0
 11
80.2765118847
 21
83.5252936376
 31
0.0
  0
SPLINE
  5
AF
330
1F
100
AcDbEntity
  8
0
  6
Continuous
 62
     7
370
    25
100
AcDbSpline
210
0.0
220
0.0
230
1.0
 70
     8
 71
     3
 72
    23
 73
    19
 74
     0
 42
0.00000001
 43
0.00000001
 40
0.0
 40
0.0
 40
0.0
 40
0.0
 40
0.0881362134135476
 40
0.1714895208692784
 40
0.2495094215288007
 40
0.3225254874243697
 40
0.3914513626908417
 40
0.4561140656358849
 40
0.5170761272444873
 40
0.5751772720157917
 40
0.6303417164611628
 40
0.6835116259609391
 40
0.734695983898847
 40
0.7854005046651233
 40
0.836448226511388
 40
0.8885859879813296
 40
0.9430816834434385
 40
1.0
 40
1.0
 40
1.0
 40
1.0
 10
80.27651188471546
 20
83.52529363762841
 30
0.0
 10
80.53057734751272
 20
83.52233788172843
 30
0.0
 10
81.02492085056403
 20
83.51658677053972
 30
0.0
 10
81.74264500887487
 20
83.46622128377356
 30
0.0
 10
82.41407865940816
 20
83.38723354972589
 30
0.0
 10
83.03668605701132
 20
83.26573631208639
 30
0.0
 10
83.61524895321833
 20
83.12218772675018
 30
0.0
 10
84.14448932915779
 20
82.93490808581677
 30
0.0
 10
84.63060513702304
 20
82.72298221138085
 30
0.0
 10
85.06626717660161
 20
82.47131792708288
 30
0.0
 10
85.45681487920305
 20
82.19097604754484
 30
0.0
 10
85.79384069916577
 20
81.87656176119391
 30
0.0
 10
86.08323743504897
 20
81.5341527885803
 30
0.0
 10
86.31446460869887
 20
81.15715995361337
 30
0.0
 10
86.49815343643185
 20
80.75205862997143
 30
0.0
 10
86.62680862254501
 20
80.3148087187334
 30
0.0
 10
86.70292593590513
 20
79.84810063309396
 30
0.0
 10
86.71303416334935
 20
79.52687534510711
 30
0.0
 10
86.71819817529966
 20
79.36277028959091
 30
0.0
  0
SPLINE
  5
B0
330
1F
100
AcDbEntity
  8
0
  6
Continuous
 62
     7
370
    25
100
AcDbSpline
210
0.0
220
0.0
230
1.0
 70
     8
 71
     3
 72
    23
 73
    19
 74
     0
 42
0.00000001
 43
0.00000001
 40
0.0
 40
0.0
 40
0.0
 40
0.0
 40
0.0632644797406706
 40
0.1250701720077806
 40
0.1857215713304619
 40
0.2451445902020638
 40
0.3046451258178375
 40
0.3636822873774676
 40
0.4232054130279138
 40
0.4843142319269949
 40
0.5457677876541214
 40
0.6071275163291309
 40
0.6688803606239749
 40
0.7317947635683868
 40
0.7962144148003006
 40
0.8619239742347004
 40
0.9298269918575707
 40
1.0
 40
1.0
 40
1.0
 40
1.0
 10
86.71819817529966
 20
79.36277028959091
 30
0.0
 10
86.7158102513704
 20
79.2504926344159
 30
0.0
 10
86.71108946558668
 20
79.02852628453154
 30
0.0
 10
86.66908583397249
 20
78.70124593199361
 30
0.0
 10
86.60812543722515
 20
78.38417050327088
 30
0.0
 10
86.51887621323478
 20
78.07773710280901
 30
0.0
 10
86.39917576490991
 20
77.78509249461764
 30
0.0
 10
86.25612892089106
 20
77.50317170609446
 30
0.0
 10
86.0910767136652
 20
77.23004537950945
 30
0.0
 10
85.89701648201775
 20
76.97107441442392
 30
0.0
 10
85.67821519770409
 20
76.72878954544005
 30
0.0
 10
85.44553066544367
 20
76.49776536572503
 30
0.0
 10
85.18490096862242
 20
76.29435102197456
 30
0.0
 10
84.90721921867774
 20
76.10599848917757
 30
0.0
 10
84.61113170818678
 20
75.93292421088823
 30
0.0
 10
84.29149276557742
 20
75.78641156403822
 30
0.0
 10
83.95546967862711
 20
75.65215191287952
 30
0.0
 10
83.72061238653758
 20
75.58215035729332
 30
0.0
 10
83.60125319598471
 20
75.54657416147727
 30
0.0
  0
LINE
  5
B1
330
1F
100
AcDbEntity
  8
0
  6
Continuous
 62
     7
370
    25
100
AcDbLine
 10
83.601253196
 20
75.5465741615
 30
0.0
 11
86.695109694
 21
70.2824004186
 31
0.0
  0
SPLINE
  5
B2
330
1F
100
AcDbEntity
  8
0
  6
Continuous
 62
     7
370
    25
100
AcDbSpline
210
0.0
220
0.0
230
1.0
 70
     8
 71
     3
 72
    15
 73
    11
 74
     0
 42
0.00000001
 43
0.00000001
 40
0.0
 40
0.0
 40
0.0
 40
0.0
 40
0.1776216848768865
 40
0.3317286016904896
 40
0.4630425121033437
 40
0.5742935047609111
 40
0.6759623136944415
 40
0.7800956504613744
 40
0.8863989877528339
 40
1.0
 40
1.0
 40
1.0
 40
1.0
 10
86.6951096939714
 20
70.28240041863427
 30
0.0
 10
86.77263941932334
 20
70.15056034790291
 30
0.0
 10
86.9174349570882
 20
69.90433409269764
 30
0.0
 10
87.14336673450475
 20
69.57532391289502
 30
0.0
 10
87.36403827294981
 20
69.31364116928077
 30
0.0
 10
87.5844374809836
 20
69.11406487300599
 30
0.0
 10
87.8146395861631
 20
68.96446482285425
 30
0.0
 10
88.06424167334816
 20
68.86272350118328
 30
0.0
 10
88.33231934497057
 20
68.78209161360932
 30
0.0
 10
88.52072258731779
 20
68.76005140267999
 30
0.0
 10
88.6180503531678
 20
68.74866558754279
 30
0.0
  0
LINE
  5
B3
330
1F
100
AcDbEntity
  8
0
  6
Continuous
 62
     7
370
    25
100
AcDbLine
 10
88.6180503532
 20
68.7486655875
 30
0.0
 11
88.6180503532
 21
68.1153815283
 31
0.0
  0
LINE
  5
B4
330
1F
100
AcDbEntity
  8
0
  6
Continuous
 62
     7
370
    25
100
AcDbLine
 10
88.6180503532
 20
68.1153815283
 30
0.0
 11
82.9085987561
 21
68.1153815283
 31
0.0
  0
LINE
  5
B5
330
1F
100
AcDbEntity
  8
0
  6
Continuous
 62
     7
370
    25
100
AcDbLine
 10
82.9085987561
 20
68.1153815283
 30
0.0
 11
79.1451762996
 21
75.0815061804
 31
0.0
  0
LINE
  5
B6
330
1F
100
AcDbEntity
  8
0
  6
Continuous
 62
     7
370
    25
100
AcDbLine
 10
60.133461103
 20
74.2701109795
 30
0.0
 11
64.0222210296
 21
83.5252936376
 31
0.0
  0
LINE
  5
B7
330
1F
100
AcDbEntity
  8
0
  6
Continuous
 62
     7
370
    25
100
AcDbLine
 10
64.0222210296
 20
83.5252936376
 30
0.0
 11
70.6750020066
 21
83.5252936376
 31
0.0
  0
LINE
  5
B8
330
1F
100
AcDbEntity
  8
0
  6
Continuous
 62
     7
370
    25
100
AcDbLine
 10
70.6750020066
 20
83.5252936376
 30
0.0
 11
70.6651069432
 21
82.8920095783
 31
0.0
  0
SPLINE
  5
B9
330
1F
100
AcDbEntity
  8
0
  6
Continuous
 62
     7
370
    25
100
AcDbSpline
210
0.0
220
0.0
230
1.0
 70
     8
 71
     3
 72
    19
 73
    15
 74
     0
 42
0.00000001
 43
0.00000001
 40
0.0
 40
0.0
 40
0.0
 40
0.0
 40
0.143136258669033
 40
0.266820070226561
 40
0.3749259052155658
 40
0.474573974075445
 40
0.5237028404357115
 40
0.5769617946422086
 40
0.6342554059212109
 40
0.6958058567095909
 40
0.7632682163878886
 40
0.835666231479322
 40
0.9144931875320892
 40
1.0
 40
1.0
 40
1.0
 40
1.0
 10
70.66510694320888
 20
82.89200957833903
 30
0.0
 10
70.50505231095276
 20
82.88165238451296
 30
0.0
 10
70.20669472765579
 20
82.86234555611239
 30
0.0
 10
69.79674287463544
 20
82.76146047736957
 30
0.0
 10
69.45812932491685
 20
82.60355151445076
 30
0.0
 10
69.23413850862536
 20
82.41604770554257
 30
0.0
 10
69.09989104722595
 20
82.23345877570202
 30
0.0
 10
69.00970460293617
 20
82.07861914111434
 30
0.0
 10
68.9389735392078
 20
81.89887539038857
 30
0.0
 10
68.88023187442379
 20
81.69878022750801
 30
0.0
 10
68.82975732884755
 20
81.4788432267364
 30
0.0
 10
68.7986492152258
 20
81.23586953221592
 30
0.0
 10
68.77844964018605
 20
80.97161735559263
 30
0.0
 10
68.77627917434845
 20
80.78770247780555
 30
0.0
 10
68.77514982876711
 20
80.69200714320351
 30
0.0
  0
LINE
  5
BA
330
1F
100
AcDbEntity
  8
0
  6
Continuous
 62
     7
370
    25
100
AcDbLine
 10
68.7751498288
 20
80.6920071432
 30
0.0
 11
68.7751498288
 21
70.9585630861
 31
0.0
  0
SPLINE
  5
BB
330
1F
100
AcDbEntity
  8
0
  6
Continuous
 62
     7
370
    25
100
AcDbSpline
210
0.0
220
0.0
230
1.0
 70
     8
 71
     3
 72
    19
 73
    15
 74
     0
 42
0.00000001
 43
0.00000001
 40
0.0
 40
0.0
 40
0.0
 40
0.0
 40
0.0845552808524921
 40
0.1634109450708917
 40
0.2359752647077245
 40
0.3032542873926098
 40
0.3651167633076309
 40
0.4224312404752146
 40
0.4765641140518217
 40
0.5270873644714769
 40
0.6274141859020035
 40
0.7359918231742255
 40
0.8587682566157113
 40
1.0
 40
1.0
 40
1.0
 40
1.0
 10
68.77514982876711
 20
70.9585630861047
 30
0.0
 10
68.77647391562364
 20
70.86399666834079
 30
0.0
 10
68.77903283663245
 20
70.68123827001281
 30
0.0
 10
68.79688288759826
 20
70.4175439974793
 30
0.0
 10
68.83567557341564
 20
70.17593852327228
 30
0.0
 10
68.87791170310145
 20
69.95394563589534
 30
0.0
 10
68.94328486376628
 20
69.75555781967557
 30
0.0
 10
69.01368176923269
 20
69.57464699795229
 30
0.0
 10
69.10284876262988
 20
69.41616923433529
 30
0.0
 10
69.24093481067365
 20
69.23241339152503
 30
0.0
 10
69.46395745927126
 20
69.0403427807326
 30
0.0
 10
69.80169702100028
 20
68.87917189286098
 30
0.0
 10
70.20890374502682
 20
68.7787012207962
 30
0.0
 10
70.50396495716149
 20
68.75913342310508
 30
0.0
 10
70.66180858873342
 20
68.74866558754279
 30
0.0
  0
LINE
  5
BC
330
1F
100
AcDbEntity
  8
0
  6
Continuous
 62
     7
370
    25
100
AcDbLine
 10
70.6618085887
 20
68.7486655875
 30
0.0
 11
70.6750020066
 21
68.1153815283
 31
0.0
  0
LINE
  5
BD
330
1F
100
AcDbEntity
  8
0
  6
Continuous
 62
     7
370
    25
100
AcDbLine
 10
70.6750020066
 20
68.1153815283
 30
0.0
 11
62.020119863
 21
68.1153815283
 31
0.0
  0
LINE
  5
BE
330
1F
100
AcDbEntity
  8
0
  6
Continuous
 62
     7
370
    25
100
AcDbLine
 10
62.020119863
 20
68.1153815283
 30
0.0
 11
62.020119863
 21
68.7486655875
 31
0.0
  0
SPLINE
  5
BF
330
1F
100
AcDbEntity
  8
0
  6
Continuous
 62
     7
370
    25
100
AcDbSpline
210
0.0
220
0.0
230
1.0
 70
     8
 71
     3
 72
    19
 73
    15
 74
     0
 42
0.00000001
 43
0.00000001
 40
0.0
 40
0.0
 40
0.0
 40
0.0
 40
0.1459912707912192
 40
0.2717388838064617
 40
0.3808696579812125
 40
0.4795127036480182
 40
0.5285118920543034
 40
0.5811489722925136
 40
0.6373850144345975
 40
0.6987729999125343
 40
0.7658500075263649
 40
0.8380569246510678
 40
0.9156986087016038
 40
1.0
 40
1.0
 40
1.0
 40
1.0
 10
62.0201198630137
 20
68.74866558754279
 30
0.0
 10
62.18356891661585
 20
68.76242317286297
 30
0.0
 10
62.48780260911235
 20
68.78803066883523
 30
0.0
 10
62.90357911692214
 20
68.89578672186309
 30
0.0
 10
63.24563881239379
 20
69.05502294474928
 30
0.0
 10
63.46738127607326
 20
69.24558412542935
 30
0.0
 10
63.60244317946319
 20
69.4260281075837
 30
0.0
 10
63.68714303568846
 20
69.58215077280212
 30
0.0
 10
63.7602806888592
 20
69.75894961795328
 30
0.0
 10
63.81892084533336
 20
69.9580511838776
 30
0.0
 10
63.86423017858277
 20
70.17879044250127
 30
0.0
 10
63.89662099994305
 20
70.42014313178497
 30
0.0
 10
63.91661515602411
 20
70.68226288895694
 30
0.0
 10
63.91882281682905
 20
70.8639721645189
 30
0.0
 10
63.91997204088185
 20
70.9585630861047
 30
0.0
  0
LINE
  5
C0
330
1F
100
AcDbEntity
  8
0
  6
Continuous
 62
     7
370
    25
100
AcDbLine
 10
63.9199720409
 20
70.9585630861
 30
0.0
 11
63.9199720409
 21
80.649128535
 31
0.0
  0
LINE
  5
C1
330
1F
100
AcDbEntity
  8
0
  6
Continuous
 62
     7
370
    25
100
AcDbLine
 10
63.9199720409
 20
80.649128535
 30
0.0
 11
58.7217653875
 21
68.1153815283
 31
0.0
  0
LINE
  5
C2
330
1F
100
AcDbEntity
  8
0
  6
Continuous
 62
     7
370
    25
100
AcDbLine
 10
58.7217653875
 20
68.1153815283
 30
0.0
 11
58.052199429
 21
68.1153815283
 31
0.0
  0
LINE
  5
C3
330
1F
100
AcDbEntity
  8
0
  6
Continuous
 62
     7
370
    25
100
AcDbLine
 10
58.052199429
 20
68.1153815283
 30
0.0
 11
52.7319536601
 21
81.0647211989
 31
0.0
  0
LINE
  5
C4
330
1F
100
AcDbEntity
  8
0
  6
Continuous
 62
     7
370
    25
100
AcDbLine
 10
52.7319536601
 20
81.0647211989
 30
0.0
 11
52.7319536601
 21
70.9585630861
 31
0.0
  0
SPLINE
  5
C5
330
1F
100
AcDbEntity
  8
0
  6
Continuous
 62
     7
370
    25
100
AcDbSpline
210
0.0
220
0.0
230
1.0
 70
     8
 71
     3
 72
    19
 73
    15
 74
     0
 42
0.00000001
 43
0.00000001
 40
0.0
 40
0.0
 40
0.0
 40
0.0
 40
0.0843684954248967
 40
0.1620719824576609
 40
0.2343363764759992
 40
0.3014667775621659
 40
0.3629036280360367
 40
0.4195676778450734
 40
0.4722466573359119
 40
0.5212848492234765
 40
0.620749003070264
 40
0.7299666456247951
 40
0.8548668337224761
 40
1.0
 40
1.0
 40
1.0
 40
1.0
 10
52.73195366010274
 20
70.9585630861047
 30
0.0
 10
52.73309995100794
 20
70.86397092508254
 30
0.0
 10
52.7353019772328
 20
70.68225926856176
 30
0.0
 10
52.755334937112
 20
70.42015590839587
 30
0.0
 10
52.78759380938141
 20
70.17874746245577
 30
0.0
 10
52.8333430714446
 20
69.95819410098011
 30
0.0
 10
52.8906573424023
 20
69.758068096838
 30
0.0
 10
52.96881386603163
 20
69.58291855452002
 30
0.0
 10
53.05260080583464
 20
69.42598312996758
 30
0.0
 10
53.18825992626825
 20
69.24472451973256
 30
0.0
 10
53.41272303751088
 20
69.0560894681944
 30
0.0
 10
53.75382631955596
 20
68.89618451587835
 30
0.0
 10
54.16738236965599
 20
68.78793863204888
 30
0.0
 10
54.46945351643939
 20
68.76239458787155
 30
0.0
 10
54.6318058379709
 20
68.7486655875428
 30
0.0
  0
LINE
  5
C6
330
1F
100
AcDbEntity
  8
0
  6
Continuous
 62
     7
370
    25
100
AcDbLine
 10
54.631805838
 20
68.7486655875
 30
0.0
 11
54.631805838
 21
68.1153815283
 31
0.0
  0
LINE
  5
C7
330
1F
100
AcDbEntity
  8
0
  6
Continuous
 62
     7
370
    25
100
AcDbLine
 10
54.631805838
 20
68.1153815283
 30
0.0
 11
49.7766280501
 21
68.1153815283
 31
0.0
  0
LINE
  5
C8
330
1F
100
AcDbEntity
  8
0
  6
Continuous
 62
     7
370
    25
100
AcDbLine
 10
49.7766280501
 20
68.1153815283
 30
0.0
 11
49.7766280501
 21
68.7486655875
 31
0.0
  0
SPLINE
  5
C9
330
1F
100
AcDbEntity
  8
0
  6
Continuous
 62
     7
370
    25
100
AcDbSpline
210
0.0
220
0.0
230
1.0
 70
     8
 71
     3
 72
    19
 73
    15
 74
     0
 42
0.00000001
 43
0.00000001
 40
0.0
 40
0.0
 40
0.0
 40
0.0
 40
0.1435280136519738
 40
0.2667086381839784
 40
0.3756830750992726
 40
0.4755653571836715
 40
0.5258647435120879
 40
0.5792848084883571
 40
0.6367216953961671
 40
0.6980217384079581
 40
0.765209638691176
 40
0.8373131144940072
 40
0.9158193761806549
 40
1.0
 40
1.0
 40
1.0
 40
1.0
 10
49.77662805008562
 20
68.74866558754279
 30
0.0
 10
49.93780563349721
 20
68.75895847678376
 30
0.0
 10
50.23731130269517
 20
68.77808507376358
 30
0.0
 10
50.64959546685808
 20
68.87943610477828
 30
0.0
 10
50.99061966623486
 20
69.0392355761515
 30
0.0
 10
51.21332900795743
 20
69.23278112495571
 30
0.0
 10
51.35291851482249
 20
69.41514781591957
 30
0.0
 10
51.43609418987381
 20
69.57654504306538
 30
0.0
 10
51.51411980206635
 20
69.7538547184228
 30
0.0
 10
51.57091705962466
 20
69.95531110429134
 30
0.0
 10
51.62201700789248
 20
70.17495852575985
 30
0.0
 10
51.65293754512049
 20
70.41801924500436
 30
0.0
 10
51.67310807517108
 20
70.68114877628683
 30
0.0
 10
51.67533034020371
 20
70.8639661514141
 30
0.0
 10
51.67648022795377
 20
70.9585630861047
 30
0.0
  0
LINE
  5
CA
330
1F
100
AcDbEntity
  8
0
  6
Continuous
 62
     7
370
    25
100
AcDbLine
 10
51.676480228
 20
70.9585630861
 30
0.0
 11
51.676480228
 21
80.6920071432
 31
0.0
  0
SPLINE
  5
CB
330
1F
100
AcDbEntity
  8
0
  6
Continuous
 62
     7
370
    25
100
AcDbSpline
210
0.0
220
0.0
230
1.0
 70
     8
 71
     3
 72
    19
 73
    15
 74
     0
 42
0.00000001
 43
0.00000001
 40
0.0
 40
0.0
 40
0.0
 40
0.0
 40
0.0842680531531103
 40
0.1628558508256404
 40
0.2350342127313013
 40
0.3013363069945514
 40
0.362700015748855
 40
0.4201965561556263
 40
0.4728128203361062
 40
0.5231644472115269
 40
0.6231504662484617
 40
0.7326726531761251
 40
0.8562261074550491
 40
0.9999999999999999
 40
0.9999999999999999
 40
0.9999999999999999
 40
0.9999999999999999
 10
51.67648022795377
 20
80.69200714320351
 30
0.0
 10
51.67533902895624
 20
80.78660585720296
 30
0.0
 10
51.67313355574607
 20
80.96942667101004
 30
0.0
 10
51.65284675619794
 20
81.23253239227567
 30
0.0
 10
51.62245224760981
 20
81.4746077582792
 30
0.0
 10
51.57046101566054
 20
81.69297470585859
 30
0.0
 10
51.51399893349065
 20
81.89333330412605
 30
0.0
 10
51.43705201253611
 20
82.07016118224665
 30
0.0
 10
51.35189786246227
 20
82.22934731894794
 30
0.0
 10
51.21361455369743
 20
82.4114087669916
 30
0.0
 10
50.98975560505283
 20
82.60428517190446
 30
0.0
 10
50.6501511808405
 20
82.76812328807522
 30
0.0
 10
50.23755297748753
 20
82.87265514341553
 30
0.0
 10
49.9378267151281
 20
82.89382007873408
 30
0.0
 10
49.77662805008562
 20
82.90520299624087
 30
0.0
  0
LINE
  5
CC
330
1F
100
AcDbEntity
  8
0
  6
Continuous
 62
     7
370
    25
100
AcDbLine
 10
49.7766280501
 20
82.9052029962
 30
0.0
 11
49.7766280501
 21
83.5252936376
 31
0.0
  0
LINE
  5
CD
330
1F
100
AcDbEntity
  8
0
  6
Continuous
 62
     7
370
    25
100
AcDbLine
 10
49.7766280501
 20
83.5252936376
 30
0.0
 11
56.3205633294
 21
83.5252936376
 31
0.0
  0
LINE
  5
CE
330
1F
100
AcDbEntity
  8
0
  6
Continuous
 62
     7
370
    25
100
AcDbLine
 10
56.3205633294
 20
83.5252936376
 30
0.0
 11
60.133461103
 21
74.2701109795
 31
0.0
  0
SPLINE
  5
CF
330
1F
100
AcDbEntity
  8
0
  6
Continuous
 62
     7
370
    25
100
AcDbSpline
210
0.0
220
0.0
230
1.0
 70
     8
 71
     3
 72
    23
 73
    19
 74
     0
 42
0.00000001
 43
0.00000001
 40
0.0
 40
0.0
 40
0.0
 40
0.0
 40
0.0889779229091242
 40
0.1717258784943183
 40
0.2477146274077443
 40
0.3182090290873591
 40
0.3826592024267362
 40
0.4418137271630878
 40
0.4967182595131746
 40
0.5483727275681975
 40
0.5985926299711115
 40
0.6488074086784125
 40
0.7002372367646545
 40
0.7542106757492345
 40
0.810485255321977
 40
0.8697136770574503
 40
0.9325343930621492
 40
1.0
 40
1.0
 40
1.0
 40
1.0
 10
58.4315101937072
 20
129.350529553139
 30
0.0
 10
58.43314603673882
 20
129.2141214180534
 30
0.0
 10
58.43630318597877
 20
128.950856036423
 30
0.0
 10
58.467655768776
 20
128.5723231308301
 30
0.0
 10
58.51037519156132
 20
128.2232489398332
 30
0.0
 10
58.58108583933426
 20
127.9074618793798
 30
0.0
 10
58.66418338353164
 20
127.6213071912853
 30
0.0
 10
58.77162537039656
 20
127.3692652520822
 30
0.0
 10
58.89110298342899
 20
127.144232495624
 30
0.0
 10
59.03977505200302
 20
126.9541176129634
 30
0.0
 10
59.206465109459
 20
126.7902821779596
 30
0.0
 10
59.39378023411307
 20
126.6510498225229
 30
0.0
 10
59.6004552620135
 20
126.5310228867715
 30
0.0
 10
59.82838963100231
 20
126.4324053033511
 30
0.0
 10
60.07737972548868
 20
126.3564413964902
 30
0.0
 10
60.34620170608044
 20
126.3054871099345
 30
0.0
 10
60.63500025071352
 20
126.2706749031363
 30
0.0
 10
60.83479878060346
 20
126.2679692007978
 30
0.0
 10
60.93825959506101
 20
126.2665681185788
 30
0.0
  0
SPLINE
  5
D0
330
1F
100
AcDbEntity
  8
0
  6
Continuous
 62
     7
370
    25
100
AcDbSpline
210
0.0
220
0.0
230
1.0
 70
     8
 71
     3
 72
    23
 73
    19
 74
     0
 42
0.00000001
 43
0.00000001
 40
0.0
 40
0.0
 40
0.0
 40
0.0
 40
0.0643367440896585
 40
0.1250678468293191
 40
0.1826973472560844
 40
0.237840827668521
 40
0.2909714817442401
 40
0.3436044899420153
 40
0.3960512394806041
 40
0.449608294221798
 40
0.5048093006661325
 40
0.5630141970613456
 40
0.6244209286637514
 40
0.6899854168557329
 40
0.7598843621652772
 40
0.8346519393689817
 40
0.9146042921821129
 40
1.0
 40
1.0
 40
1.0
 40
1.0
 10
60.93825959506101
 20
126.2665681185788
 30
0.0
 10
61.07587842973084
 20
126.26923093839
 30
0.0
 10
61.34340348992558
 20
126.2744073448899
 30
0.0
 10
61.73109686405866
 20
126.3289094890575
 30
0.0
 10
62.0925040797829
 20
126.4140700946065
 30
0.0
 10
62.4285004907296
 20
126.5309933503273
 30
0.0
 10
62.73454732302103
 20
126.6897701737372
 30
0.0
 10
63.01810042445677
 20
126.8760752162114
 30
0.0
 10
63.26926392348207
 20
127.1054002377302
 30
0.0
 10
63.50022420739383
 20
127.3623761182157
 30
0.0
 10
63.69712694014925
 20
127.6612266636684
 30
0.0
 10
63.8740283655357
 20
127.9911977769853
 30
0.0
 10
64.01638225397028
 20
128.361358248115
 30
0.0
 10
64.14015974441872
 20
128.7640392639077
 30
0.0
 10
64.2301511102747
 20
129.2049947444949
 30
0.0
 10
64.29539916083678
 20
129.6809437264685
 30
0.0
 10
64.33520775241234
 20
130.1931338325768
 30
0.0
 10
64.33979320800377
 20
130.5466596675952
 30
0.0
 10
64.34216141374144
 20
130.7292417238836
 30
0.0
  0
LINE
  5
D1
330
1F
100
AcDbEntity
  8
0
  6
Continuous
 62
     7
370
    25
100
AcDbLine
 10
64.3421614137
 20
130.7292417239
 30
0.0
 11
64.3421614137
 21
137.5898190329
 31
0.0
  0
SPLINE
  5
D2
330
1F
100
AcDbEntity
  8
0
  6
Continuous
 62
     7
370
    25
100
AcDbSpline
210
0.0
220
0.0
230
1.0
 70
     8
 71
     3
 72
    23
 73
    19
 74
     0
 42
0.00000001
 43
0.00000001
 40
0.0
 40
0.0
 40
0.0
 40
0.0
 40
0.0819649239035652
 40
0.1569097337140591
 40
0.2251352911496048
 40
0.2888114895920892
 40
0.3464972959426695
 40
0.3988138846244222
 40
0.4469641311737541
 40
0.4916215314233656
 40
0.5365482720475172
 40
0.5851323133644432
 40
0.638726674740884
 40
0.6977073362736281
 40
0.7622995507137001
 40
0.8342156027573505
 40
0.9137445109526495
 40
1.0
 40
1.0
 40
1.0
 40
1.0
 10
64.34216141374144
 20
137.5898190328519
 30
0.0
 10
64.3406438846874
 20
137.6777885914347
 30
0.0
 10
64.33773879957987
 20
137.8461933108536
 30
0.0
 10
64.32282215296459
 20
138.0876096970582
 30
0.0
 10
64.29169669709206
 20
138.3075820574826
 30
0.0
 10
64.25444150251272
 20
138.5077956584268
 30
0.0
 10
64.20234215765635
 20
138.6872395182133
 30
0.0
 10
64.13556838488708
 20
138.843753864246
 30
0.0
 10
64.05968557278722
 20
138.9799970666132
 30
0.0
 10
63.97303029021019
 20
139.1007481844389
 30
0.0
 10
63.86281259885891
 20
139.2011184343192
 30
0.0
 10
63.73299372965239
 20
139.2920060787005
 30
0.0
 10
63.57576565329371
 20
139.3655044677304
 30
0.0
 10
63.39751049347815
 20
139.4323287958822
 30
0.0
 10
63.19369551324747
 20
139.4837744508403
 30
0.0
 10
62.96562608166383
 20
139.5259892818252
 30
0.0
 10
62.71246903358668
 20
139.5595818712864
 30
0.0
 10
62.53476589349094
 20
139.5700052679148
 30
0.0
 10
62.4423092358733
 20
139.5754284270822
 30
0.0
  0
LINE
  5
D3
330
1F
100
AcDbEntity
  8
0
  6
Continuous
 62
     7
370
    25
100
AcDbLine
 10
62.4423092359
 20
139.5754284271
 30
0.0
 11
62.4423092359
 21
140.6210067958
 31
0.0
  0
LINE
  5
D4
330
1F
100
AcDbEntity
  8
0
  6
Continuous
 62
     7
370
    25
100
AcDbLine
 10
62.4423092359
 20
140.6210067958
 30
0.0
 11
67.930771083
 21
140.6210067958
 31
0.0
  0
LINE
  5
D5
330
1F
100
AcDbEntity
  8
0
  6
Continuous
 62
     7
370
    25
100
AcDbLine
 10
67.930771083
 20
140.6210067958
 30
0.0
 11
67.930771083
 21
139.582025136
 31
0.0
  0
SPLINE
  5
D6
330
1F
100
AcDbEntity
  8
0
  6
Continuous
 62
     7
370
    25
100
AcDbSpline
210
0.0
220
0.0
230
1.0
 70
     8
 71
     3
 72
    23
 73
    19
 74
     0
 42
0.00000001
 43
0.00000001
 40
0.0
 40
0.0
 40
0.0
 40
0.0
 40
0.088110498965896
 40
0.1685037534201804
 40
0.2413096818808877
 40
0.305806191019547
 40
0.3646412023091445
 40
0.4171111390913382
 40
0.4631021133435172
 40
0.506023105999171
 40
0.5486932711707833
 40
0.5943719849548514
 40
0.6465684354685648
 40
0.703952027027714
 40
0.7678033557292228
 40
0.8380363239344213
 40
0.9160546771964774
 40
1.0
 40
1.0
 40
1.0
 40
1.0
 10
67.93077108304796
 20
139.5820251360332
 30
0.0
 10
67.83502917691932
 20
139.577726598519
 30
0.0
 10
67.65193101345842
 20
139.5695060151168
 30
0.0
 10
67.39112934045195
 20
139.5388984366398
 30
0.0
 10
67.15747506903617
 20
139.5005120930302
 30
0.0
 10
66.94952281606759
 20
139.4518085962567
 30
0.0
 10
66.76856691620092
 20
139.3893377333021
 30
0.0
 10
66.61241680233506
 20
139.3185119963755
 30
0.0
 10
66.48291520680583
 20
139.2344513447112
 30
0.0
 10
66.37727009107282
 20
139.1367210517969
 30
0.0
 10
66.2930742237889
 20
139.0204024087911
 30
0.0
 10
66.2239457351966
 20
138.883838674439
 30
0.0
 10
66.15973268971089
 20
138.7271442733104
 30
0.0
 10
66.11781300336568
 20
138.5428338754799
 30
0.0
 10
66.07575046296618
 20
138.338882294864
 30
0.0
 10
66.05176849869363
 20
138.1091990045774
 30
0.0
 10
66.03499585295279
 20
137.8572401006167
 30
0.0
 10
66.03231064236076
 20
137.6811078753149
 30
0.0
 10
66.0309189051798
 20
137.5898190328519
 30
0.0
  0
LINE
  5
D7
330
1F
100
AcDbEntity
  8
0
  6
Continuous
 62
     7
370
    25
100
AcDbLine
 10
66.0309189052
 20
137.5898190329
 30
0.0
 11
66.0309189052
 21
130.7754186865
 31
0.0
  0
SPLINE
  5
D8
330
1F
100
AcDbEntity
  8
0
  6
Continuous
 62
     7
370
    25
100
AcDbSpline
210
0.0
220
0.0
230
1.0
 70
     8
 71
     3
 72
    15
 73
    11
 74
     0
 42
0.00000001
 43
0.00000001
 40
0.0
 40
0.0
 40
0.0
 40
0.0
 40
0.1680675009354903
 40
0.3183074982072616
 40
0.4503972239852183
 40
0.5666916692807366
 40
0.6734230349102365
 40
0.7808215552875983
 40
0.8888537297317435
 40
1.0
 40
1.0
 40
1.0
 40
1.0
 10
66.0309189051798
 20
130.7754186865401
 30
0.0
 10
66.02824248473186
 20
130.5213411289171
 30
0.0
 10
66.0231735410504
 20
130.0401369028328
 30
0.0
 10
65.97305000671768
 20
129.3608323916954
 30
0.0
 10
65.89838200601457
 20
128.7625068799312
 30
0.0
 10
65.7831701006306
 20
128.2372490661361
 30
0.0
 10
65.62301315459086
 20
127.7631511336885
 30
0.0
 10
65.41835270567168
 20
127.3203531960873
 30
0.0
 10
65.16253669539394
 20
126.8965914868893
 30
0.0
 10
64.9574212328999
 20
126.6361304695757
 30
0.0
 10
64.8534063574386
 20
126.5040496408123
 30
0.0
  0
SPLINE
  5
D9
330
1F
100
AcDbEntity
  8
0
  6
Continuous
 62
     7
370
    25
100
AcDbSpline
210
0.0
220
0.0
230
1.0
 70
     8
 71
     3
 72
    15
 73
    11
 74
     0
 42
0.00000001
 43
0.00000001
 40
0.0
 40
0.0
 40
0.0
 40
0.0
 40
0.1009309672589389
 40
0.2073469951897408
 40
0.3209550802823726
 40
0.4439123566596467
 40
0.573559044504449
 40
0.7090598197291984
 40
0.8504951836785963
 40
1.0
 40
1.0
 40
1.0
 40
1.0
 10
64.85340635743862
 20
126.5040496408123
 30
0.0
 10
64.71564086451046
 20
126.3588542346675
 30
0.0
 10
64.43262305763461
 20
126.0605728251351
 30
0.0
 10
63.9148943092769
 20
125.6863768522679
 30
0.0
 10
63.31816215308709
 20
125.360375892347
 30
0.0
 10
62.64838004465932
 20
125.0797422830549
 30
0.0
 10
61.91318756774356
 20
124.8522602294301
 30
0.0
 10
61.12305891012329
 20
124.6933134840378
 30
0.0
 10
60.28321591368837
 20
124.5961537960291
 30
0.0
 10
59.70714553992251
 20
124.5840370393296
 30
0.0
 10
59.41112147292046
 20
124.5778106271404
 30
0.0
  0
SPLINE
  5
DA
330
1F
100
AcDbEntity
  8
0
  6
Continuous
 62
     7
370
    25
100
AcDbSpline
210
0.0
220
0.0
230
1.0
 70
     8
 71
     3
 72
    23
 73
    19
 74
     0
 42
0.00000001
 43
0.00000001
 40
0.0
 40
0.0
 40
0.0
 40
0.0
 40
0.0775611136497311
 40
0.1506788366936537
 40
0.2191165495330431
 40
0.2835385262716204
 40
0.3447343707890571
 40
0.4030779821054088
 40
0.4589954194985297
 40
0.5138502836225289
 40
0.5679669879876852
 40
0.622709894830308
 40
0.67839930458542
 40
0.736246182410661
 40
0.7967164529680916
 40
0.8603086095100523
 40
0.9281661475963616
 40
1.0
 40
1.0
 40
1.0
 40
1.0
 10
59.41112147292047
 20
124.5778106271404
 30
0.0
 10
59.15812507784648
 20
124.5824179055877
 30
0.0
 10
58.66662617196956
 20
124.5913685165846
 30
0.0
 10
57.95390828117888
 20
124.6552427702055
 30
0.0
 10
57.29139806978799
 20
124.7712385119307
 30
0.0
 10
56.67770737916697
 20
124.9290087918203
 30
0.0
 10
56.11088366317551
 20
125.1286741156373
 30
0.0
 10
55.59308657153915
 20
125.3754480804549
 30
0.0
 10
55.12636196990005
 20
125.6720315361444
 30
0.0
 10
54.7088515196351
 20
126.0129838632379
 30
0.0
 10
54.33749039677731
 20
126.3988178106356
 30
0.0
 10
54.0207308968176
 20
126.8340638602276
 30
0.0
 10
53.75230571613051
 20
127.3140465013557
 30
0.0
 10
53.52947440386234
 20
127.8374625395404
 30
0.0
 10
53.36415463280429
 20
128.4085461270261
 30
0.0
 10
53.24274652417011
 20
129.0231562217121
 30
0.0
 10
53.16469180942482
 20
129.6827633558465
 30
0.0
 10
53.15772539146045
 20
130.1386088660325
 30
0.0
 10
53.15414303296233
 20
130.3730194405333
 30
0.0
  0
LINE
  5
DB
330
1F
100
AcDbEntity
  8
0
  6
Continuous
 62
     7
370
    25
100
AcDbLine
 10
53.154143033
 20
130.3730194405
 30
0.0
 11
53.154143033
 21
137.5898190329
 31
0.0
  0
SPLINE
  5
DC
330
1F
100
AcDbEntity
  8
0
  6
Continuous
 62
     7
370
    25
100
AcDbSpline
210
0.0
220
0.0
230
1.0
 70
     8
 71
     3
 72
    19
 73
    15
 74
     0
 42
0.00000001
 43
0.00000001
 40
0.0
 40
0.0
 40
0.0
 40
0.0
 40
0.1559388237400309
 40
0.2868482064094349
 40
0.3977002104601836
 40
0.4917891654486587
 40
0.5374486362480884
 40
0.5869065009722989
 40
0.6396129134265796
 40
0.6986272975312428
 40
0.7645118075928933
 40
0.8362862990286863
 40
0.9147173853127711
 40
1.0
 40
1.0
 40
1.0
 40
1.0
 10
53.15414303296233
 20
137.5898190328519
 30
0.0
 10
53.15049462148417
 20
137.757200402392
 30
0.0
 10
53.1437833980463
 20
138.065097079354
 30
0.0
 10
53.07751020028284
 20
138.4882538891628
 30
0.0
 10
52.96289393146453
 20
138.83217659113
 30
0.0
 10
52.81833645487436
 20
139.0631014217919
 30
0.0
 10
52.67254723293745
 20
139.2059074009593
 30
0.0
 10
52.53914832428828
 20
139.2930343719063
 30
0.0
 10
52.38406590540644
 20
139.3702060407984
 30
0.0
 10
52.20453191685225
 20
139.4348712105316
 30
0.0
 10
52.0010465210772
 20
139.4918858005533
 30
0.0
 10
51.77181942378245
 20
139.5284507847913
 30
0.0
 10
51.5209748161008
 20
139.5588825641089
 30
0.0
 10
51.34563158609913
 20
139.5697613775401
 30
0.0
 10
51.25429085509418
 20
139.5754284270822
 30
0.0
  0
LINE
  5
DD
330
1F
100
AcDbEntity
  8
0
  6
Continuous
 62
     7
370
    25
100
AcDbLine
 10
51.2542908551
 20
139.5754284271
 30
0.0
 11
51.2542908551
 21
140.6210067958
 31
0.0
  0
LINE
  5
DE
330
1F
100
AcDbEntity
  8
0
  6
Continuous
 62
     7
370
    25
100
AcDbLine
 10
51.2542908551
 20
140.6210067958
 30
0.0
 11
60.3313623716
 21
140.6210067958
 31
0.0
  0
LINE
  5
DF
330
1F
100
AcDbEntity
  8
0
  6
Continuous
 62
     7
370
    25
100
AcDbLine
 10
60.3313623716
 20
140.6210067958
 30
0.0
 11
60.3313623716
 21
139.5853234905
 31
0.0
  0
SPLINE
  5
E0
330
1F
100
AcDbEntity
  8
0
  6
Continuous
 62
     7
370
    25
100
AcDbSpline
210
0.0
220
0.0
230
1.0
 70
     8
 71
     3
 72
    23
 73
    19
 74
     0
 42
0.00000001
 43
0.00000001
 40
0.0
 40
0.0
 40
0.0
 40
0.0
 40
0.0883070973447187
 40
0.1688214390230195
 40
0.2419126003259544
 40
0.3067518422951345
 40
0.3656754700767479
 40
0.4182244363625077
 40
0.464284681593201
 40
0.5072703212629339
 40
0.550004755655699
 40
0.5957522700958123
 40
0.6480273381917983
 40
0.7045165863699718
 40
0.768464087072412
 40
0.8388028392169736
 40
0.9159282398955316
 40
1.0
 40
1.0
 40
1.0
 40
1.0
 10
60.33136237157535
 20
139.5853234905086
 30
0.0
 10
60.23565264103074
 20
139.5795297329372
 30
0.0
 10
60.05267918901052
 20
139.5684534942206
 30
0.0
 10
59.79139010280819
 20
139.5399662770033
 30
0.0
 10
59.55784604526106
 20
139.4974515502233
 30
0.0
 10
59.3505800492431
 20
139.4445219439431
 30
0.0
 10
59.16910975478121
 20
139.3829176182518
 30
0.0
 10
59.01301851772111
 20
139.3118764111978
 30
0.0
 10
58.8835048582909
 20
139.2278635363649
 30
0.0
 10
58.77785901842026
 20
139.1301227403481
 30
0.0
 10
58.69367683783368
 20
139.0138035148147
 30
0.0
 10
58.62448790501214
 20
138.8772539670646
 30
0.0
 10
58.56094871601428
 20
138.7214813998641
 30
0.0
 10
58.51784139978029
 20
138.5385820966773
 30
0.0
 10
58.47643833585605
 20
138.3355567565412
 30
0.0
 10
58.45249566682616
 20
138.1069980154967
 30
0.0
 10
58.43548273859096
 20
137.8561464473763
 30
0.0
 10
58.43287187801381
 20
137.6811090928486
 30
0.0
 10
58.4315101937072
 20
137.5898190328519
 30
0.0
  0
LINE
  5
E1
330
1F
100
AcDbEntity
  8
0
  6
Continuous
 62
     7
370
    25
100
AcDbLine
 10
58.4315101937
 20
137.5898190329
 30
0.0
 11
58.4315101937
 21
129.3505295531
 31
0.0
  0
SPLINE
  5
E2
330
1F
100
AcDbEntity
  8
0
  6
Continuous
 62
     7
370
    25
100
AcDbSpline
210
0.0
220
0.0
230
1.0
 70
     8
 71
     3
 72
    23
 73
    19
 74
     0
 42
0.00000001
 43
0.00000001
 40
0.0
 40
0.0
 40
0.0
 40
0.0
 40
0.0689569676727074
 40
0.1346731979685153
 40
0.1976132701891056
 40
0.2584684680769301
 40
0.3177356416587949
 40
0.3764030626765797
 40
0.4347745214162274
 40
0.4939742192822227
 40
0.5532842919871629
 40
0.6125356259034138
 40
0.6722207652929312
 40
0.7332310034579919
 40
0.7956697225101491
 40
0.8607265325896241
 40
0.9285840132159697
 40
1.0
 40
1.0
 40
1.0
 40
1.0
 10
86.08491411601027
 20
132.8105033979024
 30
0.0
 10
86.09140365450436
 20
133.1187133192964
 30
0.0
 10
86.10407774577948
 20
133.7206483689461
 30
0.0
 10
86.21677596769612
 20
134.5977968475781
 30
0.0
 10
86.39081026840478
 20
135.4276199845041
 30
0.0
 10
86.64718098343609
 20
136.2060130938961
 30
0.0
 10
86.97134141810271
 20
136.9374919710655
 30
0.0
 10
87.36757281094516
 20
137.6203374092037
 30
0.0
 10
87.84113757681148
 20
138.2515253237684
 30
0.0
 10
88.38125921354283
 20
138.8303017283516
 30
0.0
 10
88.98142358471179
 20
139.3528363948785
 30
0.0
 10
89.63815228151842
 20
139.8061247619281
 30
0.0
 10
90.34555389523557
 20
140.1911806619698
 30
0.0
 10
91.1029836984102
 20
140.5047759132987
 30
0.0
 10
91.91161175152762
 20
140.7446878888958
 30
0.0
 10
92.76769466825641
 20
140.9198238916609
 30
0.0
 10
93.67636076858157
 20
141.0218497597274
 30
0.0
 10
94.29865834830107
 20
141.0359605200442
 30
0.0
 10
94.61775714403963
 20
141.0431961686644
 30
0.0
  0
SPLINE
  5
E3
330
1F
100
AcDbEntity
  8
0
  6
Continuous
 62
     7
370
    25
100
AcDbSpline
210
0.0
220
0.0
230
1.0
 70
     8
 71
     3
 72
    23
 73
    19
 74
     0
 42
0.00000001
 43
0.00000001
 40
0.0
 40
0.0
 40
0.0
 40
0.0
 40
0.0730946633034211
 40
0.1424511725250473
 40
0.2087483152556058
 40
0.2725540184454594
 40
0.3341582433388737
 40
0.3945283661954083
 40
0.4542339155935599
 40
0.5137745117553366
 40
0.5730061981301179
 40
0.6312012342441122
 40
0.6893020798081352
 40
0.747828104751238
 40
0.8076863477148639
 40
0.8690957227900173
 40
0.9332103428996832
 40
1.0
 40
1.0
 40
1.0
 40
1.0
 10
94.61775714403963
 20
141.0431961686644
 30
0.0
 10
94.94899678553703
 20
141.0364121224756
 30
0.0
 10
95.5945360518199
 20
141.0231909748517
 30
0.0
 10
96.53542266551227
 20
140.9151568361404
 30
0.0
 10
97.42365531495469
 20
140.7432697412841
 30
0.0
 10
98.25752319101046
 20
140.4953924948585
 30
0.0
 10
99.03894118925267
 20
140.1786734298375
 30
0.0
 10
99.76469212487865
 20
139.7869968018524
 30
0.0
 10
100.4380821092989
 20
139.3273690856861
 30
0.0
 10
101.0520213782903
 20
138.7984817436427
 30
0.0
 10
101.6006900929924
 20
138.2121442348434
 30
0.0
 10
102.0853978817358
 20
137.5794946610937
 30
0.0
 10
102.4863940712857
 20
136.8946009893085
 30
0.0
 10
102.8242482007426
 20
136.168443703034
 30
0.0
 10
103.0806537423664
 20
135.393272653261
 30
0.0
 10
103.2597069516479
 20
134.5717519026272
 30
0.0
 10
103.3760546231361
 20
133.7065812204328
 30
0.0
 10
103.3883864758238
 20
133.1132376760723
 30
0.0
 10
103.3946784032534
 20
132.8105033979024
 30
0.0
  0
SPLINE
  5
E4
330
1F
100
AcDbEntity
  8
0
  6
Continuous
 62
     7
370
    25
100
AcDbSpline
210
0.0
220
0.0
230
1.0
 70
     8
 71
     3
 72
    23
 73
    19
 74
     0
 42
0.00000001
 43
0.00000001
 40
0.0
 40
0.0
 40
0.0
 40
0.0
 40
0.0665787026212581
 40
0.1302421822797476
 40
0.1916806515200701
 40
0.2513369700837297
 40
0.3098907231356787
 40
0.3681431905000532
 40
0.4265593625155566
 40
0.4859964074995813
 40
0.5457238289860005
 40
0.6054576653210186
 40
0.6658563899720426
 40
0.7274898013454033
 40
0.7913954151057748
 40
0.857723967698728
 40
0.9271133362310449
 40
1.0
 40
1.0
 40
1.0
 40
1.0
 10
103.3946784032534
 20
132.8105033979024
 30
0.0
 10
103.3884820137145
 20
132.5088511129669
 30
0.0
 10
103.3763605504831
 20
131.9187547257907
 30
0.0
 10
103.2588764045883
 20
131.0570971044353
 30
0.0
 10
103.0814205211839
 20
130.2384594727358
 30
0.0
 10
102.8231966031109
 20
129.4650862079959
 30
0.0
 10
102.487256659359
 20
128.7384405355125
 30
0.0
 10
102.080576260151
 20
128.0553007815379
 30
0.0
 10
101.5978786754011
 20
127.4185621011583
 30
0.0
 10
101.0485922161417
 20
126.8294426452023
 30
0.0
 10
100.4358684464899
 20
126.2967541163972
 30
0.0
 10
99.7612407076369
 20
125.8375348497201
 30
0.0
 10
99.03576172744474
 20
125.4453132880052
 30
0.0
 10
98.25360096122655
 20
125.129875652999
 30
0.0
 10
97.42101417939645
 20
124.8766464047875
 30
0.0
 10
96.53202552269117
 20
124.7061762829038
 30
0.0
 10
95.5923578099923
 20
124.5978568863936
 30
0.0
 10
94.94790448066301
 20
124.5846013254571
 30
0.0
 10
94.61775714403963
 20
124.5778106271404
 30
0.0
  0
SPLINE
  5
E5
330
1F
100
AcDbEntity
  8
0
  6
Continuous
 62
     7
370
    25
100
AcDbSpline
210
0.0
220
0.0
230
1.0
 70
     8
 71
     3
 72
    23
 73
    19
 74
     0
 42
0.00000001
 43
0.00000001
 40
0.0
 40
0.0
 40
0.0
 40
0.0
 40
0.0712060457209563
 40
0.1390978188362543
 40
0.204187506056471
 40
0.2667290604610681
 40
0.3277701307893461
 40
0.387485432689529
 40
0.4467053240852583
 40
0.5062315114644457
 40
0.5656414923939966
 40
0.6242398515035735
 40
0.6828490716910085
 40
0.7423711854914744
 40
0.8030232156856002
 40
0.8659950953312725
 40
0.9315002207605447
 40
0.9999999999999999
 40
0.9999999999999999
 40
0.9999999999999999
 40
0.9999999999999999
 10
94.61775714403963
 20
124.5778106271404
 30
0.0
 10
94.29975117780526
 20
124.5850531794698
 30
0.0
 10
93.67854077590398
 20
124.5992011808314
 30
0.0
 10
92.77108470130095
 20
124.7014973529908
 30
0.0
 10
91.9142749195125
 20
124.8752694078321
 30
0.0
 10
91.10681731502612
 20
125.1203678804436
 30
0.0
 10
90.34908099633219
 20
125.4332819917036
 30
0.0
 10
89.6405751982484
 20
125.816533206751
 30
0.0
 10
88.98869888242436
 20
126.2774926961764
 30
0.0
 10
88.38344212496408
 20
126.7959159021197
 30
0.0
 10
87.84414817910144
 20
127.3795357747689
 30
0.0
 10
87.37347801200353
 20
128.013896183346
 30
0.0
 10
86.96861766385621
 20
128.6935138407861
 30
0.0
 10
86.6491627988432
 20
129.4268470961482
 30
0.0
 10
86.3899023346478
 20
130.2040381227601
 30
0.0
 10
86.21729673002787
 20
131.0321239055194
 30
0.0
 10
86.10411128645589
 20
131.9058214498675
 30
0.0
 10
86.09140780253725
 20
132.5044832480158
 30
0.0
 10
86.08491411601027
 20
132.8105033979024
 30
0.0
  0
LINE
  5
E6
330
1F
100
AcDbEntity
  8
0
  6
Continuous
 62
     7
370
    25
100
AcDbLine
 10
113.5272233519
 20
126.0389816598
 30
0.0
 11
113.5272233519
 21
125.0
 31
0.0
  0
LINE
  5
E7
330
1F
100
AcDbEntity
  8
0
  6
Continuous
 62
     7
370
    25
100
AcDbLine
 10
113.5272233519
 20
125.0
 30
0.0
 11
104.4501518354
 21
125.0
 31
0.0
  0
LINE
  5
E8
330
1F
100
AcDbEntity
  8
0
  6
Continuous
 62
     7
370
    25
100
AcDbLine
 10
104.4501518354
 20
125.0
 30
0.0
 11
104.4501518354
 21
126.0455783687
 31
0.0
  0
SPLINE
  5
E9
330
1F
100
AcDbEntity
  8
0
  6
Continuous
 62
     7
370
    25
100
AcDbSpline
210
0.0
220
0.0
230
1.0
 70
     8
 71
     3
 72
    23
 73
    19
 74
     0
 42
0.00000001
 43
0.00000001
 40
0.0
 40
0.0
 40
0.0
 40
0.0
 40
0.0845317116981953
 40
0.162221045823008
 40
0.2336013567225234
 40
0.2986962476940864
 40
0.3568922558755973
 40
0.4096386169429493
 40
0.4586999924182519
 40
0.5039934245829073
 40
0.549740937595319
 40
0.5993157295943567
 40
0.6517969085053654
 40
0.7103205346884044
 40
0.7745201684242219
 40
0.8432449036947907
 40
0.9186456766628287
 40
0.9999999999999999
 40
0.9999999999999999
 40
0.9999999999999999
 40
0.9999999999999999
 10
104.4501518354024
 20
126.0455783687226
 30
0.0
 10
104.5414385351662
 20
126.050411175385
 30
0.0
 10
104.716622777954
 20
126.0596855995659
 30
0.0
 10
104.9683786740682
 20
126.0836122183879
 30
0.0
 10
105.1960779740875
 20
126.1277562541106
 30
0.0
 10
105.4000070279402
 20
126.1797906039108
 30
0.0
 10
105.5815508989423
 20
126.2395193208527
 30
0.0
 10
105.7340578839392
 20
126.3221615574639
 30
0.0
 10
105.8685602902028
 20
126.4082251015485
 30
0.0
 10
105.9771048605642
 20
126.5152619733984
 30
0.0
 10
106.0688150869984
 20
126.6372183265795
 30
0.0
 10
106.1431878063226
 20
126.7794441874936
 30
0.0
 10
106.2052115476612
 20
126.9417363512185
 30
0.0
 10
106.2637073943113
 20
127.1223725286996
 30
0.0
 10
106.2990740793445
 20
127.3267736330317
 30
0.0
 10
106.3307874544838
 20
127.5498601326527
 30
0.0
 10
106.3454640334865
 20
127.7935203605983
 30
0.0
 10
106.348452848332
 20
127.9630129402955
 30
0.0
 10
106.3500040132705
 20
128.0509778898056
 30
0.0
  0
LINE
  5
EA
330
1F
100
AcDbEntity
  8
0
  6
Continuous
 62
     7
370
    25
100
AcDbLine
 10
106.3500040133
 20
128.0509778898
 30
0.0
 11
106.3500040133
 21
137.7349466298
 31
0.0
  0
SPLINE
  5
EB
330
1F
100
AcDbEntity
  8
0
  6
Continuous
 62
     7
370
    25
100
AcDbSpline
210
0.0
220
0.0
230
1.0
 70
     8
 71
     3
 72
    19
 73
    15
 74
     0
 42
0.00000001
 43
0.00000001
 40
0.0
 40
0.0
 40
0.0
 40
0.0
 40
0.1502555965259819
 40
0.2767723644383904
 40
0.3849002963677604
 40
0.477325726005436
 40
0.5225817317369488
 40
0.5718868342925565
 40
0.6271193957373099
 40
0.6877022196189858
 40
0.7545605532552481
 40
0.8291017761804352
 40
0.9104378924218225
 40
1.0
 40
1.0
 40
1.0
 40
1.0
 10
106.3500040132705
 20
137.7349466297724
 30
0.0
 10
106.3463589882293
 20
137.8902511366644
 30
0.0
 10
106.3396448143655
 20
138.1763236462696
 30
0.0
 10
106.2729609840342
 20
138.5701676871736
 30
0.0
 10
106.1581610933152
 20
138.890157908311
 30
0.0
 10
106.0139473854596
 20
139.1042732027704
 30
0.0
 10
105.8672299316484
 20
139.2312513648225
 30
0.0
 10
105.7361211361497
 20
139.3143074301141
 30
0.0
 10
105.5809410075068
 20
139.3862705821225
 30
0.0
 10
105.40105734086
 20
139.4442927647277
 30
0.0
 10
105.1982158447602
 20
139.4936946903427
 30
0.0
 10
104.9713170909756
 20
139.533063975997
 30
0.0
 10
104.7188773075496
 20
139.5584648566611
 30
0.0
 10
104.5425560011972
 20
139.5674311400129
 30
0.0
 10
104.4501518354024
 20
139.5721300726068
 30
0.0
  0
LINE
  5
EC
330
1F
100
AcDbEntity
  8
0
  6
Continuous
 62
     7
370
    25
100
AcDbLine
 10
104.4501518354
 20
139.5721300726
 30
0.0
 11
104.4501518354
 21
140.6210067958
 31
0.0
  0
LINE
  5
ED
330
1F
100
AcDbEntity
  8
0
  6
Continuous
 62
     7
370
    25
100
AcDbLine
 10
104.4501518354
 20
140.6210067958
 30
0.0
 11
117.9602117669
 21
140.6210067958
 31
0.0
  0
LINE
  5
EE
330
1F
100
AcDbEntity
  8
0
  6
Continuous
 62
     7
370
    25
100
AcDbLine
 10
117.9602117669
 20
140.6210067958
 30
0.0
 11
117.9602117669
 21
135.9769236943
 31
0.0
  0
LINE
  5
EF
330
1F
100
AcDbEntity
  8
0
  6
Continuous
 62
     7
370
    25
100
AcDbLine
 10
117.9602117669
 20
135.9769236943
 30
0.0
 11
116.7200304841
 21
135.9769236943
 31
0.0
  0
SPLINE
  5
F0
330
1F
100
AcDbEntity
  8
0
  6
Continuous
 62
     7
370
    25
100
AcDbSpline
210
0.0
220
0.0
230
1.0
 70
     8
 71
     3
 72
    23
 73
    19
 74
     0
 42
0.00000001
 43
0.00000001
 40
0.0
 40
0.0
 40
0.0
 40
0.0
 40
0.0813411092292904
 40
0.1568475176487681
 40
0.2261994956205181
 40
0.2900890433974003
 40
0.3487988184672484
 40
0.4028890658043907
 40
0.4536307717458943
 40
0.5006781461792028
 40
0.548321646692817
 40
0.5982856290994806
 40
0.6526621046386407
 40
0.7114889421845898
 40
0.7752098463641653
 40
0.8447624732054952
 40
0.9192006849203843
 40
1.0
 40
1.0
 40
1.0
 40
1.0
 10
116.7200304841342
 20
135.9769236943493
 30
0.0
 10
116.6963354700169
 20
136.1256318354882
 30
0.0
 10
116.6506451151623
 20
136.4123810944153
 30
0.0
 10
116.5591360498312
 20
136.8213803795737
 30
0.0
 10
116.4490591065317
 20
137.1918718526816
 30
0.0
 10
116.330770238512
 20
137.5274818188496
 30
0.0
 10
116.1866027743618
 20
137.8215954828669
 30
0.0
 10
116.0331830799168
 20
138.0832024971582
 30
0.0
 10
115.8582476514743
 20
138.3044583213313
 30
0.0
 10
115.6646242775252
 20
138.492691440793
 30
0.0
 10
115.4462977721273
 20
138.649295681119
 30
0.0
 10
115.1977319597375
 20
138.7825336913811
 30
0.0
 10
114.916138143112
 20
138.8932692242158
 30
0.0
 10
114.6013786151958
 20
138.9850502146378
 30
0.0
 10
114.2528044118741
 20
139.0569141292672
 30
0.0
 10
113.8716080883599
 20
139.1091031585026
 30
0.0
 10
113.4562126705212
 20
139.1380710195475
 30
0.0
 10
113.168847150947
 20
139.1415389655216
 30
0.0
 10
113.0192767626619
 20
139.1433439907962
 30
0.0
  0
LINE
  5
F1
330
1F
100
AcDbEntity
  8
0
  6
Continuous
 62
     7
370
    25
100
AcDbLine
 10
113.0192767627
 20
139.1433439908
 30
0.0
 11
111.627371174
 21
139.1433439908
 31
0.0
  0
LINE
  5
F2
330
1F
100
AcDbEntity
  8
0
  6
Continuous
 62
     7
370
    25
100
AcDbLine
 10
111.627371174
 20
139.1433439908
 30
0.0
 11
111.627371174
 21
133.8691178031
 31
0.0
  0
SPLINE
  5
F3
330
1F
100
AcDbEntity
  8
0
  6
Continuous
 62
     7
370
    25
100
AcDbSpline
210
0.0
220
0.0
230
1.0
 70
     8
 71
     3
 72
    23
 73
    19
 74
     0
 42
0.00000001
 43
0.00000001
 40
0.0339738338685637
 40
0.0339738338685637
 40
0.0339738338685637
 40
0.0339738338685637
 40
0.0687098020224505
 40
0.1326568980716285
 40
0.1929183803374217
 40
0.2492211626711176
 40
0.3027841544025915
 40
0.3541965767512754
 40
0.4041238494998889
 40
0.4527520216897652
 40
0.5030131202897735
 40
0.5573510237655253
 40
0.6165141651512261
 40
0.6814948575232059
 40
0.7510137051748392
 40
0.8274670777774332
 40
0.9104244626303845
 40
1.0
 40
1.0
 40
1.0
 40
1.0
 10
111.6273711740062
 20
133.8691178033729
 30
0.0
 10
111.6801850495318
 20
133.8705746546648
 30
0.0
 10
111.8301413155214
 20
133.876396927049
 30
0.0
 10
112.0708810687963
 20
133.901353499911
 30
0.0
 10
112.34145719185
 20
133.9495714691989
 30
0.0
 10
112.5911241318458
 20
134.0190624108539
 30
0.0
 10
112.8202263403886
 20
134.107947321136
 30
0.0
 10
113.0294700298553
 20
134.2172416080118
 30
0.0
 10
113.2187984871739
 20
134.3455330778879
 30
0.0
 10
113.3874892817553
 20
134.4974957884855
 30
0.0
 10
113.5384799410576
 20
134.675957472291
 30
0.0
 10
113.6731293431347
 20
134.8861118862408
 30
0.0
 10
113.7965015216086
 20
135.1285368699731
 30
0.0
 10
113.8981748255609
 20
135.4054202479089
 30
0.0
 10
113.9924520770404
 20
135.712263041071
 30
0.0
 10
114.0694673933487
 20
136.0520571128776
 30
0.0
 10
114.136768515937
 20
136.4249304786625
 30
0.0
 10
114.1654214994926
 20
136.6858423656533
 30
0.0
 10
114.1802975380257
 20
136.8213024400685
 30
0.0
  0
LINE
  5
F4
330
1F
100
AcDbEntity
  8
0
  6
Continuous
 62
     7
370
    25
100
AcDbLine
 10
114.180297538
 20
136.8213024401
 30
0.0
 11
115.4270755298
 21
136.8213024401
 31
0.0
  0
LINE
  5
F5
330
1F
100
AcDbEntity
  8
0
  6
Continuous
 62
     7
370
    25
100
AcDbLine
 10
115.4270755298
 20
136.8213024401
 30
0.0
 11
115.4270755298
 21
129.432988415
 31
0.0
  0
LINE
  5
F6
330
1F
100
AcDbEntity
  8
0
  6
Continuous
 62
     7
370
    25
100
AcDbLine
 10
115.4270755298
 20
129.432988415
 30
0.0
 11
114.180297538
 21
129.432988415
 31
0.0
  0
SPLINE
  5
F7
330
1F
100
AcDbEntity
  8
0
  6
Continuous
 62
     7
370
    25
100
AcDbSpline
210
0.0
220
0.0
230
1.0
 70
     8
 71
     3
 72
    23
 73
    19
 74
     0
 42
0.00000001
 43
0.00000001
 40
0.0
 40
0.0
 40
0.0
 40
0.0
 40
0.0896090222395792
 40
0.1725974179837392
 40
0.24837524379557
 40
0.318612233152707
 40
0.3829419371863303
 40
0.4421271947675252
 40
0.4964854106822019
 40
0.5467652977416566
 40
0.5954116479751127
 40
0.6453575843933476
 40
0.6971287455010964
 40
0.7507117599962161
 40
0.8077323102707179
 40
0.8680163193106364
 40
0.9319873198794922
 40
0.9660124194630335
 40
0.9660124194630335
 40
0.9660124194630335
 40
0.9660124194630335
 10
114.1802975380257
 20
129.4329884150257
 30
0.0
 10
114.1653754936055
 20
129.568436354696
 30
0.0
 10
114.1366338973509
 20
129.8293248687543
 30
0.0
 10
114.0701323528123
 20
130.2013048712119
 30
0.0
 10
113.9911502598443
 20
130.540557160444
 30
0.0
 10
113.899644497186
 20
130.8471760314414
 30
0.0
 10
113.7956226547015
 20
131.1232242059853
 30
0.0
 10
113.6732236781897
 20
131.3649102907659
 30
0.0
 10
113.5384669205074
 20
131.5750453789073
 30
0.0
 10
113.3874609976889
 20
131.7534354064804
 30
0.0
 10
113.2189210965966
 20
131.905690110776
 30
0.0
 10
113.0285567421754
 20
132.0331376648178
 30
0.0
 10
112.8212046418081
 20
132.1470565018469
 30
0.0
 10
112.5900569591348
 20
132.2355924538996
 30
0.0
 10
112.3391452709217
 20
132.3042476576654
 30
0.0
 10
112.0675993592932
 20
132.3530208579893
 30
0.0
 10
111.8279383984173
 20
132.3777749203862
 30
0.0
 10
111.6790834297216
 20
132.3836219923813
 30
0.0
 10
111.6273711642736
 20
132.385081100846
 30
0.0
  0
LINE
  5
F8
330
1F
100
AcDbEntity
  8
0
  6
Continuous
 62
     7
370
    25
100
AcDbLine
 10
111.6273711643
 20
132.3850811008
 30
0.0
 11
111.627371174
 21
128.0509778898
 31
0.0
  0
SPLINE
  5
F9
330
1F
100
AcDbEntity
  8
0
  6
Continuous
 62
     7
370
    25
100
AcDbSpline
210
0.0
220
0.0
230
1.0
 70
     8
 71
     3
 72
    23
 73
    19
 74
     0
 42
0.00000001
 43
0.00000001
 40
0.0
 40
0.0
 40
0.0
 40
0.0
 40
0.0845058773460043
 40
0.1621107480388054
 40
0.2329706342955793
 40
0.2974712587492152
 40
0.3557780068748517
 40
0.4086342634040586
 40
0.4554307787302659
 40
0.4986891763923518
 40
0.5413826958756454
 40
0.5885237829260013
 40
0.6407156389315302
 40
0.6989182057682447
 40
0.7630728955632221
 40
0.8345014898680007
 40
0.9133605313282487
 40
0.9999999999999999
 40
0.9999999999999999
 40
0.9999999999999999
 40
0.9999999999999999
 10
111.6273711740154
 20
128.0509778898056
 30
0.0
 10
111.6287437491232
 20
127.9585916916386
 30
0.0
 10
111.6313768106859
 20
127.7813638328948
 30
0.0
 10
111.6482711099782
 20
127.5271803124102
 30
0.0
 10
111.6726365472598
 20
127.2954622484656
 30
0.0
 10
111.7129753113012
 20
127.0874302995634
 30
0.0
 10
111.760771312276
 20
126.9012504955213
 30
0.0
 10
111.8225907048299
 20
126.7394134360275
 30
0.0
 10
111.8969154986771
 20
126.6018104277515
 30
0.0
 10
111.9789417698816
 20
126.4810794677227
 30
0.0
 10
112.0874839644474
 20
126.3826160576609
 30
0.0
 10
112.2172108767615
 20
126.2964489819058
 30
0.0
 10
112.3743473729706
 20
126.2243687187221
 30
0.0
 10
112.5565826129703
 20
126.1669091052043
 30
0.0
 10
112.7626956366499
 20
126.1174474951426
 30
0.0
 10
112.9939536474784
 20
126.0778057301565
 30
0.0
 10
113.2519209769496
 20
126.0527177870523
 30
0.0
 10
113.4326241502817
 20
126.0437016578253
 30
0.0
 10
113.5272233518836
 20
126.0389816597716
 30
0.0
  0
SPLINE
  5
FA
330
1F
100
AcDbEntity
  8
0
  6
Continuous
 62
     7
370
    25
100
AcDbSpline
210
0.0
220
0.0
230
1.0
 70
     8
 71
     3
 72
    15
 73
    11
 74
     0
 42
0.00000001
 43
0.00000001
 40
0.0
 40
0.0
 40
0.0
 40
0.0
 40
0.1164147902730755
 40
0.2257651382264472
 40
0.336207846418253
 40
0.4504478574102863
 40
0.5722441199212731
 40
0.7011212096419072
 40
0.8433307884985392
 40
1.0
 40
1.0
 40
1.0
 40
1.0
 10
37.82339143099851
 20
68.81463267705209
 30
0.0
 10
37.76123476392117
 20
68.81245381614943
 30
0.0
 10
37.6406933060747
 20
68.80822831497635
 30
0.0
 10
37.47105323536032
 20
68.74617891526105
 30
0.0
 10
37.31578163307098
 20
68.65805774378404
 30
0.0
 10
37.18341142530736
 20
68.52806496909822
 30
0.0
 10
37.0691380165891
 20
68.36987744329794
 30
0.0
 10
36.98997597650869
 20
68.17571722215229
 30
0.0
 10
36.92362979433716
 20
67.95763862088268
 30
0.0
 10
36.90802962658569
 20
67.79928696078382
 30
0.0
 10
36.89985217786815
 20
67.71628063672208
 30
0.0
  0
LINE
  5
FB
330
1F
100
AcDbEntity
  8
0
  6
Continuous
 62
     7
370
    25
100
AcDbLine
 10
36.8998521779
 20
67.7162806367
 30
0.0
 11
36.2665681186
 21
67.7162806367
 31
0.0
  0
LINE
  5
FC
330
1F
100
AcDbEntity
  8
0
  6
Continuous
 62
     7
370
    25
100
AcDbLine
 10
36.2665681186
 20
67.7162806367
 30
0.0
 11
36.2665681186
 21
73.392748689
 31
0.0
  0
LINE
  5
FD
330
1F
100
AcDbEntity
  8
0
  6
Continuous
 62
     7
370
    25
100
AcDbLine
 10
36.2665681186
 20
73.392748689
 30
0.0
 11
36.8470785063
 21
73.392748689
 31
0.0
  0
SPLINE
  5
FE
330
1F
100
AcDbEntity
  8
0
  6
Continuous
 62
     7
370
    25
100
AcDbSpline
210
0.0
220
0.0
230
1.0
 70
     8
 71
     3
 72
    23
 73
    19
 74
     0
 42
0.00000001
 43
0.00000001
 40
0.0
 40
0.0
 40
0.0
 40
0.0
 40
0.0651706185565793
 40
0.1285079253557682
 40
0.190537610476124
 40
0.2522070911373426
 40
0.3138359170512359
 40
0.3761477976730421
 40
0.4393398436420033
 40
0.5036443880285703
 40
0.568311684782225
 40
0.6310511369311992
 40
0.6925714188404463
 40
0.7531658222227872
 40
0.8139361434838005
 40
0.8748788285478216
 40
0.9366084892484019
 40
0.9999999999999999
 40
0.9999999999999999
 40
0.9999999999999999
 40
0.9999999999999999
 10
36.84707850626071
 20
73.39274868899827
 30
0.0
 10
36.87260841910019
 20
73.22832037164537
 30
0.0
 10
36.92295006394227
 20
72.90408926258479
 30
0.0
 10
37.05044263175685
 20
72.4339054632835
 30
0.0
 10
37.21566406353847
 20
71.98550602496242
 30
0.0
 10
37.42173047935938
 20
71.55911976440728
 30
0.0
 10
37.66309184338829
 20
71.15095357922429
 30
0.0
 10
37.9440808980281
 20
70.76391854857164
 30
0.0
 10
38.2657126636373
 20
70.4009086962615
 30
0.0
 10
38.62104199890066
 20
70.06224005330581
 30
0.0
 10
39.00256342936427
 20
69.75503160856316
 30
0.0
 10
39.40386461534042
 20
69.48693408811947
 30
0.0
 10
39.81662175525634
 20
69.2572443968777
 30
0.0
 10
40.2456649541255
 20
69.07198510149317
 30
0.0
 10
40.68799467737058
 20
68.92550230606578
 30
0.0
 10
41.14568434489068
 20
68.82485738168775
 30
0.0
 10
41.61675732337316
 20
68.75863585963948
 30
0.0
 10
41.93621067673496
 20
68.75201830951049
 30
0.0
 10
42.09805883120185
 20
68.74866558754279
 30
0.0
  0
SPLINE
  5
FF
330
1F
100
AcDbEntity
  8
0
  6
Continuous
 62
     7
370
    25
100
AcDbSpline
210
0.0
220
0.0
230
1.0
 70
     8
 71
     3
 72
    19
 73
    15
 74
     0
 42
0.00000001
 43
0.00000001
 40
0.0
 40
0.0
 40
0.0
 40
0.0
 40
0.1514477171338426
 40
0.2907361149498335
 40
0.4198452629966645
 40
0.5452213030326063
 40
0.6059471271605199
 40
0.6641198066848535
 40
0.719938096892514
 40
0.7750661327077213
 40
0.8301440862633828
 40
0.8853659038914576
 40
0.9417621277014288
 40
1.0
 40
1.0
 40
1.0
 40
1.0
 10
42.09805883120185
 20
68.74866558754279
 30
0.0
 10
42.2988538875214
 20
68.75422683481598
 30
0.0
 10
42.68432271914393
 20
68.76490283216398
 30
0.0
 10
43.22987507350038
 20
68.88461828126754
 30
0.0
 10
43.72078028077424
 20
69.06700360623614
 30
0.0
 10
44.07580718302502
 20
69.29175393930005
 30
0.0
 10
44.32524626925983
 20
69.49807177913847
 30
0.0
 10
44.48447390431281
 20
69.66682455779598
 30
0.0
 10
44.61666506563157
 20
69.84786612603712
 30
0.0
 10
44.73164963813525
 20
70.0357098064744
 30
0.0
 10
44.81720477051933
 20
70.23821000925321
 30
0.0
 10
44.87598489165376
 20
70.45128079272293
 30
0.0
 10
44.91352333078496
 20
70.67359330840705
 30
0.0
 10
44.91877980253158
 20
70.82537897440838
 30
0.0
 10
44.92145026220035
 20
70.90249106002179
 30
0.0
  0
SPLINE
  5
100
330
1F
100
AcDbEntity
  8
0
  6
Continuous
 62
     7
370
    25
100
AcDbSpline
210
0.0
220
0.0
230
1.0
 70
     8
 71
     3
 72
    23
 73
    19
 74
     0
 42
0.00000001
 43
0.00000001
 40
0.0
 40
0.0
 40
0.0
 40
0.0
 40
0.0362593192320984
 40
0.0740597864507051
 40
0.1142333568295052
 40
0.1568964641683137
 40
0.2023084637743984
 40
0.2518108753502555
 40
0.3048221338029246
 40
0.3625944907747495
 40
0.4248234765798365
 40
0.4921643087009607
 40
0.5638343960603047
 40
0.640514181691807
 40
0.7226441343856683
 40
0.8099859603945444
 40
0.902320649490871
 40
1.0
 40
1.0
 40
1.0
 40
1.0
 10
44.92145026220035
 20
70.90249106002179
 30
0.0
 10
44.91904732719574
 20
70.96320757945243
 30
0.0
 10
44.91413932403777
 20
71.08722128291667
 30
0.0
 10
44.86805910515756
 20
71.27374378722119
 30
0.0
 10
44.79544504884788
 20
71.46242420784144
 30
0.0
 10
44.69106930157391
 20
71.65039792708028
 30
0.0
 10
44.56085334224741
 20
71.84040756421457
 30
0.0
 10
44.40181217401101
 20
72.03019918879332
 30
0.0
 10
44.21623148804365
 20
72.22400977212578
 30
0.0
 10
43.99652394648818
 20
72.41263312658003
 30
0.0
 10
43.75205864735338
 20
72.6085693247323
 30
0.0
 10
43.4786978778386
 20
72.805039649713
 30
0.0
 10
43.17770075694686
 20
73.0039277309875
 30
0.0
 10
42.84625136538549
 20
73.20072929117474
 30
0.0
 10
42.48756321408042
 20
73.40274771499773
 30
0.0
 10
42.09753495511276
 20
73.6016748145902
 30
0.0
 10
41.68226729408102
 20
73.8082721724349
 30
0.0
 10
41.39266109989763
 20
73.9390265311708
 30
0.0
 10
41.24378502205627
 20
74.00624262143486
 30
0.0
  0
SPLINE
  5
101
330
1F
100
AcDbEntity
  8
0
  6
Continuous
 62
     7
370
    25
100
AcDbSpline
210
0.0
220
0.0
230
1.0
 70
     8
 71
     3
 72
     9
 73
     5
 74
     0
 42
0.00000001
 43
0.00000001
 40
0.0
 40
0.0
 40
0.0
 40
0.0
 40
0.6971690961292417
 40
1.0
 40
1.0
 40
1.0
 40
1.0
 10
41.24378502205627
 20
74.00624262143486
 30
0.0
 10
41.23605303472154
 20
74.00832571611538
 30
0.0
 10
41.22496248670721
 20
74.01131364930414
 30
0.0
 10
41.21409307198615
 20
74.0150163827462
 30
0.0
 10
41.21080147730162
 20
74.01613768486126
 30
0.0
  0
SPLINE
  5
102
330
1F
100
AcDbEntity
  8
0
  6
Continuous
 62
     7
370
    25
100
AcDbSpline
210
0.0
220
0.0
230
1.0
 70
     8
 71
     3
 72
    11
 73
     7
 74
     0
 42
0.00000001
 43
0.00000001
 40
0.0
 40
0.0
 40
0.0
 40
0.0
 40
0.185884636106647
 40
0.4148002323239691
 40
0.685021749416301
 40
1.0
 40
1.0
 40
1.0
 40
1.0
 10
41.21080147730162
 20
74.01613768486126
 30
0.0
 10
41.16789787379843
 20
74.03477039051657
 30
0.0
 10
41.0721587902819
 20
74.0763491395543
 30
0.0
 10
40.91466714918013
 20
74.14644449572022
 30
0.0
 10
40.7250218180115
 20
74.22399030756449
 30
0.0
 10
40.59053389332922
 20
74.28399238849556
 30
0.0
 10
40.51814703745385
 20
74.31628794212862
 30
0.0
  0
SPLINE
  5
103
330
1F
100
AcDbEntity
  8
0
  6
Continuous
 62
     7
370
    25
100
AcDbSpline
210
0.0
220
0.0
230
1.0
 70
     8
 71
     3
 72
    15
 73
    11
 74
     0
 42
0.00000001
 43
0.00000001
 40
0.0
 40
0.0
 40
0.0
 40
0.0
 40
0.162455555172151
 40
0.3128563793941519
 40
0.4525002665982357
 40
0.5817144042853787
 40
0.7002734709526607
 40
0.8088771752061776
 40
0.9086603966281287
 40
1.0
 40
1.0
 40
1.0
 40
1.0
 10
40.51814703745385
 20
74.31628794212862
 30
0.0
 10
40.30964154909185
 20
74.40819501265311
 30
0.0
 10
39.90810235824289
 20
74.5851893499323
 30
0.0
 10
39.33874748324282
 20
74.86606886154648
 30
0.0
 10
38.82319799584739
 20
75.14922748753304
 30
0.0
 10
38.36028998668466
 20
75.43435735318104
 30
0.0
 10
37.95334806429444
 20
75.72532949238915
 30
0.0
 10
37.59824387743689
 20
76.01563131641534
 30
0.0
 10
37.29305340473105
 20
76.30649818769598
 30
0.0
 10
37.12743087436221
 20
76.51763491068398
 30
0.0
 10
37.04827812926411
 20
76.61853936600359
 30
0.0
  0
SPLINE
  5
104
330
1F
100
AcDbEntity
  8
0
  6
Continuous
 62
     7
370
    25
100
AcDbSpline
210
0.0
220
0.0
230
1.0
 70
     8
 71
     3
 72
    15
 73
    11
 74
     0
 42
0.00000001
 43
0.00000001
 40
0.0
 40
0.0
 40
0.0
 40
0.0
 40
0.1262057473940287
 40
0.2509793634003289
 40
0.3745358392955724
 40
0.497509123248039
 40
0.6209399159433705
 40
0.7460273954351789
 40
0.8720777010203843
 40
1.0
 40
1.0
 40
1.0
 40
1.0
 10
37.04827812926411
 20
76.61853936600357
 30
0.0
 10
36.98642244799295
 20
76.70778881161667
 30
0.0
 10
36.86341299851315
 20
76.88527493650662
 30
0.0
 10
36.70438269586577
 20
77.16617018924762
 30
0.0
 10
36.57445293981593
 20
77.45815381404034
 30
0.0
 10
36.45911997613739
 20
77.7550996954751
 30
0.0
 10
36.37482673857434
 20
78.0638017950645
 30
0.0
 10
36.31127855879736
 20
78.37990916984748
 30
0.0
 10
36.27496426011925
 20
78.70445547588237
 30
0.0
 10
36.26938055131471
 20
78.92290500059632
 30
0.0
 10
36.26656811857877
 20
79.03293484204436
 30
0.0
  0
SPLINE
  5
105
330
1F
100
AcDbEntity
  8
0
  6
Continuous
 62
     7
370
    25
100
AcDbSpline
210
0.0
220
0.0
230
1.0
 70
     8
 71
     3
 72
    23
 73
    19
 74
     0
 42
0.00000001
 43
0.00000001
 40
0.0
 40
0.0
 40
0.0
 40
0.0
 40
0.062486135899284
 40
0.1228334779711884
 40
0.1815751138756572
 40
0.2398404746118799
 40
0.2972720230951156
 40
0.3556778679297127
 40
0.4154207789775117
 40
0.4771680919923063
 40
0.5398587412165357
 40
0.6021033391600071
 40
0.6643027795963063
 40
0.7277655529188465
 40
0.792403030674939
 40
0.8588846197058961
 40
0.9280396690836608
 40
1.0
 40
1.0
 40
1.0
 40
1.0
 10
36.26656811857877
 20
79.03293484204437
 30
0.0
 10
36.27021337024122
 20
79.20696282656635
 30
0.0
 10
36.27737910282066
 20
79.5490621146005
 30
0.0
 10
36.35739082031017
 20
80.04936866940389
 30
0.0
 10
36.47857773606167
 20
80.5283797872424
 30
0.0
 10
36.64896565980924
 20
80.98427413116627
 30
0.0
 10
36.87416024289596
 20
81.41442408702537
 30
0.0
 10
37.14542902080316
 20
81.82191390342841
 30
0.0
 10
37.46800148454634
 20
82.20600352424339
 30
0.0
 10
37.83624923969037
 20
82.5637125004873
 30
0.0
 10
38.24313167268972
 20
82.88787711857601
 30
0.0
 10
38.67940711665113
 20
83.17393825095446
 30
0.0
 10
39.14614858776637
 20
83.41148167680727
 30
0.0
 10
39.63750687607242
 20
83.6110683455677
 30
0.0
 10
40.15856667599174
 20
83.76142316198113
 30
0.0
 10
40.70555196816733
 20
83.87143742912649
 30
0.0
 10
41.28085935658913
 20
83.93295927289837
 30
0.0
 10
41.67353158104214
 20
83.94257802644664
 30
0.0
 10
41.87377072687018
 20
83.94748301048799
 30
0.0
  0
SPLINE
  5
106
330
1F
100
AcDbEntity
  8
0
  6
Continuous
 62
     7
370
    25
100
AcDbSpline
210
0.0
220
0.0
230
1.0
 70
     8
 71
     3
 72
    19
 73
    15
 74
     0
 42
0.00000001
 43
0.00000001
 40
0.0
 40
0.0
 40
0.0
 40
0.0
 40
0.1485426382678692
 40
0.3022761571571351
 40
0.4622269063300677
 40
0.6294031785004351
 40
0.7106849954987943
 40
0.7815757214061918
 40
0.8427640344212404
 40
0.8940795609455542
 40
0.9350169508721449
 40
0.966290443260304
 40
0.9881637683720051
 40
1.0
 40
1.0
 40
1.0
 40
1.0
 10
41.87377072687018
 20
83.94748301048799
 30
0.0
 10
42.09842132398207
 20
83.93990283393013
 30
0.0
 10
42.55557302123132
 20
83.9244775885784
 30
0.0
 10
43.24774237070164
 20
83.81514290766793
 30
0.0
 10
43.95223489615105
 20
83.63145258747923
 30
0.0
 10
44.53434874749278
 20
83.42338335141775
 30
0.0
 10
44.9824474531029
 20
83.24349955924356
 30
0.0
 10
45.28322610431771
 20
83.12670967498008
 30
0.0
 10
45.54445460541932
 20
83.03353170262558
 30
0.0
 10
45.76078208973947
 20
82.94970049448955
 30
0.0
 10
45.9362780845187
 20
82.88547056173353
 30
0.0
 10
46.07209007543202
 20
82.84331524557336
 30
0.0
 10
46.16628264504604
 20
82.8146668455904
 30
0.0
 10
46.2165465013049
 20
82.80599788641125
 30
0.0
 10
46.23419534343563
 20
82.80295400750146
 30
0.0
  0
SPLINE
  5
107
330
1F
100
AcDbEntity
  8
0
  6
Continuous
 62
     7
370
    25
100
AcDbSpline
210
0.0
220
0.0
230
1.0
 70
     8
 71
     3
 72
    15
 73
    11
 74
     0
 42
0.00000001
 43
0.00000001
 40
0.0
 40
0.0
 40
0.0
 40
0.0
 40
0.11414989984084
 40
0.2144034629955034
 40
0.3059176785671327
 40
0.3957467931984096
 40
0.5022808236500973
 40
0.6385484649053359
 40
0.8023590361141018
 40
1.0
 40
1.0
 40
1.0
 40
1.0
 10
46.23419534343563
 20
82.80295400750146
 30
0.0
 10
46.2915599806832
 20
82.80638575596366
 30
0.0
 10
46.39930582099065
 20
82.81283148001118
 30
0.0
 10
46.55012410210803
 20
82.85321975633222
 30
0.0
 10
46.66963545492362
 20
82.93311567459908
 30
0.0
 10
46.76643668133555
 20
83.0434224981942
 30
0.0
 10
46.83389528668607
 20
83.19851135159352
 30
0.0
 10
46.88796130012367
 20
83.39605375669574
 30
0.0
 10
46.92497514924597
 20
83.64422592312121
 30
0.0
 10
46.94111372450162
 20
83.82535404221171
 30
0.0
 10
46.94993826461165
 20
83.92439452915973
 30
0.0
  0
LINE
  5
108
330
1F
100
AcDbEntity
  8
0
  6
Continuous
 62
     7
370
    25
100
AcDbLine
 10
46.9499382646
 20
83.9243945292
 30
0.0
 11
47.6656811858
 21
83.9243945292
 31
0.0
  0
LINE
  5
109
330
1F
100
AcDbEntity
  8
0
  6
Continuous
 62
     7
370
    25
100
AcDbLine
 10
47.6656811858
 20
83.9243945292
 30
0.0
 11
47.6656811858
 21
78.8812105362
 31
0.0
  0
LINE
  5
10A
330
1F
100
AcDbEntity
  8
0
  6
Continuous
 62
     7
370
    25
100
AcDbLine
 10
47.6656811858
 20
78.8812105362
 30
0.0
 11
47.0323971265
 21
78.8812105362
 31
0.0
  0
SPLINE
  5
10B
330
1F
100
AcDbEntity
  8
0
  6
Continuous
 62
     7
370
    25
100
AcDbSpline
210
0.0
220
0.0
230
1.0
 70
     8
 71
     3
 72
    23
 73
    19
 74
     0
 42
0.00000001
 43
0.00000001
 40
0.0
 40
0.0
 40
0.0
 40
0.0
 40
0.0659370217771378
 40
0.1297783985177092
 40
0.1929335011842837
 40
0.2545596518718644
 40
0.3158360927019332
 40
0.3772118202957341
 40
0.4394682515459495
 40
0.5027461121122857
 40
0.5657895814229436
 40
0.6280038088200505
 40
0.6887695955880834
 40
0.749662957184938
 40
0.810882869021917
 40
0.8724178983005162
 40
0.9354518980701046
 40
1.0
 40
1.0
 40
1.0
 40
1.0
 10
47.03239712649829
 20
78.88121053617292
 30
0.0
 10
47.00425530247556
 20
79.02696025198088
 30
0.0
 10
46.94886607265286
 20
79.31382738962473
 30
0.0
 10
46.82086192102418
 20
79.72954652761683
 30
0.0
 10
46.66221188988975
 20
80.12341335917118
 30
0.0
 10
46.47928610139425
 20
80.50077274383055
 30
0.0
 10
46.25478205150968
 20
80.85020509841928
 30
0.0
 10
46.00404564035178
 20
81.1827906250923
 30
0.0
 10
45.71852659494166
 20
81.4923448274784
 30
0.0
 10
45.40765824636983
 20
81.7818020684569
 30
0.0
 10
45.07151031693837
 20
82.04147814937009
 30
0.0
 10
44.71959195744983
 20
82.26905815985343
 30
0.0
 10
44.3530586480999
 20
82.46182940488252
 30
0.0
 10
43.9735762001526
 20
82.62301593020467
 30
0.0
 10
43.57598878631371
 20
82.73782533119605
 30
0.0
 10
43.16798999298793
 20
82.82999876639406
 30
0.0
 10
42.74485728962883
 20
82.88331532106245
 30
0.0
 10
42.45772288331715
 20
82.8890886539123
 30
0.0
 10
42.3124518721071
 20
82.89200957833903
 30
0.0
  0
SPLINE
  5
10C
330
1F
100
AcDbEntity
  8
0
  6
Continuous
 62
     7
370
    25
100
AcDbSpline
210
0.0
220
0.0
230
1.0
 70
     8
 71
     3
 72
    15
 73
    11
 74
     0
 42
0.00000001
 43
0.00000001
 40
0.0
 40
0.0
 40
0.0
 40
0.0
 40
0.1512464138443141
 40
0.2900200637071578
 40
0.4191382488434607
 40
0.5421489757985998
 40
0.6595695590413201
 40
0.7707885762558998
 40
0.8823711401418279
 40
1.0
 40
1.0
 40
1.0
 40
1.0
 10
42.3124518721071
 20
82.89200957833903
 30
0.0
 10
42.13607750010098
 20
82.88616224912607
 30
0.0
 10
41.79787373509681
 20
82.87494979953628
 30
0.0
 10
41.31646741401015
 20
82.77669029062764
 30
0.0
 10
40.89127921948458
 20
82.6070120871055
 30
0.0
 10
40.52410743278439
 20
82.37673267456546
 30
0.0
 10
40.22773838971857
 20
82.08902193508892
 30
0.0
 10
40.00857293858135
 20
81.75463554352622
 30
0.0
 10
39.87871638916488
 20
81.37398059526944
 30
0.0
 10
39.86316076726247
 20
81.10639235317798
 30
0.0
 10
39.85517778788527
 20
80.96906891914261
 30
0.0
  0
SPLINE
  5
10D
330
1F
100
AcDbEntity
  8
0
  6
Continuous
 62
     7
370
    25
100
AcDbSpline
210
0.0
220
0.0
230
1.0
 70
     8
 71
     3
 72
    15
 73
    11
 74
     0
 42
0.00000001
 43
0.00000001
 40
0.0
 40
0.0
 40
0.0
 40
0.0
 40
0.0801293992527506
 40
0.1653745947236511
 40
0.2621857506615
 40
0.3731149113831534
 40
0.5016318045323083
 40
0.647935335357866
 40
0.8144336621406774
 40
1.0
 40
1.0
 40
1.0
 40
1.0
 10
39.85517778788527
 20
80.96906891914261
 30
0.0
 10
39.86500834183369
 20
80.86334179673088
 30
0.0
 10
39.88529707343894
 20
80.64513748990724
 30
0.0
 10
40.03013808505717
 20
80.32511101299212
 30
0.0
 10
40.26202244515161
 20
80.01484497969281
 30
0.0
 10
40.57830179114867
 20
79.70227361915288
 30
0.0
 10
40.98514480265713
 20
79.3959905270587
 30
0.0
 10
41.47729548090867
 20
79.08546588775525
 30
0.0
 10
42.05785399706399
 20
78.77720929236777
 30
0.0
 10
42.48160517184087
 20
78.58828475134321
 30
0.0
 10
42.70495605468751
 20
78.48870635359253
 30
0.0
  0
SPLINE
  5
10E
330
1F
100
AcDbEntity
  8
0
  6
Continuous
 62
     7
370
    25
100
AcDbSpline
210
0.0
220
0.0
230
1.0
 70
     8
 71
     3
 72
     9
 73
     5
 74
     0
 42
0.00000001
 43
0.00000001
 40
0.0
 40
0.0
 40
0.0
 40
0.0
 40
0.5690332567923949
 40
1.0
 40
1.0
 40
1.0
 40
1.0
 10
42.70495605468751
 20
78.48870635359253
 30
0.0
 10
42.75005505467028
 20
78.47006721109459
 30
0.0
 10
42.82931052778093
 20
78.43731140591896
 30
0.0
 10
42.90836690674786
 20
78.40407814818175
 30
0.0
 10
42.94243757692103
 20
78.38975571932858
 30
0.0
  0
SPLINE
  5
10F
330
1F
100
AcDbEntity
  8
0
  6
Continuous
 62
     7
370
    25
100
AcDbSpline
210
0.0
220
0.0
230
1.0
 70
     8
 71
     3
 72
    19
 73
    15
 74
     0
 42
0.00000001
 43
0.00000001
 40
0.0
 40
0.0
 40
0.0
 40
0.0
 40
0.1145707900137644
 40
0.2202349678593213
 40
0.3170869928663533
 40
0.4060204183289547
 40
0.4854747070550081
 40
0.5570312400438163
 40
0.6197904711354576
 40
0.6737873665227733
 40
0.7688964106399134
 40
0.8542649235500837
 40
0.9314482002047716
 40
1.0
 40
1.0
 40
1.0
 40
1.0
 10
42.94243757692103
 20
78.38975571932858
 30
0.0
 10
43.11423319873615
 20
78.3189540615417
 30
0.0
 10
43.4444692322337
 20
78.18285479204023
 30
0.0
 10
43.91544427415102
 20
77.97632693626718
 30
0.0
 10
44.34893409396667
 20
77.78796376032714
 30
0.0
 10
44.74353561641671
 20
77.61660567352644
 30
0.0
 10
45.09485799630451
 20
77.449145658022
 30
0.0
 10
45.40650839467369
 20
77.29736685367659
 30
0.0
 10
45.68187498849921
 20
77.16506097744454
 30
0.0
 10
45.98274634150079
 20
76.99903986374508
 30
0.0
 10
46.31317554345145
 20
76.81023724635777
 30
0.0
 10
46.6575092294761
 20
76.5732385523335
 30
0.0
 10
46.95517654066781
 20
76.34395406434665
 30
0.0
 10
47.119853191333
 20
76.17403066339021
 30
0.0
 10
47.19731485027157
 20
76.09410100440455
 30
0.0
  0
SPLINE
  5
110
330
1F
100
AcDbEntity
  8
0
  6
Continuous
 62
     7
370
    25
100
AcDbSpline
210
0.0
220
0.0
230
1.0
 70
     8
 71
     3
 72
    15
 73
    11
 74
     0
 42
0.00000001
 43
0.00000001
 40
0.0
 40
0.0
 40
0.0
 40
0.0
 40
0.1288675392544844
 40
0.2551546858931812
 40
0.3788609716130225
 40
0.5016198924888214
 40
0.6237048641556067
 40
0.7470772231050266
 40
0.8718096936321943
 40
0.9999999999999999
 40
0.9999999999999999
 40
0.9999999999999999
 40
0.9999999999999999
 10
47.19731485027157
 20
76.09410100440455
 30
0.0
 10
47.30049865749105
 20
75.97703253409058
 30
0.0
 10
47.50480016020199
 20
75.74523972619068
 30
0.0
 10
47.77262851771536
 20
75.37186400885166
 30
0.0
 10
47.9980260532682
 20
74.98022613220378
 30
0.0
 10
48.18300936874541
 20
74.57358227281648
 30
0.0
 10
48.32940810133577
 20
74.15188727836164
 30
0.0
 10
48.43487648420046
 20
73.71579151171542
 30
0.0
 10
48.49983536017253
 20
73.26387727999457
 30
0.0
 10
48.50662081857846
 20
72.95758375010234
 30
0.0
 10
48.51005993150685
 20
72.80234323788993
 30
0.0
  0
SPLINE
  5
111
330
1F
100
AcDbEntity
  8
0
  6
Continuous
 62
     7
370
    25
100
AcDbSpline
210
0.0
220
0.0
230
1.0
 70
     8
 71
     3
 72
    23
 73
    19
 74
     0
 42
0.00000001
 43
0.00000001
 40
0.0
 40
0.0
 40
0.0
 40
0.0
 40
0.063096331693162
 40
0.124099345716105
 40
0.1829551827739633
 40
0.240994705676783
 40
0.2982112467585102
 40
0.3561979869192782
 40
0.4153904318964883
 40
0.4762426723395481
 40
0.5377756924035425
 40
0.5995431952272464
 40
0.6616521640136792
 40
0.724865762659866
 40
0.7896120009657167
 40
0.8568900947260167
 40
0.9267387780016112
 40
1.0
 40
1.0
 40
1.0
 40
1.0
 10
48.51005993150685
 20
72.80234323788993
 30
0.0
 10
48.50481259836756
 20
72.61849409957476
 30
0.0
 10
48.49449202042166
 20
72.2568953003556
 30
0.0
 10
48.41856889767673
 20
71.7279220834921
 30
0.0
 10
48.28820880556638
 20
71.22541477247277
 30
0.0
 10
48.11106031308182
 20
70.74900198291323
 30
0.0
 10
47.88050612352748
 20
70.29877594077979
 30
0.0
 10
47.59899251789128
 20
69.87446733788114
 30
0.0
 10
47.26308406556412
 20
69.4779099430939
 30
0.0
 10
46.88171304872903
 20
69.11009564686154
 30
0.0
 10
46.45982508520725
 20
68.77727508706629
 30
0.0
 10
46.00379907289904
 20
68.4859491065585
 30
0.0
 10
45.51553378061059
 20
68.24183486050056
 30
0.0
 10
44.99934855671389
 20
68.03914484596072
 30
0.0
 10
44.4509937822458
 20
67.88492934468451
 30
0.0
 10
43.87305157180853
 20
67.77291794522701
 30
0.0
 10
43.26282411877284
 20
67.70655670541302
 30
0.0
 10
42.84585053607747
 20
67.6977172659213
 30
0.0
 10
42.63239225622726
 20
67.69319215539382
 30
0.0
  0
SPLINE
  5
112
330
1F
100
AcDbEntity
  8
0
  6
Continuous
 62
     7
370
    25
100
AcDbSpline
210
0.0
220
0.0
230
1.0
 70
     8
 71
     3
 72
    19
 73
    15
 74
     0
 42
0.00000001
 43
0.00000001
 40
0.0
 40
0.0
 40
0.0
 40
0.0
 40
0.1510375900579006
 40
0.3060225127300797
 40
0.4667708081541585
 40
0.6336806542821752
 40
0.7139716440971983
 40
0.7841663142018994
 40
0.8453260993313665
 40
0.8957644789769055
 40
0.9367591320147723
 40
0.9672504315689308
 40
0.9885275013158156
 40
1.0
 40
1.0
 40
1.0
 40
1.0
 10
42.63239225622726
 20
67.69319215539382
 30
0.0
 10
42.38245504910239
 20
67.70055504742665
 30
0.0
 10
41.87604858353466
 20
67.71547325897905
 30
0.0
 10
41.11043045766441
 20
67.82710037051521
 30
0.0
 10
40.330591296567
 20
68.00151878518639
 30
0.0
 10
39.68585871484156
 20
68.2034772749907
 30
0.0
 10
39.19202639886866
 20
68.38188056735034
 30
0.0
 10
38.85976086285728
 20
68.4924002001646
 30
0.0
 10
38.5758369490383
 20
68.59155945132645
 30
0.0
 10
38.33675373374589
 20
68.67266916320561
 30
0.0
 10
38.14346841505333
 20
68.73052247837516
 30
0.0
 10
37.9965009060438
 20
68.774403874059
 30
0.0
 10
37.89563707368617
 20
68.80286951146635
 30
0.0
 10
37.84213406549618
 20
68.81158096756616
 30
0.0
 10
37.82339143099851
 20
68.81463267705209
 30
0.0
  0
SPLINE
  5
113
330
1F
100
AcDbEntity
  8
0
  6
Continuous
 62
     7
370
    25
100
AcDbSpline
210
0.0
220
0.0
230
1.0
 70
     8
 71
     3
 72
    13
 73
     9
 74
     0
 42
0.00000001
 43
0.00000001
 40
0.0
 40
0.0
 40
0.0
 40
0.0
 40
0.1102457807957449
 40
0.2722269612679115
 40
0.3874413637440071
 40
0.5444079350442823
 40
0.7465283145525641
 40
1.0
 40
1.0
 40
1.0
 40
1.0
 10
149.2648940935527
 20
125.6992511487987
 30
0.0
 10
149.2179959689006
 20
125.6872779603075
 30
0.0
 10
149.1021916825952
 20
125.6577128858336
 30
0.0
 10
148.984772783599
 20
125.5266226437531
 30
0.0
 10
148.8868511803168
 20
125.3666402899024
 30
0.0
 10
148.8363514645692
 20
125.1654673583445
 30
0.0
 10
148.7849301291037
 20
124.9064449984995
 30
0.0
 10
148.7669505584433
 20
124.7101237468508
 30
0.0
 10
148.756947504331
 20
124.6008991084687
 30
0.0
  0
LINE
  5
114
330
1F
100
AcDbEntity
  8
0
  6
Continuous
 62
     7
370
    25
100
AcDbLine
 10
148.7569475043
 20
124.6008991085
 30
0.0
 11
147.5134678671
 21
124.6008991085
 31
0.0
  0
LINE
  5
115
330
1F
100
AcDbEntity
  8
0
  6
Continuous
 62
     7
370
    25
100
AcDbLine
 10
147.5134678671
 20
124.6008991085
 30
0.0
 11
147.5134678671
 21
130.6995565336
 31
0.0
  0
LINE
  5
116
330
1F
100
AcDbEntity
  8
0
  6
Continuous
 62
     7
370
    25
100
AcDbLine
 10
147.5134678671
 20
130.6995565336
 30
0.0
 11
148.6942787693
 21
130.6995565336
 31
0.0
  0
SPLINE
  5
117
330
1F
100
AcDbEntity
  8
0
  6
Continuous
 62
     7
370
    25
100
AcDbSpline
210
0.0
220
0.0
230
1.0
 70
     8
 71
     3
 72
    23
 73
    19
 74
     0
 42
0.00000001
 43
0.00000001
 40
0.0
 40
0.0
 40
0.0
 40
0.0
 40
0.0731996934009519
 40
0.1429464577824481
 40
0.2106569659291901
 40
0.2758308194005469
 40
0.3400041461531296
 40
0.4033783425565055
 40
0.4662965749935737
 40
0.5293342800980864
 40
0.5920848686565265
 40
0.6523430838533464
 40
0.7112952071327411
 40
0.7690559777522624
 40
0.8262828035585172
 40
0.8838644004603864
 40
0.941259273100827
 40
0.9999999999999999
 40
0.9999999999999999
 40
0.9999999999999999
 40
0.9999999999999999
 10
148.6942787692971
 20
130.6995565336044
 30
0.0
 10
148.7223212408456
 20
130.5220156647784
 30
0.0
 10
148.7770833824484
 20
130.1753087711951
 30
0.0
 10
148.904017505569
 20
129.6732964901376
 30
0.0
 10
149.0646245628185
 20
129.2020106581309
 30
0.0
 10
149.2605345655167
 20
128.7590770579095
 30
0.0
 10
149.491237566543
 20
128.3452332801896
 30
0.0
 10
149.75984377956
 20
127.9616729064525
 30
0.0
 10
150.0611237439077
 20
127.6069876971916
 30
0.0
 10
150.394197722103
 20
127.284003295749
 30
0.0
 10
150.7509837666079
 20
126.9982343202831
 30
0.0
 10
151.1186090256697
 20
126.7437336507941
 30
0.0
 10
151.4989183834964
 20
126.5323566283884
 30
0.0
 10
151.8902270245809
 20
126.3602302661235
 30
0.0
 10
152.2918607801581
 20
126.2240570509352
 30
0.0
 10
152.7031979655561
 20
126.1240875730012
 30
0.0
 10
153.1267887014211
 20
126.0675541895508
 30
0.0
 10
153.4118638662486
 20
126.0595313425919
 30
0.0
 10
153.5560532661334
 20
126.055473432149
 30
0.0
  0
SPLINE
  5
118
330
1F
100
AcDbEntity
  8
0
  6
Continuous
 62
     7
370
    25
100
AcDbSpline
210
0.0
220
0.0
230
1.0
 70
     8
 71
     3
 72
    19
 73
    15
 74
     0
 42
0.00000001
 43
0.00000001
 40
0.0
 40
0.0
 40
0.0
 40
0.0
 40
0.1555507746788551
 40
0.2982037726635905
 40
0.4287306298502158
 40
0.5534848347365273
 40
0.614062806456912
 40
0.671215558010931
 40
0.7269733282252009
 40
0.7807050525659454
 40
0.8343676685509713
 40
0.8883825760794706
 40
0.9427247343685068
 40
1.0
 40
1.0
 40
1.0
 40
1.0
 10
153.5560532661334
 20
126.055473432149
 30
0.0
 10
153.7445203748765
 20
126.0610602933048
 30
0.0
 10
154.1058274976873
 20
126.0717707708159
 30
0.0
 10
154.6179763784525
 20
126.1728895828085
 30
0.0
 10
155.0696000814802
 20
126.3466405994194
 30
0.0
 10
155.3989516908752
 20
126.5463610355173
 30
0.0
 10
155.6230238901677
 20
126.7365360333006
 30
0.0
 10
155.7718314177377
 20
126.8854493100781
 30
0.0
 10
155.8929994869412
 20
127.0475551899746
 30
0.0
 10
155.9933326214026
 20
127.2180472434968
 30
0.0
 10
156.0737635696365
 20
127.3967634996967
 30
0.0
 10
156.129122728116
 20
127.5854264418928
 30
0.0
 10
156.1639432653886
 20
127.7836142116986
 30
0.0
 10
156.1668555854012
 20
127.9188925490618
 30
0.0
 10
156.1683500107021
 20
127.9883091547718
 30
0.0
  0
SPLINE
  5
119
330
1F
100
AcDbEntity
  8
0
  6
Continuous
 62
     7
370
    25
100
AcDbSpline
210
0.0
220
0.0
230
1.0
 70
     8
 71
     3
 72
    23
 73
    19
 74
     0
 42
0.00000001
 43
0.00000001
 40
0.0
 40
0.0
 40
0.0
 40
0.0
 40
0.033901876195144
 40
0.0696468224460141
 40
0.1069244289800773
 40
0.1478415816613999
 40
0.1917736622724644
 40
0.2405587709532769
 40
0.2936270440779327
 40
0.3511759959690787
 40
0.4140362987996041
 40
0.481332859963383
 40
0.5544808651171534
 40
0.6328652504971927
 40
0.7160010120034099
 40
0.8051682735375832
 40
0.8995325809120828
 40
1.0
 40
1.0
 40
1.0
 40
1.0
 10
156.1683500107021
 20
127.9883091547718
 30
0.0
 10
156.1662855480966
 20
128.0436520138297
 30
0.0
 10
156.1620443887075
 20
128.1573464375919
 30
0.0
 10
156.1101776248937
 20
128.3246968086087
 30
0.0
 10
156.0422654780774
 20
128.4974590909899
 30
0.0
 10
155.937032883601
 20
128.666956006289
 30
0.0
 10
155.8072182767952
 20
128.8415999969676
 30
0.0
 10
155.6438667111064
 20
129.0141268056446
 30
0.0
 10
155.4553253311104
 20
129.1921447487848
 30
0.0
 10
155.2404512642995
 20
129.3754633844915
 30
0.0
 10
154.9928083628726
 20
129.5545085520911
 30
0.0
 10
154.7163684849366
 20
129.736069839006
 30
0.0
 10
154.4143810548929
 20
129.9246823230618
 30
0.0
 10
154.0813293307753
 20
130.1115119371657
 30
0.0
 10
153.7190551745891
 20
130.298729091571
 30
0.0
 10
153.332333643311
 20
130.4954488580433
 30
0.0
 10
152.9105882264491
 20
130.6842830547749
 30
0.0
 10
152.6204883019106
 20
130.8118738726013
 30
0.0
 10
152.4708946437052
 20
130.8776676752796
 30
0.0
  0
SPLINE
  5
11A
330
1F
100
AcDbEntity
  8
0
  6
Continuous
 62
     7
370
    25
100
AcDbSpline
210
0.0
220
0.0
230
1.0
 70
     8
 71
     3
 72
     9
 73
     5
 74
     0
 42
0.00000001
 43
0.00000001
 40
0.0
 40
0.0
 40
0.0
 40
0.0
 40
0.6971690961294746
 40
1.0
 40
1.0
 40
1.0
 40
1.0
 10
152.4708946437052
 20
130.8776676752796
 30
0.0
 10
152.4631626563705
 20
130.8797507699601
 30
0.0
 10
152.4520721083562
 20
130.8827387031489
 30
0.0
 10
152.4412026936351
 20
130.8864414365909
 30
0.0
 10
152.4379110989505
 20
130.887562738706
 30
0.0
  0
SPLINE
  5
11B
330
1F
100
AcDbEntity
  8
0
  6
Continuous
 62
     7
370
    25
100
AcDbSpline
210
0.0
220
0.0
230
1.0
 70
     8
 71
     3
 72
    11
 73
     7
 74
     0
 42
0.00000001
 43
0.00000001
 40
0.0
 40
0.0
 40
0.0
 40
0.0
 40
0.193978868266625
 40
0.4216326265183101
 40
0.6910687808167906
 40
1.0
 40
1.0
 40
1.0
 40
1.0
 10
152.4379110989505
 20
130.887562738706
 30
0.0
 10
152.3939261184201
 20
130.9073362959138
 30
0.0
 10
152.2983203288094
 20
130.9503161160128
 30
0.0
 10
152.1417802916337
 20
131.0211462861611
 30
0.0
 10
151.9569553382131
 20
131.0986150169979
 30
0.0
 10
151.8254137938817
 20
131.1566917056217
 30
0.0
 10
151.7551517225292
 20
131.1877129959734
 30
0.0
  0
SPLINE
  5
11C
330
1F
100
AcDbEntity
  8
0
  6
Continuous
 62
     7
370
    25
100
AcDbSpline
210
0.0
220
0.0
230
1.0
 70
     8
 71
     3
 72
    15
 73
    11
 74
     0
 42
0.00000001
 43
0.00000001
 40
0.0
 40
0.0
 40
0.0
 40
0.0
 40
0.1611694337349677
 40
0.3106506813314083
 40
0.4497315300135946
 40
0.5788122402892906
 40
0.6972996946653983
 40
0.8070029724930701
 40
0.9068683247022509
 40
1.0
 40
1.0
 40
1.0
 40
1.0
 10
151.7551517225292
 20
131.1877129959734
 30
0.0
 10
151.5486282525117
 20
131.2792109399794
 30
0.0
 10
151.1505586236431
 20
131.4555712955829
 30
0.0
 10
150.5892120737089
 20
131.7424414451571
 30
0.0
 10
150.0755158239864
 20
132.023168665879
 30
0.0
 10
149.6169787709734
 20
132.3125417410797
 30
0.0
 10
149.2118982074435
 20
132.6074018961225
 30
0.0
 10
148.8590590772345
 20
132.9023969143687
 30
0.0
 10
148.5552177968131
 20
133.1999314447082
 30
0.0
 10
148.3887170560465
 20
133.4133601652729
 30
0.0
 10
148.3083712956677
 20
133.516351255652
 30
0.0
  0
SPLINE
  5
11D
330
1F
100
AcDbEntity
  8
0
  6
Continuous
 62
     7
370
    25
100
AcDbSpline
210
0.0
220
0.0
230
1.0
 70
     8
 71
     3
 72
    15
 73
    11
 74
     0
 42
0.00000001
 43
0.00000001
 40
0.0
 40
0.0
 40
0.0
 40
0.0
 40
0.1244878995059123
 40
0.2482885455155687
 40
0.3720395122912789
 40
0.4964038628390924
 40
0.6212432060630946
 40
0.7462302299498073
 40
0.8721973670521685
 40
1.0
 40
1.0
 40
1.0
 40
1.0
 10
148.3083712956677
 20
133.516351255652
 30
0.0
 10
148.2467499736917
 20
133.6079562185344
 30
0.0
 10
148.1238475191809
 20
133.7906604258215
 30
0.0
 10
147.9602793066729
 20
134.0778201633001
 30
0.0
 10
147.8273112997169
 20
134.3799705418405
 30
0.0
 10
147.7095571980848
 20
134.689296702621
 30
0.0
 10
147.6213193238743
 20
135.0096727119922
 30
0.0
 10
147.5583522861191
 20
135.3372014026808
 30
0.0
 10
147.5218228221745
 20
135.671546125321
 30
0.0
 10
147.5162662488575
 20
135.8965776563332
 30
0.0
 10
147.5134678670805
 20
136.0099072391039
 30
0.0
  0
SPLINE
  5
11E
330
1F
100
AcDbEntity
  8
0
  6
Continuous
 62
     7
370
    25
100
AcDbSpline
210
0.0
220
0.0
230
1.0
 70
     8
 71
     3
 72
    23
 73
    19
 74
     0
 42
0.00000001
 43
0.00000001
 40
0.0
 40
0.0
 40
0.0
 40
0.0
 40
0.0628063383018104
 40
0.1234828609176345
 40
0.1826505217380732
 40
0.2406161831719172
 40
0.2986348479982754
 40
0.3572730336448807
 40
0.4172136341420761
 40
0.4788256868631304
 40
0.5413556785678244
 40
0.6037560494209545
 40
0.6661035345199635
 40
0.7291648016316558
 40
0.7937379919237871
 40
0.8601100757919458
 40
0.9286996877279826
 40
1.0
 40
1.0
 40
1.0
 40
1.0
 10
147.5134678670805
 20
136.0099072391039
 30
0.0
 10
147.5185779494224
 20
136.1882985617389
 30
0.0
 10
147.5286248269218
 20
136.5390318074185
 30
0.0
 10
147.6067038886254
 20
137.0530153322762
 30
0.0
 10
147.7311477532852
 20
137.5430992270291
 30
0.0
 10
147.9068578492057
 20
138.0096233755861
 30
0.0
 10
148.1366632235056
 20
138.4502011233922
 30
0.0
 10
148.4156150272935
 20
138.8679445034107
 30
0.0
 10
148.7434782029167
 20
139.2620107011005
 30
0.0
 10
149.1196227046731
 20
139.6261895612232
 30
0.0
 10
149.533234665031
 20
139.9582258743611
 30
0.0
 10
149.9792067996419
 20
140.24959028348
 30
0.0
 10
150.4541378179154
 20
140.4937869608935
 30
0.0
 10
150.954589017097
 20
140.6973859706803
 30
0.0
 10
151.4846039310912
 20
140.8505540560008
 30
0.0
 10
152.0403672756235
 20
140.9633631220794
 30
0.0
 10
152.6232155200216
 20
141.0296192281423
 30
0.0
 10
153.0204523463268
 20
141.0386124335682
 30
0.0
 10
153.2229194641113
 20
141.0431961686644
 30
0.0
  0
SPLINE
  5
11F
330
1F
100
AcDbEntity
  8
0
  6
Continuous
 62
     7
370
    25
100
AcDbSpline
210
0.0
220
0.0
230
1.0
 70
     8
 71
     3
 72
    19
 73
    15
 74
     0
 42
0.00000001
 43
0.00000001
 40
0.0
 40
0.0
 40
0.0
 40
0.0
 40
0.1590528485769839
 40
0.3190279090785254
 40
0.4820901113331266
 40
0.6494246302759779
 40
0.7292747064696151
 40
0.798558004616174
 40
0.8582375602699287
 40
0.9073562143015997
 40
0.9454964989193694
 40
0.9737748534668593
 40
0.9924655424116824
 40
1.0
 40
1.0
 40
1.0
 40
1.0
 10
153.2229194641113
 20
141.0431961686644
 30
0.0
 10
153.4597500746293
 20
141.0363233906087
 30
0.0
 10
153.9347844745495
 20
141.0225379851142
 30
0.0
 10
154.6444386275064
 20
140.9064785657706
 30
0.0
 10
155.3540235969385
 20
140.7317693296903
 30
0.0
 10
155.9268662427367
 20
140.5176340264829
 30
0.0
 10
156.3611824228938
 20
140.3357254134701
 30
0.0
 10
156.650011921916
 20
140.2210706554968
 30
0.0
 10
156.895412270488
 20
140.1209539004
 30
0.0
 10
157.1002054636583
 20
140.0443690861467
 30
0.0
 10
157.2590246862526
 20
139.9780954726684
 30
0.0
 10
157.3788062400644
 20
139.9374003824846
 30
0.0
 10
157.4546804798659
 20
139.9076089325239
 30
0.0
 10
157.4931354888044
 20
139.9006627863262
 30
0.0
 10
157.5041835732656
 20
139.8986671656778
 30
0.0
  0
SPLINE
  5
120
330
1F
100
AcDbEntity
  8
0
  6
Continuous
 62
     7
370
    25
100
AcDbSpline
210
0.0
220
0.0
230
1.0
 70
     8
 71
     3
 72
    15
 73
    11
 74
     0
 42
0.00000001
 43
0.00000001
 40
0.0
 40
0.0
 40
0.0
 40
0.0
 40
0.0820328203202504
 40
0.1557586200259842
 40
0.2217535167054547
 40
0.2900707642693515
 40
0.386026035831904
 40
0.5359252931080403
 40
0.7395339098527195
 40
1.0
 40
1.0
 40
1.0
 40
1.0
 10
157.5041835732656
 20
139.8986671656778
 30
0.0
 10
157.5419011606209
 20
139.8999485612816
 30
0.0
 10
157.6135168789912
 20
139.9023815924776
 30
0.0
 10
157.7102987406871
 20
139.9369029358664
 30
0.0
 10
157.7920415159898
 20
139.9876815288862
 30
0.0
 10
157.8591776828245
 20
140.0716258595081
 30
0.0
 10
157.9075717759679
 20
140.2086550233583
 30
0.0
 10
157.9459061815296
 20
140.4106598946526
 30
0.0
 10
157.9812808867456
 20
140.6895252254291
 30
0.0
 10
157.9968148675383
 20
140.9012661787888
 30
0.0
 10
158.0055334535363
 20
141.0201076873361
 30
0.0
  0
LINE
  5
121
330
1F
100
AcDbEntity
  8
0
  6
Continuous
 62
     7
370
    25
100
AcDbLine
 10
158.0055334535
 20
141.0201076873
 30
0.0
 11
159.3347703071
 21
141.0201076873
 31
0.0
  0
LINE
  5
122
330
1F
100
AcDbEntity
  8
0
  6
Continuous
 62
     7
370
    25
100
AcDbLine
 10
159.3347703071
 20
141.0201076873
 30
0.0
 11
159.3347703071
 21
135.5547343215
 31
0.0
  0
LINE
  5
123
330
1F
100
AcDbEntity
  8
0
  6
Continuous
 62
     7
370
    25
100
AcDbLine
 10
159.3347703071
 20
135.5547343215
 30
0.0
 11
158.0978873788
 21
135.5547343215
 31
0.0
  0
SPLINE
  5
124
330
1F
100
AcDbEntity
  8
0
  6
Continuous
 62
     7
370
    25
100
AcDbSpline
210
0.0
220
0.0
230
1.0
 70
     8
 71
     3
 72
    23
 73
    19
 74
     0
 42
0.00000001
 43
0.00000001
 40
0.0
 40
0.0
 40
0.0
 40
0.0
 40
0.0707233545923407
 40
0.1386610615134848
 40
0.2042447059308664
 40
0.2679537324881755
 40
0.3304816771840249
 40
0.3924436743484412
 40
0.4538264243401168
 40
0.5158484486415154
 40
0.5776179669650017
 40
0.6374410802925999
 40
0.6971521224681971
 40
0.7563478381038151
 40
0.8158924612206203
 40
0.87597006729935
 40
0.9371929687428614
 40
0.9999999999999999
 40
0.9999999999999999
 40
0.9999999999999999
 40
0.9999999999999999
 10
158.0978873788494
 20
135.5547343214897
 30
0.0
 10
158.0684743648523
 20
135.708130082779
 30
0.0
 10
158.010806855065
 20
136.0088796613962
 30
0.0
 10
157.8838891808282
 20
136.4421609250817
 30
0.0
 10
157.7297853430419
 20
136.8499224816523
 30
0.0
 10
157.5427423827206
 20
137.2302941767171
 30
0.0
 10
157.3333381437443
 20
137.5898003456686
 30
0.0
 10
157.0872480618602
 20
137.9190541641211
 30
0.0
 10
156.8151067591979
 20
138.2252336838405
 30
0.0
 10
156.5158582157063
 20
138.5045735415879
 30
0.0
 10
156.1950733245318
 20
138.7532594850287
 30
0.0
 10
155.8579144136125
 20
138.9696034580744
 30
0.0
 10
155.5094256916209
 20
139.1559867199374
 30
0.0
 10
155.1433869460138
 20
139.3028992188769
 30
0.0
 10
154.7672596675245
 20
139.4243894212383
 30
0.0
 10
154.3756942389765
 20
139.5050354519865
 30
0.0
 10
153.9719264130666
 20
139.5564563831913
 30
0.0
 10
153.6980425805607
 20
139.5624820499132
 30
0.0
 10
153.5593516206088
 20
139.5655333636558
 30
0.0
  0
SPLINE
  5
125
330
1F
100
AcDbEntity
  8
0
  6
Continuous
 62
     7
370
    25
100
AcDbSpline
210
0.0
220
0.0
230
1.0
 70
     8
 71
     3
 72
    15
 73
    11
 74
     0
 42
0.00000001
 43
0.00000001
 40
0.0
 40
0.0
 40
0.0
 40
0.0
 40
0.1445458295941634
 40
0.278467636919121
 40
0.4030177839077359
 40
0.5233879965579717
 40
0.6386464182702457
 40
0.7517858309132561
 40
0.8705736242616305
 40
1.0
 40
1.0
 40
1.0
 40
1.0
 10
153.5593516206088
 20
139.5655333636558
 30
0.0
 10
153.4149148471086
 20
139.5610973717262
 30
0.0
 10
153.1366573068271
 20
139.5525514303216
 30
0.0
 10
152.7405283086435
 20
139.469931308602
 30
0.0
 10
152.3869767281306
 20
139.330450221026
 30
0.0
 10
152.0813226074802
 20
139.1366838483584
 30
0.0
 10
151.8307411333233
 20
138.890182183411
 30
0.0
 10
151.651076861142
 20
138.5898302650667
 30
0.0
 10
151.5432780076558
 20
138.2412363740544
 30
0.0
 10
151.5307824637855
 20
137.9930134139543
 30
0.0
 10
151.5242669092466
 20
137.8635824543156
 30
0.0
  0
SPLINE
  5
126
330
1F
100
AcDbEntity
  8
0
  6
Continuous
 62
     7
370
    25
100
AcDbSpline
210
0.0
220
0.0
230
1.0
 70
     8
 71
     3
 72
    15
 73
    11
 74
     0
 42
0.00000001
 43
0.00000001
 40
0.0
 40
0.0
 40
0.0
 40
0.0
 40
0.0792415533557949
 40
0.1638116998730468
 40
0.2600227088196883
 40
0.3709126623112671
 40
0.499367781752612
 40
0.6460289413440693
 40
0.8129543891096009
 40
1.0
 40
1.0
 40
1.0
 40
1.0
 10
151.5242669092466
 20
137.8635824543156
 30
0.0
 10
151.5331696092532
 20
137.7655365996093
 30
0.0
 10
151.5515736707561
 20
137.5628518029997
 30
0.0
 10
151.6904786658248
 20
137.2674606249568
 30
0.0
 10
151.9069134067253
 20
136.9780325908376
 30
0.0
 10
152.2126459127338
 20
136.696220469731
 30
0.0
 10
152.5928028139723
 20
136.4079731502942
 30
0.0
 10
153.0640216641998
 20
136.1311670885049
 30
0.0
 10
153.6151312455736
 20
135.8511112180603
 30
0.0
 10
154.0167133233663
 20
135.6787808097137
 30
0.0
 10
154.2289175791283
 20
135.5877178662444
 30
0.0
  0
SPLINE
  5
127
330
1F
100
AcDbEntity
  8
0
  6
Continuous
 62
     7
370
    25
100
AcDbSpline
210
0.0
220
0.0
230
1.0
 70
     8
 71
     3
 72
     9
 73
     5
 74
     0
 42
0.00000001
 43
0.00000001
 40
0.0
 40
0.0
 40
0.0
 40
0.0
 40
0.560918233084334
 40
1.0
 40
1.0
 40
1.0
 40
1.0
 10
154.2289175791283
 20
135.5877178662444
 30
0.0
 10
154.2750461786514
 20
135.5689060833932
 30
0.0
 10
154.3572838325593
 20
135.5353686054836
 30
0.0
 10
154.4399826304768
 20
135.502985891329
 30
0.0
 10
154.4762941647882
 20
135.4887672319804
 30
0.0
  0
SPLINE
  5
128
330
1F
100
AcDbEntity
  8
0
  6
Continuous
 62
     7
370
    25
100
AcDbSpline
210
0.0
220
0.0
230
1.0
 70
     8
 71
     3
 72
    19
 73
    15
 74
     0
 42
0.00000001
 43
0.00000001
 40
0.0
 40
0.0
 40
0.0
 40
0.0
 40
0.1159014424151078
 40
0.2227161122782182
 40
0.3210677118340546
 40
0.4109626197285989
 40
0.4924092015384162
 40
0.565109048257935
 40
0.6290970887583669
 40
0.6841016639163282
 40
0.78075949394089
 40
0.8645975758038814
 40
0.9382439986911808
 40
1.0
 40
1.0
 40
1.0
 40
1.0
 10
154.4762941647882
 20
135.4887672319804
 30
0.0
 10
154.6512542774322
 20
135.4154500826918
 30
0.0
 10
154.987457479738
 20
135.2745639115396
 30
0.0
 10
155.4697755477919
 20
135.0659352420109
 30
0.0
 10
155.9119817965077
 20
134.8717923212118
 30
0.0
 10
156.3141536128053
 20
134.689880851046
 30
0.0
 10
156.6776543942657
 20
134.5241665468397
 30
0.0
 10
156.996521207095
 20
134.3635012234408
 30
0.0
 10
157.2775997686813
 20
134.2240320338977
 30
0.0
 10
157.5876554914911
 20
134.0552645443613
 30
0.0
 10
157.9203998912461
 20
133.8603886269857
 30
0.0
 10
158.268460079763
 20
133.6324424082756
 30
0.0
 10
158.5533887048522
 20
133.4127080825724
 30
0.0
 10
158.7094626381165
 20
133.2551008821217
 30
0.0
 10
158.7806467552708
 20
133.18321745363
 30
0.0
  0
SPLINE
  5
129
330
1F
100
AcDbEntity
  8
0
  6
Continuous
 62
     7
370
    25
100
AcDbSpline
210
0.0
220
0.0
230
1.0
 70
     8
 71
     3
 72
    15
 73
    11
 74
     0
 42
0.00000001
 43
0.00000001
 40
0.0
 40
0.0
 40
0.0
 40
0.0
 40
0.1405631309210178
 40
0.2738015208058598
 40
0.4005682918446148
 40
0.5227680495208452
 40
0.64201040476308
 40
0.7599569646499816
 40
0.8791895561992006
 40
0.9999999999999999
 40
0.9999999999999999
 40
0.9999999999999999
 40
0.9999999999999999
 10
158.7806467552708
 20
133.18321745363
 30
0.0
 10
158.8976265905298
 20
133.0523290015937
 30
0.0
 10
159.1254904449251
 20
132.7973726912963
 30
0.0
 10
159.4149406920999
 20
132.3886511913673
 30
0.0
 10
159.6592908672605
 20
131.9783529527847
 30
0.0
 10
159.8519090255656
 20
131.5601057411348
 30
0.0
 10
159.9966757274896
 20
131.1349325010315
 30
0.0
 10
160.1042474087793
 20
130.7028139069429
 30
0.0
 10
160.1685361353658
 20
130.2595280423217
 30
0.0
 10
160.1755959451733
 20
129.9598332161743
 30
0.0
 10
160.1791490528682
 20
129.8090008252288
 30
0.0
  0
SPLINE
  5
12A
330
1F
100
AcDbEntity
  8
0
  6
Continuous
 62
     7
370
    25
100
AcDbSpline
210
0.0
220
0.0
230
1.0
 70
     8
 71
     3
 72
    23
 73
    19
 74
     0
 42
0.00000001
 43
0.00000001
 40
0.0
 40
0.0
 40
0.0
 40
0.0
 40
0.0610794637950405
 40
0.1198345861686926
 40
0.177357969889605
 40
0.2338063582214053
 40
0.2908231210091833
 40
0.3483373332721732
 40
0.4073444348544413
 40
0.4682173457507862
 40
0.5300404456733903
 40
0.5920966945060787
 40
0.6549490425694383
 40
0.7190891418840137
 40
0.7851846640018018
 40
0.8535604314538836
 40
0.925146535583814
 40
1.0
 40
1.0
 40
1.0
 40
1.0
 10
160.1791490528682
 20
129.8090008252288
 30
0.0
 10
160.1742222988731
 20
129.6240190177365
 30
0.0
 10
160.1645562754755
 20
129.2610947716439
 30
0.0
 10
160.0841282580884
 20
128.728640617173
 30
0.0
 10
159.9478073889744
 20
128.222876229672
 30
0.0
 10
159.7622692223709
 20
127.7384792730417
 30
0.0
 10
159.5205777501681
 20
127.2793233463722
 30
0.0
 10
159.2239164397216
 20
126.8444792488739
 30
0.0
 10
158.8760430263087
 20
126.4340605577224
 30
0.0
 10
158.477796519316
 20
126.053098325557
 30
0.0
 10
158.0362888571652
 20
125.7084408970003
 30
0.0
 10
157.5602392271208
 20
125.4016519651359
 30
0.0
 10
157.0457128654234
 20
125.1482939461146
 30
0.0
 10
156.4984346246788
 20
124.9410495049996
 30
0.0
 10
155.9198254872885
 20
124.774255392105
 30
0.0
 10
155.3055912133011
 20
124.6610616598667
 30
0.0
 10
154.6582750980382
 20
124.5902554486948
 30
0.0
 10
154.2148149955335
 20
124.5820201496677
 30
0.0
 10
153.9881377024193
 20
124.5778106271404
 30
0.0
  0
SPLINE
  5
12B
330
1F
100
AcDbEntity
  8
0
  6
Continuous
 62
     7
370
    25
100
AcDbSpline
210
0.0
220
0.0
230
1.0
 70
     8
 71
     3
 72
    19
 73
    15
 74
     0
 42
0.00000001
 43
0.00000001
 40
0.0
 40
0.0
 40
0.0
 40
0.0
 40
0.1549018180149502
 40
0.3124669582769305
 40
0.4745732340633636
 40
0.6416811080167399
 40
0.722034959462716
 40
0.7917086639117852
 40
0.8517501790370455
 40
0.901109499874391
 40
0.9410642473463028
 40
0.9707697223258852
 40
0.990444892624663
 40
1.0
 40
1.0
 40
1.0
 40
1.0
 10
153.9881377024193
 20
124.5778106271404
 30
0.0
 10
153.7359959919253
 20
124.5850973126795
 30
0.0
 10
153.2273773434005
 20
124.5997959682248
 30
0.0
 10
152.461700098689
 20
124.711248396712
 30
0.0
 10
151.6880370280655
 20
124.8848479826237
 30
0.0
 10
151.0529619903528
 20
125.0893459931995
 30
0.0
 10
150.5674701618095
 20
125.2641846372578
 30
0.0
 10
150.2465271301021
 20
125.3819123216044
 30
0.0
 10
149.9705490610118
 20
125.4755567188123
 30
0.0
 10
149.741114450819
 20
125.5555498013571
 30
0.0
 10
149.5582645231883
 20
125.6198776583693
 30
0.0
 10
149.4188249340565
 20
125.6602552994683
 30
0.0
 10
149.3276787484349
 20
125.6917702729637
 30
0.0
 10
149.2803616238649
 20
125.6974081718172
 30
0.0
 10
149.2648940935527
 20
125.6992511487987
 30
0.0
  0
SPLINE
  5
12C
330
1F
100
AcDbEntity
  8
0
  6
Continuous
 62
     7
370
    25
100
AcDbSpline
210
0.0
220
0.0
230
1.0
 70
     8
 71
     3
 72
    19
 73
    15
 74
     0
 42
0.00000001
 43
0.00000001
 40
0.0
 40
0.0
 40
0.0
 40
0.0
 40
0.0853520717286988
 40
0.1637953622473084
 40
0.2348599259396599
 40
0.3005865472485266
 40
0.3593473337610097
 40
0.4121386168558013
 40
0.4616761212379133
 40
0.5074091153213549
 40
0.6025121190679475
 40
0.7135426228523649
 40
0.8448354587689514
 40
0.9999999999999999
 40
0.9999999999999999
 40
0.9999999999999999
 40
0.9999999999999999
 10
128.9371354612586
 20
126.0455783687226
 30
0.0
 10
129.0284155224513
 20
126.0504414303675
 30
0.0
 10
129.2035870254528
 20
126.059773915539
 30
0.0
 10
129.4543534167587
 20
126.0832021930387
 30
0.0
 10
129.6807238024313
 20
126.1283036393453
 30
0.0
 10
129.8838720883762
 20
126.1794156294467
 30
0.0
 10
130.0642129331821
 20
126.2404281277489
 30
0.0
 10
130.2186416472841
 20
126.3182238459265
 30
0.0
 10
130.3520702865193
 20
126.4051943833855
 30
0.0
 10
130.4987270898976
 20
126.548552426698
 30
0.0
 10
130.6415815454313
 20
126.7817981775748
 30
0.0
 10
130.7564222392041
 20
127.1263321761879
 30
0.0
 10
130.8277077690481
 20
127.5478622688755
 30
0.0
 10
130.8337271424813
 20
127.8549521885155
 30
0.0
 10
130.8369876391267
 20
128.0212926995264
 30
0.0
  0
LINE
  5
12D
330
1F
100
AcDbEntity
  8
0
  6
Continuous
 62
     7
370
    25
100
AcDbLine
 10
130.8369876391
 20
128.0212926995
 30
0.0
 11
130.8369876391
 21
137.5997140963
 31
0.0
  0
SPLINE
  5
12E
330
1F
100
AcDbEntity
  8
0
  6
Continuous
 62
     7
370
    25
100
AcDbSpline
210
0.0
220
0.0
230
1.0
 70
     8
 71
     3
 72
    19
 73
    15
 74
     0
 42
0.00000001
 43
0.00000001
 40
0.0
 40
0.0
 40
0.0
 40
0.0
 40
0.155302411102932
 40
0.286539096452736
 40
0.396699967632629
 40
0.4910241660126515
 40
0.5360889848936636
 40
0.5856705053204821
 40
0.6389760792748321
 40
0.6981380125139176
 40
0.7639230345423431
 40
0.8358769782294065
 40
0.9145041597378764
 40
0.9999999999999999
 40
0.9999999999999999
 40
0.9999999999999999
 40
0.9999999999999999
 10
130.8369876391267
 20
137.5997140962783
 30
0.0
 10
130.8332058302628
 20
137.7659511243744
 30
0.0
 10
130.826228243198
 20
138.0726650220488
 30
0.0
 10
130.7612240755047
 20
138.4941876142347
 30
0.0
 10
130.6443971416616
 20
138.8357464220857
 30
0.0
 10
130.5029206305147
 20
139.0670697078303
 30
0.0
 10
130.3542840162082
 20
139.20592407922
 30
0.0
 10
130.2213018512895
 20
139.2926478084224
 30
0.0
 10
130.0678128211672
 20
139.3741156971706
 30
0.0
 10
129.8877552284818
 20
139.4387580308977
 30
0.0
 10
129.6833277749363
 20
139.4907842333817
 30
0.0
 10
129.4547504606156
 20
139.5287998776666
 30
0.0
 10
129.2037947334773
 20
139.558782846265
 30
0.0
 10
129.0284677362172
 20
139.5697272236274
 30
0.0
 10
128.9371354612586
 20
139.5754284270822
 30
0.0
  0
LINE
  5
12F
330
1F
100
AcDbEntity
  8
0
  6
Continuous
 62
     7
370
    25
100
AcDbLine
 10
128.9371354613
 20
139.5754284271
 30
0.0
 11
128.9371354613
 21
140.6210067958
 31
0.0
  0
LINE
  5
130
330
1F
100
AcDbEntity
  8
0
  6
Continuous
 62
     7
370
    25
100
AcDbLine
 10
128.9371354613
 20
140.6210067958
 30
0.0
 11
135.7086571994
 21
140.6210067958
 31
0.0
  0
LINE
  5
131
330
1F
100
AcDbEntity
  8
0
  6
Continuous
 62
     7
370
    25
100
AcDbLine
 10
135.7086571994
 20
140.6210067958
 30
0.0
 11
142.4471953928
 21
131.8045052829
 31
0.0
  0
LINE
  5
132
330
1F
100
AcDbEntity
  8
0
  6
Continuous
 62
     7
370
    25
100
AcDbLine
 10
142.4471953928
 20
131.8045052829
 30
0.0
 11
142.4471953928
 21
137.5997140963
 31
0.0
  0
SPLINE
  5
133
330
1F
100
AcDbEntity
  8
0
  6
Continuous
 62
     7
370
    25
100
AcDbSpline
210
0.0
220
0.0
230
1.0
 70
     8
 71
     3
 72
    19
 73
    15
 74
     0
 42
0.00000001
 43
0.00000001
 40
0.0
 40
0.0
 40
0.0
 40
0.0
 40
0.1555385441158984
 40
0.2859599293496347
 40
0.3956145003644539
 40
0.4877961562079193
 40
0.532929494897391
 40
0.5811586835300725
 40
0.6340772127857185
 40
0.6942950585841474
 40
0.7601801049158078
 40
0.8324268668442838
 40
0.9123214930583294
 40
1.0
 40
1.0
 40
1.0
 40
1.0
 10
142.4471953927654
 20
137.5997140962783
 30
0.0
 10
142.4438318922266
 20
137.7660836562663
 30
0.0
 10
142.4376480464029
 20
138.0719565695721
 30
0.0
 10
142.3683106281477
 20
138.4901763547556
 30
0.0
 10
142.2639822546388
 20
138.8317125265429
 30
0.0
 10
142.1209402141977
 20
139.0587167600734
 30
0.0
 10
141.9756595010103
 20
139.1951066489283
 30
0.0
 10
141.8440062282276
 20
139.2804431415419
 30
0.0
 10
141.6894319532306
 20
139.357533068941
 30
0.0
 10
141.5088789144562
 20
139.4220428324607
 30
0.0
 10
141.3030828550633
 20
139.4735605134898
 30
0.0
 10
141.0739552908312
 20
139.5161250880489
 30
0.0
 10
140.8197162645025
 20
139.5498561865657
 30
0.0
 10
140.6409028970659
 20
139.5601482798233
 30
0.0
 10
140.5473432148973
 20
139.5655333636558
 30
0.0
  0
LINE
  5
134
330
1F
100
AcDbEntity
  8
0
  6
Continuous
 62
     7
370
    25
100
AcDbLine
 10
140.5473432149
 20
139.5655333637
 30
0.0
 11
140.5473432149
 21
140.6210067958
 31
0.0
  0
LINE
  5
135
330
1F
100
AcDbEntity
  8
0
  6
Continuous
 62
     7
370
    25
100
AcDbLine
 10
140.5473432149
 20
140.6210067958
 30
0.0
 11
146.0358050621
 21
140.6210067958
 31
0.0
  0
LINE
  5
136
330
1F
100
AcDbEntity
  8
0
  6
Continuous
 62
     7
370
    25
100
AcDbLine
 10
146.0358050621
 20
140.6210067958
 30
0.0
 11
146.0358050621
 21
139.582025136
 31
0.0
  0
SPLINE
  5
137
330
1F
100
AcDbEntity
  8
0
  6
Continuous
 62
     7
370
    25
100
AcDbSpline
210
0.0
220
0.0
230
1.0
 70
     8
 71
     3
 72
    23
 73
    19
 74
     0
 42
0.00000001
 43
0.00000001
 40
0.0
 40
0.0
 40
0.0
 40
0.0
 40
0.0883466074568473
 40
0.1689552906082104
 40
0.241956316112988
 40
0.3066256556591799
 40
0.3656183263184691
 40
0.4182288660678337
 40
0.4643430817004929
 40
0.5066929726472229
 40
0.5494774804729479
 40
0.5952785988774227
 40
0.6476149195009107
 40
0.7041703581089497
 40
0.7681927883368533
 40
0.8386139588599497
 40
0.9158297300707579
 40
1.0
 40
1.0
 40
1.0
 40
1.0
 10
146.0358050620719
 20
139.5820251360331
 30
0.0
 10
145.9400633498803
 20
139.5777263886551
 30
0.0
 10
145.7569655573074
 20
139.5695054039062
 30
0.0
 10
145.4961613681686
 20
139.5389005481955
 30
0.0
 10
145.2625153042306
 20
139.5005053230807
 30
0.0
 10
145.0545370699642
 20
139.4518299412816
 30
0.0
 10
144.8736646035475
 20
139.3892687930257
 30
0.0
 10
144.7172516391639
 20
139.318727492835
 30
0.0
 10
144.58919824899
 20
139.2341848105173
 30
0.0
 10
144.4812354958329
 20
139.1400912298925
 30
0.0
 10
144.3983008510681
 20
139.0235021154402
 30
0.0
 10
144.3288727976815
 20
138.8872116543139
 30
0.0
 10
144.2654091476256
 20
138.7313572408304
 30
0.0
 10
144.2222784754767
 20
138.5484832437278
 30
0.0
 10
144.1808827789739
 20
138.3454499210061
 30
0.0
 10
144.1569378203281
 20
138.1168936607557
 30
0.0
 10
144.1399255831286
 20
137.8660413438995
 30
0.0
 10
144.1373146213116
 20
137.6910040990649
 30
0.0
 10
144.1359528842038
 20
137.5997140962784
 30
0.0
  0
LINE
  5
138
330
1F
100
AcDbEntity
  8
0
  6
Continuous
 62
     7
370
    25
100
AcDbLine
 10
144.1359528842
 20
137.5997140963
 30
0.0
 11
144.1359528842
 21
125.0
 31
0.0
  0
LINE
  5
139
330
1F
100
AcDbEntity
  8
0
  6
Continuous
 62
     7
370
    25
100
AcDbLine
 10
144.1359528842
 20
125.0
 30
0.0
 11
141.8996685498
 21
125.0
 31
0.0
  0
LINE
  5
13A
330
1F
100
AcDbEntity
  8
0
  6
Continuous
 62
     7
370
    25
100
AcDbLine
 10
141.8996685498
 20
125.0
 30
0.0
 11
132.5257451306
 21
136.9895185183
 31
0.0
  0
LINE
  5
13B
330
1F
100
AcDbEntity
  8
0
  6
Continuous
 62
     7
370
    25
100
AcDbLine
 10
132.5257451306
 20
136.9895185183
 30
0.0
 11
132.5257451306
 21
128.0212926995
 31
0.0
  0
SPLINE
  5
13C
330
1F
100
AcDbEntity
  8
0
  6
Continuous
 62
     7
370
    25
100
AcDbSpline
210
0.0
220
0.0
230
1.0
 70
     8
 71
     3
 72
    23
 73
    19
 74
     0
 42
0.00000001
 43
0.00000001
 40
0.0
 40
0.0
 40
0.0
 40
0.0
 40
0.084038619929318
 40
0.1611336186122181
 40
0.2314446439842879
 40
0.2951823411539517
 40
0.3528877407968348
 40
0.4038316617106706
 40
0.4504597341396494
 40
0.4917627621207674
 40
0.5333007845215232
 40
0.5801917992930529
 40
0.6327200513467834
 40
0.6916204520740048
 40
0.7571729107909748
 40
0.8302352603516189
 40
0.9107178641505008
 40
1.0
 40
1.0
 40
1.0
 40
1.0
 10
132.5257451305651
 20
128.0212926995264
 30
0.0
 10
132.527156187454
 20
127.9300127502034
 30
0.0
 10
132.529861713827
 20
127.7549947816368
 30
0.0
 10
132.5462284789696
 20
127.5040108901942
 30
0.0
 10
132.5722893028696
 20
127.2760898414086
 30
0.0
 10
132.60697890005
 20
127.0705220595814
 30
0.0
 10
132.6558517988837
 20
126.8893995969821
 30
0.0
 10
132.716131881383
 20
126.7316490822035
 30
0.0
 10
132.7833098052865
 20
126.5961657628023
 30
0.0
 10
132.8654572326416
 20
126.4810349237394
 30
0.0
 10
132.9696058778978
 20
126.3846681736723
 30
0.0
 10
133.1002207161956
 20
126.3035223516226
 30
0.0
 10
133.2566836753205
 20
126.2315602854899
 30
0.0
 10
133.4387140043356
 20
126.1684570182803
 30
0.0
 10
133.6483860600793
 20
126.1220191183997
 30
0.0
 10
133.8822054990114
 20
126.0772501905715
 30
0.0
 10
134.1447398992498
 20
126.049242142436
 30
0.0
 10
134.3287980348931
 20
126.038194887995
 30
0.0
 10
134.4255973084332
 20
126.0323849508207
 30
0.0
  0
LINE
  5
13D
330
1F
100
AcDbEntity
  8
0
  6
Continuous
 62
     7
370
    25
100
AcDbLine
 10
134.4255973084
 20
126.0323849508
 30
0.0
 11
134.4255973084
 21
125.0
 31
0.0
  0
LINE
  5
13E
330
1F
100
AcDbEntity
  8
0
  6
Continuous
 62
     7
370
    25
100
AcDbLine
 10
134.4255973084
 20
125.0
 30
0.0
 11
128.9371354613
 21
125.0
 31
0.0
  0
LINE
  5
13F
330
1F
100
AcDbEntity
  8
0
  6
Continuous
 62
     7
370
    25
100
AcDbLine
 10
128.9371354613
 20
125.0
 30
0.0
 11
128.9371354613
 21
126.0455783687
 31
0.0
  0
SPLINE
  5
140
330
1F
100
AcDbEntity
  8
0
  6
Continuous
 62
     7
370
    25
100
AcDbSpline
210
0.0
220
0.0
230
1.0
 70
     8
 71
     3
 72
    23
 73
    19
 74
     0
 42
0.00000001
 43
0.00000001
 40
0.0
 40
0.0
 40
0.0
 40
0.0
 40
0.0895029502559841
 40
0.1713125430331338
 40
0.2453803797755819
 40
0.3110949641756657
 40
0.3701410385799925
 40
0.4227992045822478
 40
0.4684053363058265
 40
0.5100460913941044
 40
0.551451270869723
 40
0.5972938512256899
 40
0.6483637676878351
 40
0.7049704037105643
 40
0.7690507909270626
 40
0.8385278383788917
 40
0.9157535340351349
 40
1.0
 40
1.0
 40
1.0
 40
1.0
 10
128.0927567155394
 20
139.5754284270822
 30
0.0
 10
127.9958855651443
 20
139.5701451384669
 30
0.0
 10
127.8104699662923
 20
139.5600326940651
 30
0.0
 10
127.5467689672275
 20
139.5248714760704
 30
0.0
 10
127.3095818737795
 20
139.4874038169218
 30
0.0
 10
127.0993485988695
 20
139.4390077903536
 30
0.0
 10
126.9171746428277
 20
139.376419888214
 30
0.0
 10
126.7623529442863
 20
139.304615743128
 30
0.0
 10
126.6321510032414
 20
139.2257328166911
 30
0.0
 10
126.5292861765794
 20
139.1300385882312
 30
0.0
 10
126.4480675631021
 20
139.0155807325892
 30
0.0
 10
126.3792848788012
 20
138.8820865265714
 30
0.0
 10
126.3194010484909
 20
138.726422120722
 30
0.0
 10
126.2756468527031
 20
138.5452696145094
 30
0.0
 10
126.2351608963204
 20
138.3431727520553
 30
0.0
 10
126.2092868511553
 20
138.1159579966717
 30
0.0
 10
126.1981804884833
 20
137.8658944783934
 30
0.0
 10
126.1947134367966
 20
137.6909760275478
 30
0.0
 10
126.1929045376712
 20
137.5997140962783
 30
0.0
  0
LINE
  5
141
330
1F
100
AcDbEntity
  8
0
  6
Continuous
 62
     7
370
    25
100
AcDbLine
 10
126.1929045377
 20
137.5997140963
 30
0.0
 11
126.1929045377
 21
128.0212926995
 31
0.0
  0
SPLINE
  5
142
330
1F
100
AcDbEntity
  8
0
  6
Continuous
 62
     7
370
    25
100
AcDbSpline
210
0.0
220
0.0
230
1.0
 70
     8
 71
     3
 72
    23
 73
    19
 74
     0
 42
0.00000001
 43
0.00000001
 40
0.0
 40
0.0
 40
0.0
 40
0.0
 40
0.0840386199293183
 40
0.1611336186122188
 40
0.2314446439842899
 40
0.2951823411539539
 40
0.352887740796835
 40
0.403831661710674
 40
0.4504597341396531
 40
0.4917627621207663
 40
0.5333007845215222
 40
0.5801917992930592
 40
0.6327200513467822
 40
0.6916204520740119
 40
0.7571729107909821
 40
0.8302352603516182
 40
0.9107178641505005
 40
1.0
 40
1.0
 40
1.0
 40
1.0
 10
126.1929045376712
 20
128.0212926995264
 30
0.0
 10
126.1943155945601
 20
127.9300127502034
 30
0.0
 10
126.1970211209331
 20
127.7549947816368
 30
0.0
 10
126.2133878860758
 20
127.5040108901943
 30
0.0
 10
126.2394487099758
 20
127.2760898414085
 30
0.0
 10
126.2741383071562
 20
127.0705220595814
 30
0.0
 10
126.3230112059898
 20
126.8893995969821
 30
0.0
 10
126.3832912884892
 20
126.7316490822036
 30
0.0
 10
126.4504692123926
 20
126.5961657628022
 30
0.0
 10
126.5326166397478
 20
126.4810349237394
 30
0.0
 10
126.636765285004
 20
126.3846681736723
 30
0.0
 10
126.7673801233018
 20
126.3035223516227
 30
0.0
 10
126.9238430824265
 20
126.2315602854898
 30
0.0
 10
127.1058734114418
 20
126.1684570182804
 30
0.0
 10
127.3155454671855
 20
126.1220191183996
 30
0.0
 10
127.5493649061176
 20
126.0772501905715
 30
0.0
 10
127.811899306356
 20
126.049242142436
 30
0.0
 10
127.9959574419992
 20
126.038194887995
 30
0.0
 10
128.0927567155394
 20
126.0323849508207
 30
0.0
  0
LINE
  5
143
330
1F
100
AcDbEntity
  8
0
  6
Continuous
 62
     7
370
    25
100
AcDbLine
 10
128.0927567155
 20
126.0323849508
 30
0.0
 11
128.0927567155
 21
125.0
 31
0.0
  0
LINE
  5
144
330
1F
100
AcDbEntity
  8
0
  6
Continuous
 62
     7
370
    25
100
AcDbLine
 10
128.0927567155
 20
125.0
 30
0.0
 11
119.0156851991
 21
125.0
 31
0.0
  0
LINE
  5
145
330
1F
100
AcDbEntity
  8
0
  6
Continuous
 62
     7
370
    25
100
AcDbLine
 10
119.0156851991
 20
125.0
 30
0.0
 11
119.0156851991
 21
126.0422800142
 31
0.0
  0
SPLINE
  5
146
330
1F
100
AcDbEntity
  8
0
  6
Continuous
 62
     7
370
    25
100
AcDbSpline
210
0.0
220
0.0
230
1.0
 70
     8
 71
     3
 72
    19
 73
    15
 74
     0
 42
0.00000001
 43
0.00000001
 40
0.0
 40
0.0
 40
0.0
 40
0.0
 40
0.086435633984712
 40
0.1649856124548534
 40
0.2368689054716779
 40
0.3018640097143767
 40
0.3606192597837703
 40
0.4147845479612318
 40
0.4634700572447274
 40
0.50849062754819
 40
0.6027222101868953
 40
0.7137422526738726
 40
0.844850078376741
 40
1.0
 40
1.0
 40
1.0
 40
1.0
 10
119.0156851990582
 20
126.0422800142471
 30
0.0
 10
119.1081358684
 20
126.0478852202031
 30
0.0
 10
119.2846027906639
 20
126.0585842605753
 30
0.0
 10
119.5364372000477
 20
126.0895038867654
 30
0.0
 10
119.7649345425021
 20
126.1248793958737
 30
0.0
 10
119.9660505265314
 20
126.1846005683354
 30
0.0
 10
120.1476112339242
 20
126.2436151669537
 30
0.0
 10
120.3020823250016
 20
126.3233263899533
 30
0.0
 10
120.4331696139032
 20
126.4128906496983
 30
0.0
 10
120.5816395681558
 20
126.5503642521369
 30
0.0
 10
120.7236754583441
 20
126.7828851490343
 30
0.0
 10
120.8391131269101
 20
127.1259342284102
 30
0.0
 10
120.9049408837805
 20
127.5482950715942
 30
0.0
 10
120.9118128265918
 20
127.8550392561362
 30
0.0
 10
120.9155373769264
 20
128.0212926995264
 30
0.0
  0
LINE
  5
147
330
1F
100
AcDbEntity
  8
0
  6
Continuous
 62
     7
370
    25
100
AcDbLine
 10
120.9155373769
 20
128.0212926995
 30
0.0
 11
120.9155373769
 21
137.5997140963
 31
0.0
  0
SPLINE
  5
148
330
1F
100
AcDbEntity
  8
0
  6
Continuous
 62
     7
370
    25
100
AcDbSpline
210
0.0
220
0.0
230
1.0
 70
     8
 71
     3
 72
    19
 73
    15
 74
     0
 42
0.00000001
 43
0.00000001
 40
0.0
 40
0.0
 40
0.0
 40
0.0
 40
0.1553024111029321
 40
0.2865390964527363
 40
0.3966999676326294
 40
0.4910241660126521
 40
0.5360889848936674
 40
0.5856705053204824
 40
0.6389760792748362
 40
0.6981380125139176
 40
0.7639230345423472
 40
0.8358769782294064
 40
0.9145041597378719
 40
0.9999999999999999
 40
0.9999999999999999
 40
0.9999999999999999
 40
0.9999999999999999
 10
120.9155373769264
 20
137.5997140962783
 30
0.0
 10
120.9117555680624
 20
137.7659511243744
 30
0.0
 10
120.9047779809976
 20
138.0726650220488
 30
0.0
 10
120.8397738133045
 20
138.4941876142348
 30
0.0
 10
120.7229468794611
 20
138.8357464220857
 30
0.0
 10
120.5814703683144
 20
139.0670697078303
 30
0.0
 10
120.4328337540077
 20
139.20592407922
 30
0.0
 10
120.2998515890892
 20
139.2926478084225
 30
0.0
 10
120.1463625589668
 20
139.3741156971705
 30
0.0
 10
119.9663049662815
 20
139.4387580308977
 30
0.0
 10
119.7618775127359
 20
139.4907842333817
 30
0.0
 10
119.5333001984152
 20
139.5287998776666
 30
0.0
 10
119.282344471277
 20
139.558782846265
 30
0.0
 10
119.1070174740168
 20
139.5697272236274
 30
0.0
 10
119.0156851990582
 20
139.5754284270822
 30
0.0
  0
LINE
  5
149
330
1F
100
AcDbEntity
  8
0
  6
Continuous
 62
     7
370
    25
100
AcDbLine
 10
119.0156851991
 20
139.5754284271
 30
0.0
 11
119.0156851991
 21
140.6210067958
 31
0.0
  0
LINE
  5
14A
330
1F
100
AcDbEntity
  8
0
  6
Continuous
 62
     7
370
    25
100
AcDbLine
 10
119.0156851991
 20
140.6210067958
 30
0.0
 11
128.0927567155
 21
140.6210067958
 31
0.0
  0
LINE
  5
14B
330
1F
100
AcDbEntity
  8
0
  6
Continuous
 62
     7
370
    25
100
AcDbLine
 10
128.0927567155
 20
140.6210067958
 30
0.0
 11
128.0927567155
 21
139.5754284271
 31
0.0
  0
SPLINE
  5
14C
330
1F
100
AcDbEntity
  8
0
  6
Continuous
 62
     7
370
    25
100
AcDbSpline
210
0.0
220
0.0
230
1.0
 70
     8
 71
     3
 72
    23
 73
    19
 74
     0
 42
0.00000001
 43
0.00000001
 40
0.0
 40
0.0
 40
0.0
 40
0.0
 40
0.042914326237246
 40
0.0843387656106836
 40
0.1252704516241834
 40
0.1667420759462317
 40
0.2100062658713605
 40
0.2563074390633642
 40
0.3052556153483993
 40
0.3583868071145779
 40
0.4160614055020427
 40
0.4798926160761463
 40
0.5494106362912872
 40
0.6258174218968701
 40
0.7088912350292604
 40
0.7988411659565015
 40
0.8958318450084459
 40
1.0
 40
1.0
 40
1.0
 40
1.0
 10
94.62765220746603
 20
139.5655333636558
 30
0.0
 10
94.51067977756891
 20
139.5604446615524
 30
0.0
 10
94.28079593193968
 20
139.5504439253974
 30
0.0
 10
93.9467541173799
 20
139.4717919523368
 30
0.0
 10
93.63290852234013
 20
139.3453244706294
 30
0.0
 10
93.33831281242448
 20
139.1679699521124
 30
0.0
 10
93.06583446046886
 20
138.9354851500245
 30
0.0
 10
92.81277836386626
 20
138.6544374754019
 30
0.0
 10
92.58018345284692
 20
138.3229065123495
 30
0.0
 10
92.36942038473796
 20
137.9414448591958
 30
0.0
 10
92.18055118157612
 20
137.5041963134521
 30
0.0
 10
92.01761997734309
 20
137.0094813890002
 30
0.0
 10
91.88043956063711
 20
136.4545347364028
 30
0.0
 10
91.76575350631688
 20
135.8411876586811
 30
0.0
 10
91.67819614431808
 20
135.1672451093715
 30
0.0
 10
91.6166531206634
 20
134.4342661244752
 30
0.0
 10
91.58119739063933
 20
133.6420407318514
 30
0.0
 10
91.57604439308659
 20
133.094198298762
 30
0.0
 10
91.57337596318493
 20
132.8105033979024
 30
0.0
  0
SPLINE
  5
14D
330
1F
100
AcDbEntity
  8
0
  6
Continuous
 62
     7
370
    25
100
AcDbSpline
210
0.0
220
0.0
230
1.0
 70
     8
 71
     3
 72
    23
 73
    19
 74
     0
 42
0.00000001
 43
0.00000001
 40
0.0
 40
0.0
 40
0.0
 40
0.0
 40
0.1037953094066423
 40
0.2004113882823702
 40
0.2903880271284608
 40
0.3730861907597578
 40
0.4495156630556859
 40
0.5190543245500734
 40
0.5829044878768308
 40
0.6409667243877437
 40
0.6941136918587333
 40
0.7434066796022732
 40
0.7897216005310845
 40
0.8329986364524437
 40
0.87469235309371
 40
0.9156361925367595
 40
0.9570729316479932
 40
1.0
 40
1.0
 40
1.0
 40
1.0
 10
91.57337596318493
 20
132.8105033979024
 30
0.0
 10
91.57603019372701
 20
132.5279065695544
 30
0.0
 10
91.58115506912647
 20
131.9822593431318
 30
0.0
 10
91.6168366092507
 20
131.192250988306
 30
0.0
 10
91.67791078278063
 20
130.4614216790054
 30
0.0
 10
91.76606501391996
 20
129.7886512407949
 30
0.0
 10
91.88046436058394
 20
129.1763882390312
 30
0.0
 10
92.01744921271408
 20
128.6213401360682
 30
0.0
 10
92.18144772862209
 20
128.1260121470676
 30
0.0
 10
92.36836811792843
 20
127.6867520546183
 30
0.0
 10
92.58134157264615
 20
127.3043777870937
 30
0.0
 10
92.81170095105814
 20
126.9702577453163
 30
0.0
 10
93.06579264847397
 20
126.6886308640667
 30
0.0
 10
93.3392932176293
 20
126.456885970581
 30
0.0
 10
93.63187537223115
 20
126.2750665885285
 30
0.0
 10
93.946888485645
 20
126.1494371552696
 30
0.0
 10
94.28076075302435
 20
126.070504667021
 30
0.0
 10
94.51066791397152
 20
126.060542505974
 30
0.0
 10
94.62765220746603
 20
126.055473432149
 30
0.0
  0
SPLINE
  5
14E
330
1F
100
AcDbEntity
  8
0
  6
Continuous
 62
     7
370
    25
100
AcDbSpline
210
0.0
220
0.0
230
1.0
 70
     8
 71
     3
 72
    23
 73
    19
 74
     0
 42
0.00000001
 43
0.00000001
 40
0.0
 40
0.0
 40
0.0
 40
0.0
 40
0.0484641458887501
 40
0.0948336597645423
 40
0.1398210012885972
 40
0.1851152240748371
 40
0.2306866365651425
 40
0.2784967389530836
 40
0.3291446795115959
 40
0.3829763657304469
 40
0.4412750473917064
 40
0.5042601514674888
 40
0.5722576878373112
 40
0.6458708869580417
 40
0.7253213154626486
 40
0.8105392073776829
 40
0.9020506702755616
 40
1.0
 40
1.0
 40
1.0
 40
1.0
 10
94.62765220746603
 20
126.055473432149
 30
0.0
 10
94.75768099420787
 20
126.0609560455146
 30
0.0
 10
95.01211869233174
 20
126.0716843123808
 30
0.0
 10
95.38228600272727
 20
126.1436113580812
 30
0.0
 10
95.72681780032175
 20
126.2725597575325
 30
0.0
 10
96.04910730377883
 20
126.4461542596639
 30
0.0
 10
96.3424482535129
 20
126.6772478097067
 30
0.0
 10
96.61595462207967
 20
126.9518803662276
 30
0.0
 10
96.857922904681
 20
127.2826488762599
 30
0.0
 10
97.08062505872869
 20
127.6589324621359
 30
0.0
 10
97.27901423562764
 20
128.0858964476679
 30
0.0
 10
97.44367688788562
 20
128.5669512715257
 30
0.0
 10
97.58947711509428
 20
129.0964784304204
 30
0.0
 10
97.7077704377981
 20
129.6782255499474
 30
0.0
 10
97.79337002692854
 20
130.3120810801821
 30
0.0
 10
97.85985514195772
 20
130.9963434779453
 30
0.0
 10
97.89919628548635
 20
131.732580188057
 30
0.0
 10
97.90382404883721
 20
132.2409396751067
 30
0.0
 10
97.90621655607877
 20
132.5037564316841
 30
0.0
  0
SPLINE
  5
14F
330
1F
100
AcDbEntity
  8
0
  6
Continuous
 62
     7
370
    25
100
AcDbSpline
210
0.0
220
0.0
230
1.0
 70
     8
 71
     3
 72
    23
 73
    19
 74
     0
 42
0.00000001
 43
0.00000001
 40
0.0
 40
0.0
 40
0.0
 40
0.0
 40
0.103977834030488
 40
0.2004189277077639
 40
0.2894469221415985
 40
0.3715907047673443
 40
0.4469729840692782
 40
0.5155108024899325
 40
0.5777820899499053
 40
0.6339400356810653
 40
0.6855787159811814
 40
0.7333467401779279
 40
0.7786159160026599
 40
0.8225089842499954
 40
0.8653062465459724
 40
0.9083198458011078
 40
0.9530588985648304
 40
1.0
 40
1.0
 40
1.0
 40
1.0
 10
97.90621655607877
 20
132.5037564316841
 30
0.0
 10
97.90356616592307
 20
132.8039431741154
 30
0.0
 10
97.89845749677286
 20
133.382557891292
 30
0.0
 10
97.86295119731618
 20
134.2176114656693
 30
0.0
 10
97.80183677653895
 20
134.9880336925691
 30
0.0
 10
97.71256058163215
 20
135.6943962124188
 30
0.0
 10
97.6038127871807
 20
136.3382970527182
 30
0.0
 10
97.46468846569893
 20
136.9174598334291
 30
0.0
 10
97.30668112761583
 20
137.4342149310005
 30
0.0
 10
97.11728898608051
 20
137.888048520681
 30
0.0
 10
96.90395648836795
 20
138.2843435347033
 30
0.0
 10
96.66065567490674
 20
138.6252117844743
 30
0.0
 10
96.3918015776252
 20
138.9165820298306
 30
0.0
 10
96.09410859471248
 20
139.1568924353959
 30
0.0
 10
95.76583519681137
 20
139.3408767912163
 30
0.0
 10
95.41036481689123
 20
139.4696708302787
 30
0.0
 10
95.02826348374887
 20
139.5515566926217
 30
0.0
 10
94.76331058445915
 20
139.5608004651567
 30
0.0
 10
94.62765220746603
 20
139.5655333636558
 30
0.0
  0
SPLINE
  5
150
330
1F
100
AcDbEntity
  8
0
  6
Continuous
 62
     7
370
    25
100
AcDbSpline
210
0.0
220
0.0
230
1.0
 70
     8
 71
     3
 72
    23
 73
    19
 74
     0
 42
0.00000001
 43
0.00000001
 40
0.0
 40
0.0
 40
0.0
 40
0.0
 40
0.0844554705898858
 40
0.1632118577490798
 40
0.2358310490280403
 40
0.3036643431786539
 40
0.3670997870367709
 40
0.4267688498974342
 40
0.4838437280038815
 40
0.5388088697042465
 40
0.5927724749435316
 40
0.6469305253172682
 40
0.701256183210854
 40
0.7569810584605224
 40
0.8137314604976668
 40
0.8728648492401244
 40
0.9351340843193644
 40
1.0
 40
1.0
 40
1.0
 40
1.0
 10
78.27441071810789
 20
136.2836706605676
 30
0.0
 10
78.27298382295274
 20
136.4069017805428
 30
0.0
 10
78.27022632000524
 20
136.64504834326
 30
0.0
 10
78.23594495879156
 20
136.9876570774322
 30
0.0
 10
78.18524450175788
 20
137.3036684343905
 30
0.0
 10
78.10887763282027
 20
137.5915716695586
 30
0.0
 10
78.01375278540557
 20
137.8537477853398
 30
0.0
 10
77.89845375826053
 20
138.0904931499562
 30
0.0
 10
77.76046806787039
 20
138.3007223609335
 30
0.0
 10
77.59565360380768
 20
138.4791860216187
 30
0.0
 10
77.41604824211059
 20
138.6357778091395
 30
0.0
 10
77.22072837146568
 20
138.7706933142199
 30
0.0
 10
77.01118883871742
 20
138.8874997476341
 30
0.0
 10
76.78693803650468
 20
138.9829472841739
 30
0.0
 10
76.54712411503122
 20
139.05669174933
 30
0.0
 10
76.2912231959065
 20
139.1032633333676
 30
0.0
 10
76.02153402245494
 20
139.1391634350346
 30
0.0
 10
75.8359577664391
 20
139.1419316258414
 30
0.0
 10
75.74127448095035
 20
139.1433439907962
 30
0.0
  0
LINE
  5
151
330
1F
100
AcDbEntity
  8
0
  6
Continuous
 62
     7
370
    25
100
AcDbLine
 10
75.741274481
 20
139.1433439908
 30
0.0
 11
75.7412744809
 21
133.4462144182
 31
0.0
  0
SPLINE
  5
152
330
1F
100
AcDbEntity
  8
0
  6
Continuous
 62
     7
370
    25
100
AcDbSpline
210
0.0
220
0.0
230
1.0
 70
     8
 71
     3
 72
    23
 73
    19
 74
     0
 42
0.00000001
 43
0.00000001
 40
0.033613767107113
 40
0.033613767107113
 40
0.033613767107113
 40
0.033613767107113
 40
0.0738646620031447
 40
0.1429674268124531
 40
0.208351028064636
 40
0.2692008237727225
 40
0.327038523261821
 40
0.381995764080711
 40
0.4355345142264547
 40
0.4878056263413917
 40
0.540782484994867
 40
0.5957300014500908
 40
0.652617492093618
 40
0.7131988476905062
 40
0.7779129255693417
 40
0.8468957235696697
 40
0.9210203714990401
 40
1.0
 40
1.0
 40
1.0
 40
1.0
 10
75.74127448093482
 20
133.446214418179
 30
0.0
 10
75.80180945251213
 20
133.4476159882539
 30
0.0
 10
75.96614442144109
 20
133.453536005024
 30
0.0
 10
76.22753023230617
 20
133.4831454574599
 30
0.0
 10
76.51772506837162
 20
133.5321465006504
 30
0.0
 10
76.78316142331113
 20
133.6117807551909
 30
0.0
 10
77.02993293857779
 20
133.6992499142548
 30
0.0
 10
77.2489541459673
 20
133.8220432120472
 30
0.0
 10
77.44794325179575
 20
133.9598206798912
 30
0.0
 10
77.62696411396105
 20
134.1194663747738
 30
0.0
 10
77.77775662244812
 20
134.3082455859992
 30
0.0
 10
77.91489025169581
 20
134.5153497066777
 30
0.0
 10
78.0265294683214
 20
134.7501520072034
 30
0.0
 10
78.12002268710259
 20
135.0082793091683
 30
0.0
 10
78.1858273352592
 20
135.2933952541631
 30
0.0
 10
78.24079604328928
 20
135.6012860415645
 30
0.0
 10
78.2687779712462
 20
135.9346277806376
 30
0.0
 10
78.2724938585363
 20
136.1648891492175
 30
0.0
 10
78.27441071810789
 20
136.2836706605676
 30
0.0
  0
SPLINE
  5
153
330
1F
100
AcDbEntity
  8
0
  6
Continuous
 62
     7
370
    25
100
AcDbSpline
210
0.0
220
0.0
230
1.0
 70
     8
 71
     3
 72
    23
 73
    19
 74
     0
 42
0.00000001
 43
0.00000001
 40
0.0
 40
0.0
 40
0.0
 40
0.0
 40
0.0806916057696034
 40
0.1557438081180716
 40
0.2255031210940741
 40
0.2908829235154489
 40
0.3510268954202654
 40
0.4082388039979355
 40
0.4621170962464508
 40
0.5134316752527974
 40
0.5644773256916704
 40
0.6167016685806778
 40
0.6709816128822491
 40
0.728099469269779
 40
0.7893594457053227
 40
0.8547063460047294
 40
0.9245334493092681
 40
1.0
 40
1.0
 40
1.0
 40
1.0
 10
81.65192570098459
 20
79.29350484560612
 30
0.0
 10
81.65039292737693
 20
79.42880403069472
 30
0.0
 10
81.64743450318443
 20
79.68994656367562
 30
0.0
 10
81.61458062327682
 20
80.06697907739242
 30
0.0
 10
81.55822296677549
 20
80.41509444779484
 30
0.0
 10
81.48377114244039
 20
80.73415002854664
 30
0.0
 10
81.38908572739945
 20
81.02614851110536
 30
0.0
 10
81.26643988165758
 20
81.28646647784909
 30
0.0
 10
81.12459422949341
 20
81.51944354799421
 30
0.0
 10
80.96116877814283
 20
81.72530343151881
 30
0.0
 10
80.76994076404094
 20
81.90155793910407
 30
0.0
 10
80.5536134759968
 20
82.05429679883503
 30
0.0
 10
80.31066008940464
 20
82.18306368624377
 30
0.0
 10
80.0407107732313
 20
82.28914959430061
 30
0.0
 10
79.74305949322428
 20
82.37009938632042
 30
0.0
 10
79.41881708867949
 20
82.42996967159856
 30
0.0
 10
79.06661807271783
 20
82.46109125321546
 30
0.0
 10
78.82309019282238
 20
82.46683622600978
 30
0.0
 10
78.69660009096746
 20
82.46982020547944
 30
0.0
  0
LINE
  5
154
330
1F
100
AcDbEntity
  8
0
  6
Continuous
 62
     7
370
    25
100
AcDbLine
 10
78.696600091
 20
82.4698202055
 30
0.0
 11
78.696600091
 21
76.1369796126
 31
0.0
  0
LINE
  5
155
330
1F
100
AcDbEntity
  8
0
  6
Continuous
 62
     7
370
    25
100
AcDbLine
 10
78.696600091
 20
76.1369796126
 30
0.0
 11
78.967065158
 21
76.1369796126
 31
0.0
  0
SPLINE
  5
156
330
1F
100
AcDbEntity
  8
0
  6
Continuous
 62
     7
370
    25
100
AcDbSpline
210
0.0
220
0.0
230
1.0
 70
     8
 71
     3
 72
    23
 73
    19
 74
     0
 42
0.00000001
 43
0.00000001
 40
0.0
 40
0.0
 40
0.0
 40
0.0
 40
0.0693211807643203
 40
0.1341874007063039
 40
0.1957249001729368
 40
0.2537802114405723
 40
0.3092707129647772
 40
0.3633202253971572
 40
0.4161123915062797
 40
0.4690180355979137
 40
0.5234611230060977
 40
0.5796518613850082
 40
0.6392244679700413
 40
0.7020886583361788
 40
0.7696325714047586
 40
0.8410435520684927
 40
0.9182399568172857
 40
0.9999999999999999
 40
0.9999999999999999
 40
0.9999999999999999
 40
0.9999999999999999
 10
78.96706515795564
 20
76.1369796125856
 30
0.0
 10
79.07711749867707
 20
76.13956862029747
 30
0.0
 10
79.2901496106554
 20
76.1445802518282
 30
0.0
 10
79.59911936169999
 20
76.18154787484131
 30
0.0
 10
79.88627914966497
 20
76.24009582192174
 30
0.0
 10
80.15278469786988
 20
76.32123663428244
 30
0.0
 10
80.39538058193806
 20
76.43198717902291
 30
0.0
 10
80.61757377002202
 20
76.56345893990714
 30
0.0
 10
80.81839574560762
 20
76.71963508374348
 30
0.0
 10
80.99475445690399
 20
76.90390613041262
 30
0.0
 10
81.14910966722492
 20
77.11315709230068
 30
0.0
 10
81.28764233193037
 20
77.34600520623123
 30
0.0
 10
81.39584151584071
 20
77.6087026875551
 30
0.0
 10
81.49458406026451
 20
77.89389993983691
 30
0.0
 10
81.56522303638558
 20
78.20706534272625
 30
0.0
 10
81.61258410156981
 20
78.5469783304186
 30
0.0
 10
81.64782533691609
 20
78.91127002467233
 30
0.0
 10
81.65053300062678
 20
79.163677697824
 30
0.0
 10
81.65192570098459
 20
79.29350484560612
 30
0.0
  0
MTEXT
  5
158
330
1F
100
AcDbEntity
  8
0
  6
Continuous
 62
     7
100
AcDbMText
 10
0.0
 20
-211.0195663917
 30
0.0
 40
4.83362
 41
0.0
 71
     1
 72
     1
  1
SOLIDWORKS Educational Product.
  7
SLDTEXTSTYLE0
 73
     1
 44
1.0
  0
MTEXT
  5
159
330
1F
100
AcDbEntity
  8
0
  6
Continuous
 62
     7
100
AcDbMText
 10
0.0
 20
-218.2699963917
 30
0.0
 40
4.83362
 41
0.0
 71
     1
 72
     1
  1
For Instructional Use Only.
  7
SLDTEXTSTYLE0
 73
     1
 44
1.0
  0
ENDSEC
  0
SECTION
  2
OBJECTS
  0
DICTIONARY
  5
C
330
0
100
AcDbDictionary
281
     1
  3
ACAD_GROUP
350
D
  3
ACAD_LAYOUT
350
1A
  3
ACAD_MLINESTYLE
350
17
  3
ACAD_PLOTSETTINGS
350
19
  3
ACAD_PLOTSTYLENAME
350
E
  3
ACAD_SCALELIST
350
47
  3
DWGPROPS
350
15A
  0
DICTIONARY
  5
D
102
{ACAD_REACTORS
330
C
102
}
330
C
100
AcDbDictionary
281
     1
  0
DICTIONARY
  5
1A
102
{ACAD_REACTORS
330
C
102
}
330
C
100
AcDbDictionary
281
     1
  3
Layout1
350
1E
  3
Layout2
350
26
  3
Model
350
22
  0
DICTIONARY
  5
17
102
{ACAD_REACTORS
330
C
102
}
330
C
100
AcDbDictionary
281
     1
  3
Standard
350
18
  0
DICTIONARY
  5
19
102
{ACAD_REACTORS
330
C
102
}
330
C
100
AcDbDictionary
281
     1
  0
ACDBDICTIONARYWDFLT
  5
E
102
{ACAD_REACTORS
330
C
102
}
330
C
100
AcDbDictionary
281
     1
  3
Normal
350
F
100
AcDbDictionaryWithDefault
340
F
  0
DICTIONARY
  5
47
102
{ACAD_REACTORS
330
C
102
}
330
C
100
AcDbDictionary
281
     1
  3
A0
350
48
  3
A1
350
49
  3
A2
350
4A
  3
A3
350
4B
  3
A4
350
4C
  3
A5
350
4D
  3
A6
350
4E
  3
A7
350
4F
  3
A8
350
50
  3
A9
350
51
  3
B0
350
52
  3
B1
350
53
  3
B2
350
54
  3
B3
350
55
  3
B4
350
56
  3
B5
350
57
  3
B6
350
58
  0
XRECORD
  5
15A
102
{ACAD_REACTORS
330
C
102
}
330
C
100
AcDbXrecord
280
     1
  1
DWGPROPS COOKIE
  2

  3

  4

  6

  7

  8
daanv
  9

300
=
301
=
302
=
303
=
304
=
305
=
306
=
307
=
308
=
309
=
 40
0.0
 41
2460684.491579965
 42
2460684.491715892
  1

 90
        0
  0
LAYOUT
  5
1E
102
{ACAD_REACTORS
330
1A
102
}
330
1A
100
AcDbPlotSettings
  1

  2
none_device
  4

  6

 40
0.0
 41
0.0
 42
0.0
 43
0.0
 44
0.0
 45
0.0
 46
0.0
 47
0.0
 48
0.0
 49
0.0
140
0.0
141
0.0
142
1.0
143
1.0
 70
   688
 72
     1
 73
     0
 74
     5
  7

 75
    16
147
1.0
148
0.0
149
0.0
100
AcDbLayout
  1
Layout1
 70
     1
 71
     1
 10
0.0
 20
0.0
 11
420.0
 21
297.0
 12
0.0
 22
0.0
 32
0.0
 14
1.0000000000E+20
 24
1.0000000000E+20
 34
1.0000000000E+20
 15
-1.0000000000E+20
 25
-1.0000000000E+20
 35
-1.0000000000E+20
146
0.0
 13
0.0
 23
0.0
 33
0.0
 16
1.0
 26
0.0
 36
0.0
 17
0.0
 27
1.0
 37
0.0
 76
     0
330
1B
  0
LAYOUT
  5
26
102
{ACAD_REACTORS
330
1A
102
}
330
1A
100
AcDbPlotSettings
  1

  2
none_device
  4

  6

 40
0.0
 41
0.0
 42
0.0
 43
0.0
 44
0.0
 45
0.0
 46
0.0
 47
0.0
 48
0.0
 49
0.0
140
0.0
141
0.0
142
1.0
143
1.0
 70
   688
 72
     1
 73
     0
 74
     5
  7

 75
    16
147
1.0
148
0.0
149
0.0
100
AcDbLayout
  1
Layout2
 70
     1
 71
     2
 10
0.0
 20
0.0
 11
0.0
 21
0.0
 12
0.0
 22
0.0
 32
0.0
 14
0.0
 24
0.0
 34
0.0
 15
0.0
 25
0.0
 35
0.0
146
0.0
 13
0.0
 23
0.0
 33
0.0
 16
1.0
 26
0.0
 36
0.0
 17
0.0
 27
1.0
 37
0.0
 76
     0
330
23
  0
LAYOUT
  5
22
102
{ACAD_REACTORS
330
1A
102
}
330
1A
100
AcDbPlotSettings
  1

  2
none_device
  4
ANSI_A_(11.00_x_8.50_Inches)
  6

 40
6.35
 41
19.05
 42
6.35000508
 43
19.05000254
 44
279.4
 45
215.9
 46
82.4498469165
 47
96.8264552517
 48
0.0
 49
0.0
140
0.0
141
0.0
142
0.0215217391
143
1.0
 70
  1696
 72
     0
 73
     0
 74
     0
  7

 75
     0
147
0.0179189148
148
-1300.4909072572
149
0.0
100
AcDbLayout
  1
Model
 70
     1
 71
     0
 10
0.0
 20
0.0
 11
420.0
 21
297.0
 12
0.0
 22
0.0
 32
0.0
 14
0.0
 24
-210.0
 34
0.0
 15
186.225
 25
181.0
 35
0.0
146
0.0
 13
0.0
 23
0.0
 33
0.0
 16
1.0
 26
0.0
 36
0.0
 17
0.0
 27
1.0
 37
0.0
 76
     0
330
1F
331
29
  0
MLINESTYLE
  5
18
102
{ACAD_REACTORS
330
17
102
}
330
17
100
AcDbMlineStyle
  2
Standard
 70
     0
  3

 62
   256
 51
90.0
 52
90.0
 71
     2
 49
0.5
 62
   256
  6
BYLAYER
 49
-0.5
 62
   256
  6
BYLAYER
  0
ACDBPLACEHOLDER
  5
F
102
{ACAD_REACTORS
330
E
102
}
330
E
  0
SCALE
  5
48
102
{ACAD_REACTORS
330
47
102
}
330
47
100
AcDbScale
 70
     0
300
1:1
140
1.0
141
1.0
290
     1
  0
SCALE
  5
49
102
{ACAD_REACTORS
330
47
102
}
330
47
100
AcDbScale
 70
     0
300
1:2
140
1.0
141
2.0
290
     0
  0
SCALE
  5
4A
102
{ACAD_REACTORS
330
47
102
}
330
47
100
AcDbScale
 70
     0
300
1:4
140
1.0
141
4.0
290
     0
  0
SCALE
  5
4B
102
{ACAD_REACTORS
330
47
102
}
330
47
100
AcDbScale
 70
     0
300
1:5
140
1.0
141
5.0
290
     0
  0
SCALE
  5
4C
102
{ACAD_REACTORS
330
47
102
}
330
47
100
AcDbScale
 70
     0
300
1:8
140
1.0
141
8.0
290
     0
  0
SCALE
  5
4D
102
{ACAD_REACTORS
330
47
102
}
330
47
100
AcDbScale
 70
     0
300
1:10
140
1.0
141
10.0
290
     0
  0
SCALE
  5
4E
102
{ACAD_REACTORS
330
47
102
}
330
47
100
AcDbScale
 70
     0
300
1:16
140
1.0
141
16.0
290
     0
  0
SCALE
  5
4F
102
{ACAD_REACTORS
330
47
102
}
330
47
100
AcDbScale
 70
     0
300
1:20
140
1.0
141
20.0
290
     0
  0
SCALE
  5
50
102
{ACAD_REACTORS
330
47
102
}
330
47
100
AcDbScale
 70
     0
300
1:30
140
1.0
141
30.0
290
     0
  0
SCALE
  5
51
102
{ACAD_REACTORS
330
47
102
}
330
47
100
AcDbScale
 70
     0
300
1:40
140
1.0
141
40.0
290
     0
  0
SCALE
  5
52
102
{ACAD_REACTORS
330
47
102
}
330
47
100
AcDbScale
 70
     0
300
1:50
140
1.0
141
50.0
290
     0
  0
SCALE
  5
53
102
{ACAD_REACTORS
330
47
102
}
330
47
100
AcDbScale
 70
     0
300
1:100
140
1.0
141
100.0
290
     0
  0
SCALE
  5
54
102
{ACAD_REACTORS
330
47
102
}
330
47
100
AcDbScale
 70
     0
300
2:1
140
2.0
141
1.0
290
     0
  0
SCALE
  5
55
102
{ACAD_REACTORS
330
47
102
}
330
47
100
AcDbScale
 70
     0
300
4:1
140
4.0
141
1.0
290
     0
  0
SCALE
  5
56
102
{ACAD_REACTORS
330
47
102
}
330
47
100
AcDbScale
 70
     0
300
8:1
140
8.0
141
1.0
290
     0
  0
SCALE
  5
57
102
{ACAD_REACTORS
330
47
102
}
330
47
100
AcDbScale
 70
     0
300
10:1
140
10.0
141
1.0
290
     0
  0
SCALE
  5
58
102
{ACAD_REACTORS
330
47
102
}
330
47
100
AcDbScale
 70
     0
300
100:1
140
100.0
141
1.0
290
     0
  0
ENDSEC
  0
EOF
